<svg width="95" height="100" viewBox="0 0 100 115" fill="none" xmlns="http://www.w3.org/2000/svg">
<g id="Group">
<g id="Group_2">
<g id="Group_3">
<g id="XMLID_2_">
<g id="Group_4">
<g id="Group_5">
<path id="Vector" d="M66.1174 105.915L60.55 96.9529C62.4617 96.3743 64.3257 95.6741 66.1322 94.8506C66.2768 94.7881 66.4247 94.7207 66.5677 94.6484C66.7453 94.5695 66.9195 94.4857 67.0921 94.4019L79.0371 114.002L69.7977 111.839L66.1174 105.915Z" fill="white"/>
</g>
<g id="Group_6">
<path id="Vector_2" d="M33.118 96.9532L23.8556 111.84L14.6162 114.004L26.5612 94.4038C28.6652 95.4229 30.8497 96.2727 33.118 96.9532Z" fill="white"/>
</g>
<g id="Group_7">
<path id="Vector_3" d="M98.5086 7.0376L93.2306 12.6838L86.1379 13.7292L91.4176 8.07808L98.5086 7.0376Z" fill="#0C5595"/>
</g>
<g id="Group_8">
<path id="Vector_4" d="M91.983 0.942871L91.4176 8.0783L86.1379 13.7294L86.7034 6.59237L91.983 0.942871Z" fill="#0C5595"/>
</g>
<g id="Group_9">
<path id="Vector_5" d="M53.7189 46.1469C55.4087 47.835 56.4524 50.1658 56.4524 52.7383C56.4524 57.8979 52.2774 62.0599 47.1276 62.0599C41.981 62.0599 37.8043 57.8963 37.8043 52.7383C37.8043 47.5967 41.9827 43.415 47.1276 43.415C49.7 43.415 52.0308 44.4604 53.7189 46.1469Z" fill="white"/>
</g>
<g id="Group_10">
<path id="Vector_6" d="M53.7189 46.1472C52.0308 44.4607 49.6984 43.4153 47.1276 43.4153C41.9811 43.4153 37.8043 47.5986 37.8043 52.7385C37.8043 57.8982 41.9827 62.0601 47.1276 62.0601C52.2774 62.0601 56.4524 57.8965 56.4524 52.7385C56.4541 50.1661 55.4087 47.8353 53.7189 46.1472ZM61.737 38.1307C65.4798 41.8718 67.7909 47.0364 67.7909 52.7385C67.7909 64.1641 58.535 73.4035 47.1292 73.4035C35.7152 73.4035 26.4708 64.1641 26.4708 52.7385C26.4708 41.3327 35.7168 32.0752 47.1292 32.0752C52.8313 32.0752 57.9975 34.3912 61.737 38.1307Z" fill="white"/>
</g>
<g id="Group_11">
<path id="Vector_7" d="M70.1199 29.7443C76.011 35.6272 79.6551 43.7604 79.6551 52.7384C79.6551 70.7027 65.095 85.2711 47.1274 85.2711C29.1631 85.2711 14.6062 70.7011 14.6062 52.7384C14.6062 34.7922 29.1614 20.2222 47.1274 20.2222C56.1087 20.2222 64.2353 23.8614 70.1199 29.7443ZM61.7368 38.1306C57.9973 34.3911 52.8311 32.0767 47.129 32.0767C35.715 32.0767 26.4706 41.3342 26.4706 52.74C26.4706 64.1656 35.7166 73.405 47.129 73.405C58.5365 73.405 67.7907 64.1656 67.7907 52.74C67.7907 47.0363 65.478 41.8701 61.7368 38.1306Z" fill="white"/>
</g>
<g id="Group_12">
<path id="Vector_8" d="M79.7852 20.0808C88.1452 28.4392 93.3147 39.9847 93.3147 52.7384C93.3147 71.1054 82.6025 86.9608 67.0923 94.4036C66.9197 94.4875 66.7438 94.5713 66.5679 94.6502C66.4249 94.7176 66.2803 94.7866 66.1324 94.8524C60.3349 97.4725 53.903 98.9288 47.1276 98.9288C21.6251 98.9288 0.943726 78.2639 0.943726 52.7384C0.943726 27.2343 21.6268 6.55127 47.1276 6.55127C59.878 6.54963 71.4235 11.7208 79.7852 20.0808ZM70.12 29.7443C64.2355 23.8614 56.1073 20.2222 47.1276 20.2222C29.1633 20.2222 14.6064 34.7922 14.6064 52.7384C14.6064 70.7027 29.1616 85.2711 47.1276 85.2711C65.0952 85.2711 79.6553 70.7011 79.6553 52.7384C79.657 43.762 76.0112 35.6272 70.12 29.7443Z" fill="white"/>
</g>
</g>
<g id="Group_13">
<g id="Group_14">
<path id="Vector_9" d="M47.1273 99.8703C21.14 99.8703 0 78.7271 0 52.7381C0 26.7491 21.14 5.60742 47.1273 5.60742C59.7134 5.60742 71.5482 10.5107 80.4523 19.4147C80.8205 19.7829 80.8205 20.3796 80.4523 20.7478C80.0841 21.116 79.4874 21.116 79.1192 20.7478C70.5702 12.2004 59.2104 7.49278 47.129 7.49278C22.1821 7.49278 1.887 27.7895 1.887 52.7381C1.887 77.6882 22.1821 97.985 47.129 97.985C53.6184 97.985 59.881 96.6421 65.7459 93.9924C65.8839 93.9299 66.0187 93.8658 66.1519 93.8033L66.5677 94.6482L66.9573 95.5079C66.8126 95.5769 66.6647 95.646 66.5168 95.7117C60.4103 98.4715 53.8864 99.8703 47.1273 99.8703Z" fill="#193967"/>
</g>
<g id="Group_15">
<path id="Vector_10" d="M67.0937 95.347C66.7419 95.347 66.405 95.1498 66.2423 94.8112C66.0171 94.3411 66.2143 93.7789 66.6844 93.5537C82.29 86.0649 92.3726 70.0451 92.3726 52.7383C92.3726 40.6553 87.665 29.2938 79.1209 20.7481C78.7527 20.3799 78.7527 19.7815 79.1209 19.4134C79.4891 19.0452 80.0857 19.0452 80.4539 19.4134C89.3564 28.3158 94.258 40.1506 94.258 52.7367C94.258 61.7953 91.6839 70.5908 86.8135 78.175C82.073 85.5586 75.3945 91.4629 67.4997 95.2517C67.3682 95.3158 67.2301 95.347 67.0937 95.347Z" fill="#193967"/>
</g>
<g id="Group_16">
<path id="Vector_11" d="M47.1272 86.2146C28.6764 86.2146 13.6642 71.1974 13.6642 52.7384C13.6642 34.2892 28.6764 19.2803 47.1272 19.2803C56.0625 19.2803 64.4653 22.76 70.787 29.0785C77.1154 35.397 80.5984 43.7998 80.5984 52.7384C80.5984 71.1958 65.583 86.2146 47.1272 86.2146ZM47.1272 21.1656C29.7152 21.1656 15.5495 35.328 15.5495 52.7384C15.5495 70.157 29.7168 84.3292 47.1272 84.3292C64.5425 84.3292 78.7131 70.1586 78.7131 52.7384C78.7131 44.3044 75.4256 36.375 69.4556 30.4132C63.4889 24.4498 55.5595 21.1656 47.1272 21.1656Z" fill="#193967"/>
</g>
<g id="Group_17">
<path id="Vector_12" d="M47.1274 74.3448C35.2169 74.3448 25.5255 64.6517 25.5255 52.738C25.5255 40.8242 35.2169 31.1328 47.1274 31.1328C52.8952 31.1328 58.3212 33.3814 62.4026 37.4628C66.484 41.5442 68.7326 46.9685 68.7326 52.738C68.7342 64.6517 59.0411 74.3448 47.1274 74.3448ZM47.1274 33.0182C36.2541 33.0182 27.4109 41.8631 27.4109 52.738C27.4109 63.6129 36.2541 72.4594 47.1274 72.4594C58.0023 72.4594 66.8472 63.6129 66.8472 52.738C66.8472 47.4731 64.7958 42.5222 61.0695 38.7959C57.3432 35.0695 52.3939 33.0182 47.1274 33.0182Z" fill="#193967"/>
</g>
<g id="Group_18">
<path id="Vector_13" d="M47.1273 63.0038C41.4663 63.0038 36.8606 58.3997 36.8606 52.7387C36.8606 47.0777 41.4663 42.4736 47.1273 42.4736C49.8641 42.4736 52.4415 43.5421 54.386 45.4817C56.3273 47.4229 57.3957 50.0019 57.3957 52.7404C57.3957 58.3997 52.79 63.0038 47.1273 63.0038ZM47.1273 44.359C42.5068 44.359 38.7476 48.1182 38.7476 52.7387C38.7476 57.3592 42.5052 61.1184 47.1273 61.1184C51.7495 61.1184 55.5103 57.3592 55.5103 52.7387C55.5103 50.5032 54.6375 48.3993 53.0513 46.8147C51.4668 45.2302 49.3628 44.359 47.1273 44.359Z" fill="#193967"/>
</g>
<g id="Group_19">
<path id="Vector_14" d="M79.037 114.945C78.9663 114.945 78.894 114.937 78.8217 114.92L69.5823 112.757C69.339 112.701 69.1286 112.548 68.9971 112.336L59.7495 97.4492C59.595 97.201 59.5654 96.8936 59.6689 96.6191C59.7725 96.3446 59.9977 96.1342 60.2787 96.0488C62.1559 95.48 63.9952 94.7864 65.7425 93.9908C65.8872 93.9283 66.0219 93.8642 66.1518 93.8001C66.1633 93.7952 66.1732 93.7903 66.183 93.7853C66.349 93.7097 66.5167 93.6308 66.6827 93.5503C67.1183 93.3382 67.6443 93.4927 67.8991 93.9086L79.7964 113.431C79.9164 113.591 79.9854 113.786 79.9854 113.998C79.9854 114.518 79.5663 114.938 79.0485 114.942C79.0452 114.945 79.0403 114.945 79.037 114.945ZM70.3926 111.01L77.0596 112.572L66.7271 95.6164C66.6531 95.6493 66.5825 95.6838 66.5085 95.7151C65.0604 96.3758 63.5416 96.9692 61.9899 97.4854L70.3926 111.01Z" fill="#193967"/>
</g>
<g id="Group_20">
<path id="Vector_15" d="M14.6159 114.946C14.3184 114.946 14.0324 114.804 13.8516 114.556C13.6297 114.249 13.6132 113.836 13.8105 113.512L25.7571 93.9125C26.0086 93.4982 26.5362 93.3437 26.9734 93.5541C29.0232 94.5469 31.1814 95.3869 33.3906 96.0509C33.6716 96.1348 33.8985 96.3468 34.002 96.6213C34.1056 96.8958 34.076 97.2032 33.9198 97.4531L24.6574 112.34C24.5243 112.552 24.3139 112.704 24.0723 112.759L14.8329 114.923C14.7589 114.939 14.6866 114.946 14.6159 114.946ZM26.9258 95.6186L16.5917 112.572L23.2586 111.011L31.6729 97.4876C30.0522 96.9517 28.461 96.3254 26.9258 95.6186Z" fill="#193967"/>
</g>
<g id="Group_21">
<path id="Vector_16" d="M66.1797 106.858H37.2156C36.6945 106.858 36.2721 106.436 36.2721 105.915C36.2721 105.394 36.6929 104.971 37.2156 104.971H66.1797C66.6992 104.971 67.1232 105.394 67.1232 105.915C67.1232 106.436 66.7008 106.858 66.1797 106.858Z" fill="#193967"/>
</g>
<g id="Group_22">
<path id="Vector_17" d="M7.33095 53.6801C6.80989 53.6801 6.38745 53.2576 6.38745 52.7366C6.38745 30.2717 24.6624 11.9951 47.1273 11.9951C47.6467 11.9951 48.0708 12.4176 48.0708 12.9386C48.0708 13.4597 47.6483 13.8821 47.1273 13.8821C25.7029 13.8821 8.27281 31.3139 8.27281 52.7382C8.27281 53.2593 7.85037 53.6801 7.33095 53.6801Z" fill="#193967"/>
</g>
<g id="Group_23">
<path id="Vector_18" d="M86.1397 14.6713C86.1134 14.6713 86.0887 14.6713 86.0624 14.6697C85.5446 14.6286 85.1567 14.1733 85.1978 13.6538L85.7649 6.51678C85.7813 6.30473 85.8701 6.1042 86.0147 5.94805L91.2944 0.298552C91.5689 0.00596865 91.9979 -0.0811518 92.3645 0.0799336C92.731 0.241019 92.9546 0.617435 92.9233 1.01686L92.3562 8.15393C92.3152 8.67335 91.8598 9.06291 91.3421 9.01853C90.8243 8.97744 90.4364 8.52377 90.4775 8.00435L90.8292 3.55806L87.6174 6.9951L87.0766 13.8034C87.0388 14.2965 86.6262 14.6713 86.1397 14.6713Z" fill="#193967"/>
</g>
<g id="Group_24">
<path id="Vector_19" d="M86.1379 14.6715C85.7894 14.6715 85.4656 14.4808 85.3012 14.1669C85.1155 13.8118 85.173 13.3779 85.4475 13.0853L90.7272 7.43581C90.8718 7.27966 91.0674 7.17775 91.2795 7.14652L98.3722 6.10604C98.7716 6.04686 99.1579 6.24576 99.3452 6.6008C99.5293 6.95585 99.4718 7.38979 99.1989 7.68237L93.9209 13.3286C93.7763 13.4847 93.5807 13.5866 93.3686 13.6179L86.2743 14.6616C86.2283 14.6682 86.1823 14.6715 86.1379 14.6715ZM91.8811 8.96449L88.6676 12.4032L92.7687 11.7999L95.9805 8.36123L91.8811 8.96449Z" fill="#193967"/>
</g>
<g id="Group_25">
<path id="Vector_20" d="M47.1273 53.6803C46.8857 53.6803 46.6441 53.5883 46.46 53.4042C46.0918 53.036 46.0918 52.4377 46.46 52.0695L79.1176 19.4119C79.1307 19.3987 79.1439 19.3839 79.1587 19.3724L85.469 13.0589C85.8372 12.6907 86.4338 12.6907 86.802 13.0589C87.1702 13.4271 87.1702 14.0237 86.802 14.3919L80.4539 20.7449C80.4392 20.7597 80.426 20.7729 80.4112 20.7844L47.7947 53.4058C47.6106 53.5883 47.369 53.6803 47.1273 53.6803Z" fill="#193967"/>
</g>
</g>
</g>
</g>
</g>
</g>
</svg>
