<svg width="91" height="95" viewBox="0 0 91 101" fill="none" xmlns="http://www.w3.org/2000/svg">
<g id="Group">
<path id="Vector" fill-rule="evenodd" clip-rule="evenodd" d="M73.3962 27.9985C70.5331 27.9985 21.4507 27.9985 18.3243 27.9985L0.994141 48.766L46.0476 101L90.7264 48.766L73.3962 27.9985ZM25.613 51.0571L38.3181 84.4152L9.53802 51.0571H25.613ZM31.1396 51.0571H60.5798L45.9594 89.9852L31.1396 51.0571ZM66.1075 51.0571H82.2045L53.5115 84.5825L66.1075 51.0571ZM70.7315 32.6018L82.2695 46.4328H66.1075L60.9545 32.6018H70.7315ZM55.4279 32.6018L60.5798 46.4328H31.1176L36.2926 32.6018H55.4279ZM20.9659 32.6018H30.7649L25.613 46.4328H9.42782L20.9659 32.6018Z" fill="white"/>
<path id="Vector_2" fill-rule="evenodd" clip-rule="evenodd" d="M45.8485 0C47.4563 0 48.7776 1.24024 48.7776 2.77502V13.7678C48.7776 15.2816 47.4563 16.5428 45.8485 16.5428C44.2407 16.5428 42.9414 15.2816 42.9414 13.7678V2.77502C42.9414 1.24024 44.2407 0 45.8485 0Z" fill="white"/>
<path id="Vector_3" fill-rule="evenodd" clip-rule="evenodd" d="M71.0617 5.69569C72.4491 6.45203 72.9329 8.15512 72.1405 9.47952L66.3715 19.0017C65.5792 20.3261 63.795 20.7879 62.4076 20.0105C61.0201 19.2542 60.5364 17.5511 61.3287 16.2267L67.0977 6.7045C67.8901 5.3801 69.6742 4.9183 71.0617 5.69569Z" fill="white"/>
<path id="Vector_4" fill-rule="evenodd" clip-rule="evenodd" d="M20.6362 5.69569C19.2488 6.45203 18.765 8.15512 19.5794 9.47952L25.3264 19.0017C26.1187 20.3261 27.9249 20.7879 29.3124 20.0105C30.6998 19.2542 31.1836 17.5511 30.3692 16.2267L24.6211 6.7045C23.8067 5.3801 22.0237 4.9183 20.6362 5.69569Z" fill="white"/>
</g>
</svg>
