<svg width="92" height="90" viewBox="0 0 107 107" fill="none" xmlns="http://www.w3.org/2000/svg">
<g id="eye-svgrepo-com 1">
<path id="Vector" d="M40.1251 19.8821C44.189 18.5895 48.6423 17.833 53.5001 17.833C72.1444 17.833 84.8332 28.9769 92.3995 38.8065C96.1886 43.7294 98.0834 46.1907 98.0834 53.4997C98.0834 60.8087 96.1886 63.2701 92.3995 68.193C84.8332 78.0223 72.1444 89.1663 53.5001 89.1663C34.8558 89.1663 22.1667 78.0223 14.6006 68.193C10.8114 63.2701 8.91675 60.8087 8.91675 53.4997C8.91675 46.1907 10.8114 43.7294 14.6006 38.8065C16.7461 36.0192 19.3035 33.1262 22.2917 30.4116" stroke="white" stroke-width="6.6875" stroke-linecap="round"/>
<path id="Vector_2" d="M66.875 53.5C66.875 60.887 60.887 66.875 53.5 66.875C46.113 66.875 40.125 60.887 40.125 53.5C40.125 46.113 46.113 40.125 53.5 40.125C60.887 40.125 66.875 46.113 66.875 53.5Z" stroke="white" stroke-width="6.6875"/>
</g>
</svg>
