<svg width="123" height="131" viewBox="0 0 123 131" fill="none" xmlns="http://www.w3.org/2000/svg">
<path fill-rule="evenodd" clip-rule="evenodd" d="M79.6972 3.15984C93.8046 1.60439 114.103 -5.01516 121.02 7.3706C129.198 22.013 109.458 38.095 108.56 54.8398C108.134 62.7881 119.651 68.8179 117.317 76.4282C114.987 84.0251 102.486 82.8118 97.9754 89.3548C89.1546 102.15 95.24 130.628 79.6972 130.997C64.3393 131.362 74.3646 97.4011 60.7769 90.238C42.801 80.7617 10.8709 107.588 1.30136 89.6692C-7.46612 73.2525 30.5947 67.384 39.9919 51.319C46.1689 40.7591 36.7242 25.247 44.5072 15.8067C52.6329 5.951 66.9962 4.56023 79.6972 3.15984Z" fill="#476185"/>
</svg>
