<svg width="122" height="104" viewBox="0 0 122 104" fill="none" xmlns="http://www.w3.org/2000/svg">
<path d="M0.67106 101.098C0.37322 101.098 0.131348 100.857 0.131348 100.559C0.131348 100.26 0.372733 100.019 0.67106 100.019H121.33C121.628 100.019 121.87 100.261 121.87 100.559C121.87 100.856 121.628 101.098 121.33 101.098H0.67106Z" fill="#59646E"/>
<path d="M40.7173 59.4118C40.7173 59.1139 40.9592 58.8721 41.257 58.8721C41.5548 58.8721 41.7967 59.1139 41.7967 59.4118V82.744C41.7967 83.0419 41.5548 83.2838 41.257 83.2838C40.9592 83.2838 40.7173 83.0419 40.7173 82.744V59.4118Z" fill="#121936"/>
<path fill-rule="evenodd" clip-rule="evenodd" d="M61.5466 91.1884L61.7598 95.544L54.4019 101.652L65.1849 99.5357L66.0663 90.8584L61.5466 91.1884Z" fill="#FFB085"/>
<path fill-rule="evenodd" clip-rule="evenodd" d="M59.6961 100.467C59.5886 99.1804 59.3764 97.5749 59.3204 96.4449C50.8651 95.6496 50.9536 100.632 51.8457 103.153L66.7625 100.677L66.5752 99.3001L59.6961 100.467Z" fill="#060D1B"/>
<path fill-rule="evenodd" clip-rule="evenodd" d="M84.2771 57.2356L86.2033 66.5285C87.2754 71.7003 82.4579 74.9473 78.7514 74.0967L62.3298 70.3264C59.001 75.8924 54.7666 80.2238 50.6372 84.6977L44.7485 81.5646C47.7707 74.2694 51.6451 67.0492 58.2633 60.4622C65.3472 61.0345 72.1868 62.0132 78.0779 64.5736L84.2771 57.2356Z" fill="#060D1B"/>
<path fill-rule="evenodd" clip-rule="evenodd" d="M89.3527 74.2339H65.8924C65.0563 74.2339 64.3721 74.9181 64.3721 75.7542C64.3721 76.5908 65.0563 77.2751 65.8924 77.2751H89.3527C90.1888 77.2751 90.873 76.5908 90.873 75.7542C90.8735 74.9181 90.1888 74.2339 89.3527 74.2339Z" fill="#59646E"/>
<path fill-rule="evenodd" clip-rule="evenodd" d="M79.1432 94.5025V76.1849C79.1432 75.3488 78.459 74.6646 77.6229 74.6646C76.7863 74.6646 76.1025 75.3488 76.1025 76.1849V94.5025C76.1025 95.3386 76.7868 96.0229 77.6229 96.0229C78.459 96.0229 79.1432 95.3386 79.1432 94.5025Z" fill="#59646E"/>
<path fill-rule="evenodd" clip-rule="evenodd" d="M68.4814 96.0228H86.7635C87.1815 96.0228 87.5237 95.6807 87.5237 95.2626C87.5237 94.8446 87.1815 94.5024 86.7635 94.5024H68.4814C68.0633 94.5024 67.7212 94.8446 67.7212 95.2626C67.7212 95.6807 68.0633 96.0228 68.4814 96.0228Z" fill="#59646E"/>
<path fill-rule="evenodd" clip-rule="evenodd" d="M76.4205 73.5613C73.7487 74.5478 71.0774 75.5342 68.4061 76.5207C69.2543 81.9714 68.9215 87.2979 67.7067 92.5316H60.4121C58.7 86.1236 58.6908 80.3931 59.9644 73.9005C60.6992 72.9938 61.5947 71.2331 62.3296 70.3264C67.0264 71.4049 71.7237 72.4833 76.4205 73.5613Z" fill="#060D1B"/>
<path fill-rule="evenodd" clip-rule="evenodd" d="M70.9601 96.9971C71.8327 96.9971 72.5403 97.7047 72.5403 98.5773C72.5403 99.4499 71.8327 100.157 70.9601 100.157C70.0875 100.157 69.3799 99.4499 69.3799 98.5773C69.3799 97.7042 70.0875 96.9971 70.9601 96.9971Z" fill="#59646E"/>
<path fill-rule="evenodd" clip-rule="evenodd" d="M84.36 96.9971C85.2326 96.9971 85.9402 97.7047 85.9402 98.5773C85.9402 99.4499 85.2326 100.157 84.36 100.157C83.4874 100.157 82.7798 99.4499 82.7798 98.5773C82.7798 97.7042 83.4869 96.9971 84.36 96.9971Z" fill="#59646E"/>
<path d="M45.3521 80.2382C45.2085 80.2002 45.1224 80.0533 45.1603 79.9092C45.1983 79.7656 45.3453 79.6795 45.4888 79.7175C45.502 79.7209 50.064 80.901 51.8924 83.4195C51.9795 83.5402 51.9527 83.7086 51.8325 83.7957C51.7123 83.8828 51.5435 83.8561 51.4563 83.7359C49.7418 81.3746 45.3642 80.2416 45.3521 80.2382Z" fill="#0D122B"/>
<path d="M60.0846 91.2244C59.9395 91.258 59.7945 91.1679 59.7609 91.0229C59.7274 90.8779 59.8174 90.7329 59.9624 90.6993C59.976 90.6964 64.6393 89.5838 68.1262 90.6993C68.2679 90.7441 68.3457 90.8954 68.301 91.0366C68.2562 91.1777 68.1048 91.2565 67.9637 91.2117C64.6218 90.1425 60.0977 91.2215 60.0846 91.2244Z" fill="#0D122B"/>
<path d="M51.2097 81.5377C51.1211 81.6569 50.9527 81.6817 50.8335 81.5936C50.7142 81.5051 50.6889 81.3367 50.7775 81.2174L61.2696 67.1352C61.3362 67.0452 61.4487 67.0092 61.5509 67.0345V67.034L78.6883 71.3605C78.8329 71.3965 78.9205 71.543 78.8845 71.687C78.8484 71.8316 78.702 71.9192 78.5579 71.8832L61.5937 67.6L51.2097 81.5377Z" fill="#0D122B"/>
<path d="M66.2929 88.9532C66.2954 89.1016 66.1766 89.2238 66.0287 89.2262C65.8802 89.2286 65.7581 89.1099 65.7556 88.9615L65.5347 75.3397C65.5332 75.2418 65.5843 75.1552 65.6617 75.107L68.8275 73.0197C68.9516 72.9384 69.118 72.9725 69.1993 73.0966C69.2806 73.2207 69.2465 73.3871 69.1224 73.4684L66.0744 75.4784L66.2929 88.9532Z" fill="#0D122B"/>
<path fill-rule="evenodd" clip-rule="evenodd" d="M64.7572 60.4617L64.7241 61.1411C69.474 61.7873 74.0029 62.8016 78.0778 64.5725L81.7346 60.4612H77.7984H71.0522L64.7572 60.4617Z" fill="#193967"/>
<path fill-rule="evenodd" clip-rule="evenodd" d="M45.586 82.0103L43.4461 85.8102L33.9653 87.0599L44.2189 91.0126L49.5868 84.1389L45.586 82.0103Z" fill="#FFB085"/>
<path fill-rule="evenodd" clip-rule="evenodd" d="M39.0772 88.8768C39.6714 87.7311 40.3469 86.259 40.9012 85.273C36.8566 80.9962 31.0467 82.9988 31.002 86.9685L44.945 92.8188L45.5197 91.5534L39.0772 88.8768Z" fill="#060D1B"/>
<path d="M96.7046 59.4118C96.7046 59.1139 96.946 58.8721 97.2443 58.8721C97.5421 58.8721 97.784 59.1139 97.784 59.4118V100.558C97.784 100.856 97.5426 101.098 97.2443 101.098C96.9465 101.098 96.7046 100.856 96.7046 100.558V59.4118Z" fill="#59646E"/>
<path d="M17.3618 59.4118C17.3618 59.1139 17.6037 58.8721 17.9015 58.8721C18.1994 58.8721 18.4412 59.1139 18.4412 59.4118V100.558C18.4412 100.856 18.1994 101.098 17.9015 101.098C17.6037 101.098 17.3618 100.856 17.3618 100.558V59.4118Z" fill="#121936"/>
<path d="M41.7967 100.559C41.7967 100.856 41.5548 101.098 41.257 101.098C40.9592 101.098 40.7173 100.857 40.7173 100.559V93.1991C40.7173 92.9013 40.9592 92.6594 41.257 92.6594C41.5548 92.6594 41.7967 92.9013 41.7967 93.1991V100.559Z" fill="#121936"/>
<path fill-rule="evenodd" clip-rule="evenodd" d="M61.643 0.846924C80.2697 0.846924 95.37 15.9467 95.37 34.5734C95.37 45.2616 90.3972 54.7871 82.6397 60.9663H40.6462C32.8893 54.7871 27.916 45.2616 27.916 34.5734C27.9165 15.9467 43.0163 0.846924 61.643 0.846924Z" fill="#E6E6E6"/>
<path fill-rule="evenodd" clip-rule="evenodd" d="M75.7292 35.5171H91.9435C93.1422 35.5171 93.9092 36.4977 93.6478 37.6969L88.5748 60.9673H68.0015L73.0745 37.6969C73.3358 36.4977 74.5306 35.5171 75.7292 35.5171Z" fill="#193967"/>
<path fill-rule="evenodd" clip-rule="evenodd" d="M92.2626 35.5415C93.2743 35.6997 93.8851 36.6083 93.6476 37.6969L88.5746 60.9674H84.8647L89.9378 37.6969C90.1748 36.6078 91.1817 35.6992 92.2626 35.5415Z" fill="#121936"/>
<path fill-rule="evenodd" clip-rule="evenodd" d="M98.5198 57.2356H75.6421V60.9669H98.5198C99.5462 60.9669 100.386 60.1274 100.386 59.101C100.386 58.0751 99.5462 57.2356 98.5198 57.2356Z" fill="#121936"/>
<path fill-rule="evenodd" clip-rule="evenodd" d="M60.697 46.3634L65.148 35.2893C63.9971 31.3122 59.0715 31.2855 57.777 34.3145L54.7222 45.5122L60.697 46.3634Z" fill="#060D1B"/>
<path fill-rule="evenodd" clip-rule="evenodd" d="M75.6427 57.2356H16.3322C15.3063 57.2356 14.4663 58.0751 14.4663 59.1015C14.4663 60.1279 15.3058 60.9674 16.3322 60.9674H75.6423V57.2356H75.6427Z" fill="#0A1E3C"/>
<path fill-rule="evenodd" clip-rule="evenodd" d="M59.7935 32.4097L59.958 57.2351H84.4937L80.6403 33.9018L77.5519 31.2062L72.0706 29.9929C71.0734 35.282 64.445 37.1133 65.1716 30.9108L59.7935 32.4097Z" fill="#0A1E3C"/>
<path fill-rule="evenodd" clip-rule="evenodd" d="M81.0495 45.5688L80.6407 33.9024C80.6304 31.0277 74.68 29.7497 73.5358 33.3739L71.9712 44.8631L81.0495 45.5688Z" fill="#060D1B"/>
<path fill-rule="evenodd" clip-rule="evenodd" d="M52.4883 52.5893L40.7129 56.1079L45.381 55.8072L56.8181 55.4466L59.8851 46.2476L55.1976 45.593L52.4883 52.5893Z" fill="#FFB085"/>
<path fill-rule="evenodd" clip-rule="evenodd" d="M71.4494 49.3316L54.9232 53.6595L52.8154 55.4466H61.9833L74.6814 54.4543C76.21 54.335 77.45 53.2313 77.8228 51.744L79.4025 45.4407L72.8418 44.863L71.4494 49.3316Z" fill="#FFB085"/>
<path fill-rule="evenodd" clip-rule="evenodd" d="M30.8455 57.2355H61.6233C61.8213 57.2355 61.9829 57.0735 61.9829 56.8759V55.8067C61.9829 55.6086 61.8209 55.447 61.6233 55.447H30.8455C30.6474 55.447 30.4858 55.6091 30.4858 55.8067V56.8759C30.4854 57.0735 30.6474 57.2355 30.8455 57.2355Z" fill="#999CA5"/>
<path fill-rule="evenodd" clip-rule="evenodd" d="M46.9876 30.0154H21.0921C20.2458 30.0154 19.7041 30.7079 19.8886 31.5547L24.4078 52.2843C24.4968 52.6921 24.8477 52.9749 25.2653 52.9749H52.4427C52.7172 52.9749 52.9537 52.8615 53.1265 52.6478C53.2987 52.4342 53.3591 52.1787 53.3002 51.9105L48.8623 31.5547C48.6774 30.7084 47.834 30.0154 46.9876 30.0154Z" fill="#B4B7BF"/>
<path d="M72.4869 39.7408C72.5088 39.5933 72.6465 39.4921 72.7935 39.514C72.9409 39.5359 73.0422 39.6736 73.0203 39.8206L72.3297 44.3081L80.3942 45.2231C80.5422 45.2391 80.6488 45.3725 80.6327 45.5204C80.6166 45.6684 80.4833 45.7749 80.3354 45.7584L72.0036 44.8133C71.9958 44.8128 71.988 44.8118 71.9803 44.8108C71.8328 44.7889 71.7316 44.6512 71.7535 44.5042L72.4869 39.7408Z" fill="#193967"/>
<path d="M60.065 46.4427C60.0655 46.5912 59.9458 46.7119 59.7973 46.7123C59.6489 46.7128 59.5282 46.5931 59.5277 46.4447L59.4922 40.047C59.4917 39.8985 59.6114 39.7778 59.7599 39.7773C59.9083 39.7769 60.029 39.8966 60.0295 40.045L60.065 46.4427Z" fill="#193967"/>
<path d="M58.0703 52.5466C58.2133 52.5077 58.3613 52.5919 58.4002 52.7354C58.4392 52.8785 58.355 53.0265 58.2114 53.0654L52.2843 54.6831C52.1412 54.722 51.9933 54.6378 51.9543 54.4943C51.9154 54.3512 51.9996 54.2032 52.1432 54.1643L58.0703 52.5466Z" fill="#193967"/>
<path fill-rule="evenodd" clip-rule="evenodd" d="M72.0711 29.9934L71.5669 25.7521C72.715 25.7078 73.6323 24.7631 73.6323 23.6039C73.6323 22.4164 72.6697 21.4538 71.4822 21.4538C71.3577 21.4538 71.235 21.4645 71.1163 21.485L70.5965 16.4373L59.8037 16.6061C60.2349 20.0571 60.6972 24.0599 61.1377 27.6734C61.3669 29.5529 63.3773 30.023 65.1454 29.7583C65.1643 30.5637 65.1536 30.1058 65.1721 30.9112C64.446 37.1138 71.0739 35.2824 72.0711 29.9934Z" fill="#FFB085"/>
<path fill-rule="evenodd" clip-rule="evenodd" d="M61.4484 21.2217C62.6359 21.2217 63.5985 22.1843 63.5985 23.3718C63.5985 24.5592 62.6359 25.5219 61.4484 25.5219C60.261 25.5219 59.2983 24.5592 59.2983 23.3718C59.2979 22.1843 60.2605 21.2217 61.4484 21.2217Z" fill="white"/>
<path d="M61.4485 20.9517C62.1167 20.9517 62.7216 21.2227 63.1596 21.6607C63.5976 22.0987 63.8687 22.7037 63.8687 23.3719C63.8687 24.04 63.5976 24.645 63.1596 25.083C62.7216 25.521 62.1167 25.792 61.4485 25.792C60.7803 25.792 60.1754 25.521 59.7374 25.083C59.2994 24.645 59.0283 24.04 59.0283 23.3719C59.0283 22.7037 59.2994 22.0987 59.7374 21.6607C60.1749 21.2227 60.7798 20.9517 61.4485 20.9517ZM62.7781 22.0423C62.4379 21.7021 61.9678 21.4914 61.4485 21.4914C60.9292 21.4914 60.4591 21.7021 60.1189 22.0423C59.7788 22.3825 59.568 22.8526 59.568 23.3719C59.568 23.8911 59.7788 24.3612 60.1189 24.7014C60.4591 25.0416 60.9292 25.2523 61.4485 25.2523C61.9678 25.2523 62.4379 25.0416 62.7781 24.7014C63.1183 24.3612 63.3285 23.8911 63.3285 23.3719C63.3285 22.8526 63.1183 22.3825 62.7781 22.0423Z" fill="#550166"/>
<path fill-rule="evenodd" clip-rule="evenodd" d="M67.0129 21.1162C68.2004 21.1162 69.163 22.0788 69.163 23.2663C69.163 24.4538 68.2004 25.4164 67.0129 25.4164C65.8254 25.4164 64.8628 24.4538 64.8628 23.2663C64.8628 22.0788 65.8254 21.1162 67.0129 21.1162Z" fill="white"/>
<path d="M67.013 20.8464C67.6812 20.8464 68.2861 21.1175 68.7241 21.5555C69.1621 21.9935 69.4332 22.5984 69.4332 23.2666C69.4332 23.9348 69.1621 24.5397 68.7241 24.9777C68.2861 25.4157 67.6812 25.6868 67.013 25.6868C66.3448 25.6868 65.7399 25.4157 65.3019 24.9777C64.8639 24.5397 64.5928 23.9348 64.5928 23.2666C64.5928 22.5984 64.8639 21.9935 65.3019 21.5555C65.7399 21.1175 66.3448 20.8464 67.013 20.8464ZM68.3425 21.9366C68.0024 21.5964 67.5322 21.3857 67.013 21.3857C66.4937 21.3857 66.0236 21.5964 65.6834 21.9366C65.3432 22.2768 65.1325 22.7469 65.1325 23.2661C65.1325 23.7854 65.3432 24.2555 65.6834 24.5957C66.0236 24.9359 66.4937 25.1466 67.013 25.1466C67.5322 25.1466 68.0024 24.9359 68.3425 24.5957C68.6827 24.2555 68.8934 23.7854 68.8934 23.2661C68.8934 22.7469 68.6827 22.2768 68.3425 21.9366Z" fill="#550166"/>
<path d="M63.6523 23.4959C63.6825 23.3504 63.8251 23.257 63.9706 23.2872C64.1161 23.3173 64.2096 23.4599 64.1794 23.6054L63.7253 25.7662L64.9308 25.685C65.0793 25.6752 65.2077 25.7876 65.2175 25.9356C65.2272 26.084 65.1148 26.2125 64.9668 26.2222L63.4071 26.3278C63.3832 26.3293 63.3589 26.3278 63.3341 26.323C63.1886 26.2928 63.0951 26.1502 63.1253 26.0047L63.6523 23.4959Z" fill="#550166"/>
<path fill-rule="evenodd" clip-rule="evenodd" d="M65.1694 30.9326C67.9312 30.1383 68.8043 28.4116 68.8043 28.4116C67.4927 29.272 66.0955 29.6186 65.1455 29.7577L65.1723 30.9107C65.1713 30.918 65.1703 30.9257 65.1694 30.9326Z" fill="#550166"/>
<path fill-rule="evenodd" clip-rule="evenodd" d="M71.0133 16.232C72.6441 14.7836 75.7505 15.8864 72.8276 21.9269C72.3112 22.9942 70.0896 23.6371 70.183 21.6354C70.2925 19.2858 68.3498 18.6196 66.6017 18.6585C65.0784 18.6926 61.9141 19.2269 60.3392 19.0342C53.5191 18.201 54.817 9.93548 64.82 12.362C68.0738 13.1519 70.9972 14.6381 71.0133 16.232Z" fill="#193967"/>
<path d="M71.4557 49.6003C71.3073 49.6037 71.1841 49.4864 71.1807 49.338C71.1773 49.1896 71.2946 49.0664 71.4431 49.063L74.9125 48.9813C75.0609 48.9779 75.1841 49.0952 75.1875 49.2436C75.1909 49.392 75.0736 49.5151 74.9252 49.5186L71.4557 49.6003Z" fill="#193967"/>
<path d="M63.5987 23.6415C63.4498 23.6415 63.3286 23.5208 63.3286 23.3719C63.3286 23.223 63.4493 23.1023 63.5987 23.1023H64.8636C65.0125 23.1023 65.1332 23.223 65.1332 23.3719C65.1332 23.5208 65.0125 23.6415 64.8636 23.6415H63.5987Z" fill="#550166"/>
<path fill-rule="evenodd" clip-rule="evenodd" d="M79.36 31.8623C80.1192 32.3475 80.6375 33.0556 80.6404 33.9024L80.9071 35.5172H88.9332C89.0378 30.7308 86.6566 29.9341 84.686 29.025C82.4435 27.9909 82.2585 26.9139 82.1383 24.4207L82.0133 22.2725C81.1713 22.2696 80.3085 22.7174 80.1065 23.5087C79.1054 23.1198 78.0416 23.0205 76.8999 23.2785C76.6886 22.2609 76.0112 22.1591 75.3785 22.0759C75.4588 22.3859 75.3216 25.5989 75.2968 26.4817C75.2968 28.223 76.1003 29.1477 77.1067 29.5521C76.8517 30.4442 76.1557 30.47 75.3844 30.7264C75.1444 30.8062 74.8972 30.908 74.6539 31.0651C74.0845 31.4326 73.5686 31.9952 73.4674 32.8434C73.4333 33.1296 73.4513 33.3734 73.5083 33.5788C73.8548 34.8397 75.6443 34.646 75.6443 33.8669C75.6443 33.1471 75.945 32.3037 77.2507 31.7762C78.1623 31.4078 78.5438 31.4949 79.36 31.8623Z" fill="#FF8600"/>
<path fill-rule="evenodd" clip-rule="evenodd" d="M77.1065 29.5521C77.1065 29.5521 78.0365 29.9288 80.0601 29.4338C80.0601 29.4338 79.2396 30.688 76.6846 30.2237C76.8695 30.0762 77.0155 29.8689 77.1065 29.5521Z" fill="#550166"/>
<path fill-rule="evenodd" clip-rule="evenodd" d="M76.2546 25.8904C76.4585 25.8904 76.6235 26.1055 76.6235 26.3707C76.6235 26.636 76.4585 26.8511 76.2546 26.8511C76.0507 26.8511 75.8857 26.636 75.8857 26.3707C75.8857 26.1055 76.0507 25.8904 76.2546 25.8904Z" fill="#550166"/>
<path fill-rule="evenodd" clip-rule="evenodd" d="M79.1453 25.9424C79.3492 25.9424 79.5142 26.1575 79.5142 26.4227C79.5142 26.688 79.3492 26.9031 79.1453 26.9031C78.9413 26.9031 78.7764 26.688 78.7764 26.4227C78.7764 26.157 78.9413 25.9424 79.1453 25.9424Z" fill="#550166"/>
<path fill-rule="evenodd" clip-rule="evenodd" d="M78.0673 27.727L77.8074 27.9869C77.6848 28.11 77.4833 28.11 77.3607 27.9869L77.1008 27.727C77.022 27.6481 76.9996 27.5352 77.0424 27.4321C77.0852 27.3289 77.1806 27.2651 77.2926 27.2651H77.8766C77.9885 27.2651 78.0839 27.3289 78.1267 27.4321C78.1686 27.5357 78.1462 27.6481 78.0673 27.727Z" fill="#550166"/>
<path d="M90.9932 27.0913C90.8316 27.4261 90.4296 27.5663 90.0948 27.4047C89.7599 27.2431 89.6198 26.8407 89.7814 26.5063C89.9259 26.206 89.9157 25.9058 89.8023 25.6498C89.7142 25.4502 89.5667 25.2726 89.3818 25.1354C89.1915 24.9938 88.9628 24.8959 88.7185 24.8594C88.3413 24.8035 87.9242 24.8998 87.5495 25.2191C87.3286 25.4069 87.1728 25.6697 87.1237 25.9705C87.0774 26.2513 87.1251 26.572 87.2998 26.9068C87.5607 27.4076 87.9924 27.7444 88.4255 28.0831C89.1171 28.6233 89.814 29.1679 90.1902 30.312C90.3946 30.933 90.4189 31.593 90.1916 32.2383C89.9931 32.8033 89.6066 33.342 88.9866 33.8117C88.6898 34.0355 88.2673 33.9767 88.0435 33.6798C87.8196 33.3829 87.8785 32.9605 88.1754 32.7366C88.571 32.4373 88.809 32.1171 88.9219 31.7959C89.0436 31.4499 89.026 31.0829 88.9097 30.7286C88.661 29.9728 88.1277 29.5563 87.5982 29.1426C87.0453 28.7109 86.4954 28.2817 86.1036 27.5288C85.7868 26.9205 85.7045 26.3097 85.7956 25.7544C85.8982 25.132 86.2214 24.5874 86.6803 24.1966C87.384 23.597 88.1831 23.4179 88.9136 23.5265C89.3799 23.5956 89.8174 23.7834 90.1829 24.055C90.5542 24.3309 90.8525 24.6935 91.0355 25.1071C91.2988 25.7048 91.3256 26.4002 90.9932 27.0913Z" fill="#FF8600"/>
<path d="M79.4502 28.0613C79.3582 28.0739 79.273 28.0097 79.2604 27.9177C79.2477 27.8257 79.312 27.7405 79.4039 27.7279L81.5696 27.4266C81.6616 27.414 81.7468 27.4782 81.7594 27.5702C81.7721 27.6622 81.7078 27.7474 81.6158 27.76L79.4502 28.0613Z" fill="#550166"/>
<path d="M79.5006 28.8186C79.4092 28.8011 79.3493 28.713 79.3668 28.6215C79.3843 28.5305 79.4724 28.4701 79.5639 28.4876L81.4434 28.8531C81.5344 28.8707 81.5948 28.9587 81.5773 29.0502C81.5597 29.1412 81.4716 29.2016 81.3802 29.1841L79.5006 28.8186Z" fill="#550166"/>
<path d="M76.2897 27.7279C76.3817 27.7405 76.4459 27.8257 76.4332 27.9177C76.4206 28.0097 76.3354 28.0739 76.2434 28.0613L74.0783 27.76C73.9863 27.7474 73.922 27.6622 73.9347 27.5702C73.9473 27.4782 74.0325 27.414 74.1245 27.4266L76.2897 27.7279Z" fill="#550166"/>
<path d="M76.1297 28.4882C76.2207 28.4706 76.3092 28.5305 76.3268 28.622C76.3443 28.713 76.2844 28.8016 76.1929 28.8191L74.3134 29.1846C74.2219 29.2021 74.1338 29.1422 74.1163 29.0507C74.0988 28.9597 74.1587 28.8712 74.2502 28.8536L76.1297 28.4882Z" fill="#550166"/>
<path d="M84.4324 31.0982C84.5448 31.0335 84.6888 31.0724 84.7531 31.1848C84.8178 31.2972 84.7789 31.4413 84.6665 31.5055C84.6611 31.5085 82.7149 32.5957 84.0922 34.6713C84.1637 34.7798 84.134 34.9258 84.026 34.9979C83.9798 35.0285 83.9267 35.0407 83.8756 35.0363C83.7832 35.0305 83.6698 35.0154 83.5427 34.9988C83.2605 34.9618 82.9062 34.9151 82.6341 34.957C82.3913 34.9944 82.2137 35.1268 82.2682 35.4811C82.2881 35.6096 82.2 35.7298 82.0715 35.7493C81.9431 35.7692 81.8229 35.6811 81.8034 35.5527C81.6929 34.8377 82.0608 34.5691 82.5621 34.4917C82.8488 34.4474 83.1724 34.4776 83.4532 34.5126C82.309 32.2852 84.426 31.1016 84.4324 31.0982Z" fill="#550166"/>
<path fill-rule="evenodd" clip-rule="evenodd" d="M47.5973 31.5547L52.0352 51.9105C52.0936 52.1792 52.0333 52.4342 51.861 52.6478C51.7987 52.7247 51.7286 52.7889 51.6507 52.8396C51.5184 52.9252 51.3651 52.9714 51.1977 52.9749H52.4426C52.717 52.9749 52.9535 52.8615 53.1258 52.6478C53.2981 52.4337 53.3585 52.1787 53.3001 51.9105L53.1025 51.0043L48.8621 31.5547C48.6777 30.7079 47.8338 30.0154 46.9875 30.0154H45.7227C46.569 30.0159 47.4129 30.7084 47.5973 31.5547Z" fill="#828793"/>
<path d="M38.2506 53.2438C38.1021 53.2438 37.9819 53.1236 37.9819 52.9752C37.9819 52.8268 38.1021 52.7065 38.2506 52.7065H50.0128C50.1613 52.7065 50.2815 52.8268 50.2815 52.9752C50.2815 53.1236 50.1613 53.2438 50.0128 53.2438H38.2506Z" fill="#193967"/>
<path fill-rule="evenodd" clip-rule="evenodd" d="M32.201 49.1243H38.2454C38.4425 49.1243 38.5695 49.2742 38.5262 49.4571L37.1932 55.1229L36.6963 57.2355H29.9331L31.7635 49.4571C31.8063 49.2742 32.0039 49.1243 32.201 49.1243Z" fill="#828793"/>
<path fill-rule="evenodd" clip-rule="evenodd" d="M33.7624 38.7422C34.9266 38.7422 36.0118 39.9311 36.186 41.3979C36.3603 42.8647 35.5578 44.0537 34.3937 44.0537C33.2295 44.0537 32.1443 42.8647 31.9701 41.3979C31.7958 39.9316 32.5983 38.7422 33.7624 38.7422Z" fill="white"/>
<path fill-rule="evenodd" clip-rule="evenodd" d="M44.9211 12.2368C47.9014 12.2368 50.3172 14.6526 50.3172 17.633C50.3172 20.6133 47.9014 23.0291 44.9211 23.0291C41.9407 23.0291 39.5249 20.6133 39.5249 17.633C39.5244 14.6526 41.9407 12.2368 44.9211 12.2368Z" fill="white"/>
<path d="M44.9212 11.3936C46.644 11.3936 48.2042 12.0919 49.3328 13.221C50.4619 14.3501 51.1603 15.9098 51.1603 17.6326C51.1603 19.3554 50.4619 20.9152 49.3328 22.0447C48.2038 23.1738 46.644 23.8722 44.9212 23.8722C43.1984 23.8722 41.6381 23.1738 40.5091 22.0447C39.38 20.9157 38.6816 19.3559 38.6816 17.6326C38.6816 15.9098 39.38 14.3496 40.5091 13.221C41.6381 12.0919 43.1984 11.3936 44.9212 11.3936ZM48.1405 14.4133C47.3166 13.5894 46.1783 13.0799 44.9212 13.0799C43.6641 13.0799 42.5253 13.5894 41.7014 14.4133C40.8775 15.2372 40.3679 16.3756 40.3679 17.6326C40.3679 18.8897 40.8775 20.0285 41.7014 20.8524C42.5253 21.6763 43.6636 22.1859 44.9212 22.1859C46.1787 22.1859 47.3171 21.6763 48.1405 20.8524C48.9644 20.0285 49.474 18.8902 49.474 17.6326C49.474 16.3756 48.9644 15.2372 48.1405 14.4133Z" fill="#B4B7BF"/>
<path d="M46.8941 14.4039C46.9803 14.2827 47.1482 14.2545 47.2693 14.3406C47.3905 14.4268 47.4187 14.5947 47.3326 14.7159L45.1402 17.7887C45.0876 17.8622 45.0049 17.9016 44.9207 17.9016V17.9026H42.0367C41.8878 17.9026 41.7671 17.7819 41.7671 17.6329C41.7671 17.484 41.8878 17.3633 42.0367 17.3633H44.7825L46.8941 14.4039Z" fill="#B4B7BF"/>
<path fill-rule="evenodd" clip-rule="evenodd" d="M53.865 6.18994H60.1045C60.3133 6.18994 60.4841 6.36076 60.4841 6.56954V7.74971C60.4841 7.95849 60.3133 8.12931 60.1045 8.12931H53.865C53.6562 8.12931 53.4854 7.95849 53.4854 7.74971V6.56954C53.4854 6.36076 53.6562 6.18994 53.865 6.18994Z" fill="#D6D3D3"/>
<path fill-rule="evenodd" clip-rule="evenodd" d="M81.7727 18.4165H88.0122C88.221 18.4165 88.3918 18.5873 88.3918 18.7961V19.9763C88.3918 20.185 88.221 20.3559 88.0122 20.3559H81.7727C81.5639 20.3559 81.3931 20.185 81.3931 19.9763V18.7961C81.3936 18.5873 81.5639 18.4165 81.7727 18.4165Z" fill="#D6D3D3"/>
<path d="M63.7577 28.021C63.6326 27.9412 63.5956 27.7752 63.6754 27.6501C63.7552 27.5251 63.9212 27.4881 64.0463 27.5679C64.0492 27.5698 65.1393 28.2862 66.1531 27.1518C66.2518 27.0413 66.4217 27.0316 66.5322 27.1309C66.6426 27.2297 66.6524 27.4 66.5531 27.5105C65.2323 28.989 63.7616 28.0234 63.7577 28.021Z" fill="#550166"/>
</svg>
