<svg width="146" height="129" viewBox="0 0 146 129" fill="none" xmlns="http://www.w3.org/2000/svg">
<path d="M121.025 58.6737C97.5325 56.5889 122.085 47.7299 131.919 40.2081C141.754 32.6871 123.902 25.8683 105.056 23.8621C86.209 21.855 106.943 21.3048 106.004 11.9411C105.066 2.57834 85.7815 -0.17547 72.878 0.00853398V0.0433697C59.9772 -0.102226 40.9285 2.6757 39.9956 11.9795C39.0572 21.3432 59.7899 21.8934 40.9437 23.9005C22.0967 25.9076 4.24616 32.7255 14.0811 40.2465C23.9159 47.7674 48.4673 56.6273 24.9753 58.7121C1.48408 60.7969 -4.7714 78.4408 3.42614 85.6008C11.6246 92.7609 26.3814 92.5778 23.6713 96.9832C20.9612 101.389 8.14015 103.776 12.6292 113.308C17.1183 122.839 28.1612 118.218 28.1612 118.218L73.1218 119.338V119.294L117.838 118.18C117.838 118.18 128.881 122.802 133.37 113.27C137.859 103.739 125.039 101.352 122.328 96.9457C119.618 92.5394 134.374 92.7234 142.573 85.5633C150.772 78.4023 144.517 60.7585 121.025 58.6737Z" fill="#060D1B"/>
<path d="M107.782 92.1775C106.286 95.7942 106.228 102.622 107.321 107.382C107.321 107.382 108.561 111.769 111.5 113.873C112.194 114.373 112.989 114.744 113.881 114.898C117.303 115.487 119.238 114.832 120.5 112.632C120.96 111.834 121.329 110.831 121.65 109.611C122.859 105.03 121.018 98.205 122.4 94.4767C123.781 90.7466 125.68 88.3947 125.276 84.494C124.873 80.5933 123.493 76.865 123.896 73.7682C123.896 73.7682 127.004 66.6545 125.392 62.0651C125.11 61.2621 124.808 60.5306 124.506 59.8482C123.088 56.6227 121.666 54.4897 122.284 51.2241C123.032 47.2653 121.881 35.9598 116.413 35.5891C110.945 35.2184 111.866 44.3409 112.499 48.0683C113.131 51.7958 113.766 53.8046 112.384 55.5259C111.003 57.2453 108.151 59.8857 108.829 63.8998C108.875 64.1714 108.923 64.4456 108.972 64.7198C109.645 68.5098 110.504 72.5409 108.829 74.6283C107.031 76.865 105.248 82.1055 106.745 84.8468C108.243 87.5917 109.278 88.5582 107.782 92.1775Z" fill="#121936"/>
<path d="M115.724 116.62C115.771 116.62 115.819 116.606 115.861 116.578C118.961 114.469 117.658 110.512 116.278 106.322C115.681 104.508 115.064 102.634 114.754 100.803C113.996 96.3327 115.663 89.5558 117.002 84.1107C117.46 82.2483 117.892 80.4905 118.148 79.1176C118.78 75.7197 118.334 73.8038 117.903 71.9503C117.66 70.9071 117.409 69.828 117.348 68.4793C117.215 65.5691 117.681 61.3085 118.772 55.4552C119.435 51.9055 118.335 49.6698 117.607 48.1906C117.505 47.9834 117.409 47.7886 117.326 47.6046C117.27 47.484 117.128 47.4304 117.006 47.4849C116.885 47.5403 116.831 47.6823 116.887 47.8038C116.973 47.9914 117.071 48.1906 117.175 48.4023C117.916 49.91 118.931 51.9743 118.298 55.3676C117.598 59.1254 116.687 64.575 116.865 68.5016C116.929 69.8941 117.185 70.9955 117.433 72.0593C117.872 73.9476 118.287 75.7314 117.673 79.03C117.42 80.3895 116.989 82.1411 116.533 83.9964C115.183 89.4843 113.504 96.3148 114.278 100.884C114.594 102.75 115.217 104.642 115.819 106.472C117.198 110.659 118.389 114.275 115.588 116.18C115.478 116.255 115.45 116.404 115.526 116.514C115.572 116.583 115.648 116.62 115.724 116.62Z" fill="#2E3756"/>
<path d="M107.149 79.3322C107.149 79.3322 107.897 70.7277 106.919 68.5474C105.94 66.3679 104.732 66.3098 103.983 63.0978C103.235 59.8858 104.041 55.4679 101.393 55.8698C98.7461 56.2718 98.4584 60.1144 98.6887 63.4998C98.919 66.8842 98.919 68.433 97.538 70.8421C96.1569 73.2511 95.1783 76.3488 96.329 80.2495C97.4797 84.1502 100.07 86.101 99.3797 88.7968C98.6887 91.4925 96.329 96.4267 97.538 101.13C98.747 105.834 103.351 113.808 107.898 113.808C112.445 113.808 113.711 110.883 112.617 105.547C111.524 100.212 108.128 96.4838 109.97 91.4353C111.811 86.3877 106.952 82.42 107.149 79.3322Z" fill="#7A91E5"/>
<path d="M114.325 112.844C114.45 112.844 114.556 112.748 114.565 112.621C114.575 112.489 114.474 112.373 114.341 112.364C112.118 112.207 107.593 109.786 104.942 105.086C103.003 101.651 103.603 97.7986 104.184 94.0739C104.361 92.9413 104.544 91.7712 104.643 90.6555C104.961 87.088 104.284 85.3328 103.566 83.474C103.333 82.872 103.093 82.2485 102.891 81.5607C102.104 78.8712 102.038 70.7518 102.038 70.6696C102.037 70.5374 101.929 70.4312 101.797 70.4312C101.796 70.4312 101.796 70.4312 101.795 70.4312C101.661 70.432 101.555 70.5401 101.556 70.6732C101.558 71.01 101.623 78.9418 102.429 81.6956C102.636 82.403 102.88 83.0354 103.116 83.6473C103.813 85.4525 104.472 87.1577 104.164 90.6136C104.065 91.714 103.892 92.8252 103.708 94.0007C103.115 97.8067 102.501 101.742 104.522 105.323C107.261 110.176 111.98 112.681 114.308 112.845C114.313 112.843 114.318 112.844 114.325 112.844Z" fill="#2E3756"/>
<path d="M123.092 113.234C127.386 113.662 134.488 106.466 135.064 98.3194C135.639 90.1741 132.301 87.8794 133.222 85.8143C134.143 83.7491 138.402 80.078 138.287 75.8325C138.172 71.5879 137.021 70.784 137.366 68.2606C137.711 65.7364 137.366 56.4469 132.531 56.4451C127.696 56.4433 127.466 62.0652 127.466 64.2447C127.466 66.4242 128.157 68.375 126.199 69.6371C124.242 70.8992 122.4 73.7102 122.804 78.6435C123.207 83.5768 124.876 84.6093 124.472 86.904C124.069 89.1987 119.753 93.4433 118.889 100.385C118.027 107.326 118.487 112.775 123.092 113.234Z" fill="#121936"/>
<path d="M121.481 115.426C121.525 115.426 121.569 115.414 121.608 115.389C126.413 112.397 127 102.15 126.67 98.7553C126.645 98.4945 126.618 98.2381 126.592 97.9835C126.257 94.742 125.968 91.9427 128.63 86.26C131.519 80.0941 132.19 69.2914 132.196 69.1833C132.204 69.0511 132.103 68.9368 131.969 68.9296C131.839 68.9216 131.722 69.0225 131.714 69.1556C131.708 69.2628 131.042 79.9753 128.193 86.0572C125.475 91.8596 125.784 94.8591 126.112 98.0336C126.138 98.2872 126.165 98.5427 126.19 98.8026C126.499 101.984 125.907 112.144 121.352 114.982C121.239 115.052 121.205 115.2 121.275 115.313C121.322 115.385 121.401 115.426 121.481 115.426Z" fill="#2E3756"/>
<path d="M119.528 117.548C113.043 119.363 108.776 119.541 106.047 121.272C104.041 122.544 102.549 125.582 101.16 126.258C100.888 126.389 100.62 126.43 100.354 126.35C100.131 126.283 99.9058 126.131 99.6809 125.873C99.6809 125.873 104.154 116.577 98.8841 110.478C93.6154 104.38 91.2198 101.762 93.3734 98.6596C95.5288 95.5575 98.0892 98.6096 99.4237 100.536C100.758 102.465 104.272 101.877 102.735 98.6355C101.197 95.3931 95.2877 89.8373 98.998 85.1996C101.753 81.7572 104.119 84.4842 105.873 86.7199C105.878 86.7279 105.883 86.7342 105.889 86.7422C105.891 86.744 105.892 86.7458 105.893 86.7476C106.495 87.5131 107.024 88.2178 107.472 88.5921C109.23 90.0615 111.314 87.0352 110.116 83.1175C109.4 80.7728 110.298 77.2812 112.2 74.9847C113.475 73.4439 115.202 72.4417 117.195 72.682C122.159 73.2822 125.197 78.8863 122.451 83.7035C119.706 88.5198 116.84 92.24 118.539 94.0792C120.238 95.9183 126.831 89.6908 129.178 94.6625C131.526 99.6341 119.45 105.209 119.863 107.984C120.275 110.758 125.145 105.631 126.421 107.93C127.697 110.226 126.013 115.734 119.528 117.548Z" fill="url(#paint0_linear_794_5636)"/>
<rect x="105.891" y="74.958" width="6.7215" height="18.0431" fill="url(#paint1_linear_794_5636)"/>
<path d="M101.16 126.258C100.888 126.389 100.62 126.43 100.354 126.35C108.843 112.289 116.318 79.4213 116.442 78.8792C113.387 101.465 104.091 120.639 101.16 126.258Z" fill="url(#paint2_linear_794_5636)"/>
<path d="M101.624 87.614C101.624 87.614 108.936 98.7445 109.973 103.77L110.599 102.205C110.599 102.204 105.685 91.0788 101.624 87.614Z" fill="url(#paint3_linear_794_5636)"/>
<path d="M96.9888 101.044C96.9888 101.044 104.301 112.174 105.338 117.199L105.964 115.635C105.964 115.634 101.049 104.509 96.9888 101.044Z" fill="url(#paint4_linear_794_5636)"/>
<path d="M111.483 100.897C111.483 100.897 117.649 96.3899 124.668 95.2332C124.668 95.2332 120.126 96.4185 116.039 98.9382C111.951 101.458 110.44 102.823 110.44 102.823L111.483 100.897Z" fill="url(#paint5_linear_794_5636)"/>
<path d="M105.41 117.334C105.41 117.334 111.576 112.827 118.596 111.67C118.596 111.67 114.053 112.856 109.966 115.376C105.879 117.895 104.368 119.26 104.368 119.26L105.41 117.334Z" fill="url(#paint6_linear_794_5636)"/>
<path d="M86.9152 21.9781L66.2274 109.509C65.5687 112.296 66.4093 115.186 68.1417 115.969L93.5247 127.446C96.061 128.593 98.8598 126.703 99.6879 123.198L125.699 13.1459C126.527 9.64173 124.696 7.43994 121.706 8.21436L91.7753 15.9729C89.7338 16.5026 87.5749 19.1912 86.9152 21.9781Z" fill="black"/>
<path d="M89.154 22.8544L68.4661 110.384C67.8074 113.171 68.6481 116.061 70.3804 116.845L95.7635 128.322C98.2997 129.469 101.099 127.578 101.927 124.074L127.938 14.0204C128.766 10.5163 126.935 8.31358 123.944 9.0889L94.015 16.8474C91.9717 17.3789 89.8136 20.0675 89.154 22.8544Z" fill="black"/>
<path d="M86.6538 23.9548L66.8935 107.56C66.1587 110.669 67.105 113.88 69.0534 114.738L93.1504 125.336C95.9609 126.572 99.0725 124.438 99.9938 120.541L124.758 15.7622C125.68 11.8633 123.659 9.38546 120.361 10.2108L92.0857 17.2878C89.7995 17.8604 87.3887 20.8437 86.6538 23.9548ZM87.0607 23.8673C87.7221 21.0688 89.8918 18.3892 91.9459 17.8827L120.195 10.9138C123.146 10.1858 124.948 12.4126 124.124 15.8988L99.4426 120.325C98.619 123.811 95.8372 125.731 93.3171 124.634L69.1941 114.144C67.4402 113.381 66.5861 110.498 67.2475 107.699L87.0607 23.8673Z" fill="white"/>
<path d="M87.0603 23.8673L67.2462 107.699C66.5848 110.498 67.4398 113.381 69.1927 114.144L93.3157 124.634C95.8359 125.73 98.6168 123.811 99.4413 120.325L124.123 15.8988C124.947 12.4126 123.145 10.1858 120.194 10.9137L91.9446 17.8827C89.8914 18.3891 87.7217 21.0688 87.0603 23.8673Z" fill="white"/>
<path d="M87.0603 23.8673L67.2462 107.699C66.5848 110.498 67.4398 113.381 69.1927 114.144L93.3157 124.634C95.8359 125.73 98.6168 123.811 99.4413 120.325L124.123 15.8988C124.947 12.4126 123.145 10.1858 120.194 10.9137L91.9446 17.8827C89.8914 18.3891 87.7217 21.0688 87.0603 23.8673Z" fill="#FFE1EF"/>
<path d="M86.3774 22.6338L65.8696 109.4C65.1419 112.479 66.0758 115.681 68.0017 116.561L93.3579 128.152C96.1872 129.446 99.3122 127.364 100.234 123.468L126.175 13.7105C127.095 9.81694 125.039 7.37397 121.7 8.23861L91.7707 15.9945C89.4988 16.5831 87.1051 19.5549 86.3774 22.6338ZM86.7824 22.5427C87.4376 19.7719 89.5911 17.1039 91.6327 16.5822L121.535 8.94068C124.523 8.17698 126.356 10.3716 125.533 13.8552L99.6796 123.242C98.856 126.725 96.0617 128.599 93.5254 127.452L68.1424 115.974C66.41 115.191 65.5667 112.314 66.2209 109.544L86.7824 22.5427Z" fill="url(#paint7_linear_794_5636)"/>
<path d="M79.4551 71.1117C88.6053 71.7003 97.7564 72.2889 106.907 72.8776C111.296 54.3851 115.686 35.8918 120.074 17.3994C110.087 19.5637 100.101 21.7271 90.1136 23.8914C86.561 39.6309 83.0085 55.3713 79.4551 71.1117Z" fill="white"/>
<path d="M82.3267 64.9806C90.6004 65.1851 98.8732 65.3897 107.147 65.5942C110.769 50.2996 114.391 35.0049 118.013 19.7102C109.117 21.5556 100.221 23.401 91.3245 25.2464C88.3258 38.492 85.3262 51.7359 82.3267 64.9806Z" fill="#7E89B9"/>
<path d="M103.916 68.0246C104.252 67.2528 104.375 67.0679 104.862 67.1117C104.969 67.1215 104.997 67.5235 105.035 67.6512C105.133 67.528 105.364 67.1233 105.507 67.1153C105.795 67.0992 105.993 67.3109 105.959 68.1032C105.926 68.8946 105.504 69.7842 104.749 70.4274C104.663 70.5006 104.584 70.5292 104.513 70.5792C104.434 70.6346 104.365 70.69 104.307 70.7382C104.273 70.6846 104.231 70.6248 104.179 70.5613C104.134 70.5051 104.082 70.4443 104.02 70.389C103.508 69.9352 103.58 68.7963 103.916 68.0246Z" fill="#C59BD2"/>
<path d="M100.766 68.7492C100.529 69.7585 100.759 70.599 101.28 70.6267C101.8 70.6544 102.417 69.8505 102.657 68.8305C102.897 67.8104 102.667 66.9699 102.143 66.9529C101.619 66.9359 101.003 67.7398 100.766 68.7492Z" fill="#C59BD2"/>
<path d="M100.082 68.4301C99.4255 67.9862 99.0966 67.7665 98.437 67.3306C98.5266 68.5695 98.5714 69.192 98.6575 70.4443C99.2257 69.6422 99.5107 69.2394 100.082 68.4301Z" fill="#C59BD2"/>
<path d="M81.5264 70.2282C82.073 69.6288 82.3464 69.3269 82.8958 68.7204C83.1601 69.3662 83.2919 69.6913 83.5536 70.3461C83.8735 68.9392 84.1944 67.5324 84.5143 66.1256C83.697 66.0997 83.2883 66.0872 82.471 66.0613C82.1555 67.4502 81.8409 68.8392 81.5264 70.2282Z" fill="#C59BD2"/>
<path d="M79.8276 76.0217C87.7509 76.7791 95.6742 77.5366 103.597 78.294C103.749 77.65 103.825 77.3285 103.978 76.6844C96.0327 75.9976 88.0888 75.3107 80.144 74.6238C80.0176 75.1829 79.954 75.4625 79.8276 76.0217Z" fill="white"/>
<path d="M79.1992 78.7924C87.0795 79.6901 94.9607 80.5869 102.841 81.4846C102.993 80.8406 103.069 80.519 103.222 79.875C95.3201 79.0479 87.4174 78.2217 79.5156 77.3945C79.3892 77.9546 79.3265 78.2333 79.1992 78.7924Z" fill="white"/>
<path d="M78.5718 81.5642C86.4099 82.6012 94.2481 83.6382 102.086 84.6753C102.239 84.0312 102.315 83.7097 102.467 83.0657C94.6075 82.0992 86.7478 81.1327 78.8881 80.1663C78.7618 80.7254 78.6981 81.005 78.5718 81.5642Z" fill="white"/>
<path d="M89.6372 86.101C93.5348 86.6896 97.4332 87.2782 101.331 87.8669C101.483 87.2228 101.559 86.9013 101.712 86.2573C97.8034 85.7044 93.8951 85.1506 89.9858 84.5977C89.8469 85.1997 89.777 85.4998 89.6372 86.101Z" fill="white"/>
<mask id="mask0_794_5636" style="mask-type:luminance" maskUnits="userSpaceOnUse" x="46" y="21" width="68" height="102">
<path d="M113.093 52.1512C113.093 52.1512 102.748 102.129 101.712 102.721C100.676 103.313 97.2057 121.727 95.1928 122.019C93.1799 122.312 72.0466 112.08 72.0466 112.08L74.91 83.1202L70.61 75.4259C70.61 75.4259 61.9456 78.3709 56.969 67.8585C51.9924 57.3471 46.4297 40.6786 46.4297 40.6786L72.0475 26.5281L91.9028 21.1045L101.714 30.2583L113.093 52.1512Z" fill="white"/>
</mask>
<g mask="url(#mask0_794_5636)">
<path d="M98.9294 51.2606C99.1113 54.5235 98.7519 57.9767 100.143 61.0369C100.143 61.0369 99.2323 60.5581 98.0798 59.3398C97.3843 58.6029 96.5984 57.5953 95.8733 56.2608C93.9501 52.721 94.0047 46.5711 93.6597 44.0219C93.3156 41.4726 89.1787 36.9145 89.1787 36.9145L87.4589 31.0451L87.311 30.5431C87.311 30.5431 89.6367 27.273 92.2858 27.9903C94.9332 28.7075 98.2626 33.0263 98.9491 36.4446C99.6356 39.8657 98.7474 47.9976 98.9294 51.2606Z" fill="#53285A"/>
<path d="M98.0794 59.3397C97.3839 58.6028 96.5979 57.5952 95.8729 56.2608C93.9497 52.7209 94.0043 46.5711 93.6593 44.0218C93.3152 41.4725 89.1783 36.9144 89.1783 36.9144L87.4585 31.045C88.015 30.8334 89.3557 30.5484 90.5826 32.0589C92.1788 34.0231 95.2545 39.7701 95.5126 43.0008C95.769 46.2316 96.9242 57.3308 98.9774 59.7077C99.7579 60.6099 99.1503 60.2061 98.0794 59.3397Z" fill="#2F295A"/>
<path d="M91.4994 36.5161C91.4985 36.7876 91.4959 37.0574 91.4932 37.3227C91.4466 40.2551 91.1204 42.8294 88.9435 44.8329C86.5695 47.0177 85.011 47.4831 83.2553 48.9775C81.807 48.5612 79.9358 48.086 78.3486 47.2616C77.2042 46.6676 76.2094 45.8923 75.6242 44.8249C74.4493 42.6856 73.5898 40.8045 73.4141 38.1293C73.2376 35.455 74.581 33.1638 75.885 32.5073C76.5481 32.1741 78.1479 32.3197 78.5547 31.2104C78.9625 30.0992 85.5657 28.7567 87.3545 29.6981C89.1433 30.6396 91.5093 33.2505 91.4994 36.5161Z" fill="#53285A"/>
<path d="M91.4927 37.3228C91.4461 40.2552 91.1199 42.8295 88.943 44.833C86.569 47.0178 85.0105 47.4832 83.2549 48.9775C81.8066 48.5613 79.9353 48.0861 78.3482 47.2617C77.2243 46.2353 75.9616 44.5972 75.1702 42.064C73.4719 36.6234 76.1686 33.0103 77.5631 32.4967C78.9576 31.984 82.408 33.2479 83.6223 34.8941C84.7031 36.3545 89.1734 37.9293 91.4927 37.3228Z" fill="#2F295A"/>
<path d="M118.236 153.96L115.263 154.972L114.714 155.158C114.714 155.158 114.429 154.791 113.811 153.88C113.195 152.969 111.385 147.959 110.768 145.984C110.15 144.009 105.953 136.424 104.119 133.113C102.284 129.802 101.816 125.988 101.687 125.439C101.641 125.247 101.049 123.954 100.225 122.217C99.8008 121.324 99.3142 120.314 98.8096 119.278C98.6492 118.95 98.4888 118.619 98.3266 118.288C97.1472 115.887 95.9382 113.491 95.2177 112.195C94.5831 111.054 93.143 107.771 91.5674 104.055C88.8116 97.5635 85.6436 89.7532 85.6436 89.7532L91.1301 88.6482L98.1993 87.2253L101.632 94.4453L103.231 106.704C103.231 106.704 104.482 109.451 105.908 113.791C105.973 113.989 106.037 114.186 106.099 114.385C106.364 115.222 106.602 116.055 106.815 116.862C107.66 120.033 108.136 122.788 108.368 123.768C108.674 125.058 108.996 125.36 110.044 128.1C111.094 130.842 113.747 140.582 114.37 142.692C114.995 144.802 115.956 146.747 116.55 147.99C117.142 149.237 118.236 153.96 118.236 153.96Z" fill="#FBAEA8"/>
<path d="M116.816 153.685C116.758 153.369 116.512 150.951 116.065 149.342C115.62 147.735 113.476 140.993 111.99 137.088C110.506 133.181 107.585 126.887 107.002 125.013C106.417 123.139 105.128 120.476 105.128 120.476C105.128 120.476 103.712 120.95 102.27 121.682C101.557 122.044 100.805 122.176 100.225 122.217C99.8009 121.324 99.3143 120.314 98.8097 119.278C98.6493 118.95 98.4889 118.62 98.3267 118.288L103.339 114.682L106.098 114.385C106.363 115.222 106.601 116.055 106.815 116.862C107.659 120.034 108.136 122.788 108.368 123.768C108.673 125.058 108.995 125.36 110.044 128.1C111.093 130.842 113.746 140.582 114.37 142.692C114.994 144.802 115.955 146.747 116.549 147.991C117.142 149.236 118.236 153.959 118.236 153.959L115.263 154.971C116.028 154.45 116.846 153.854 116.816 153.685Z" fill="#E26889"/>
<path d="M91.0692 86.6223C91.0692 86.6223 91.0917 87.3798 91.1284 88.6473C91.2198 91.8557 91.4089 98.3298 91.5657 104.054C91.7109 109.379 91.8319 114.056 91.8274 114.865C91.8238 115.861 91.6572 118.051 91.4932 120.015C91.4743 120.247 91.4546 120.476 91.4358 120.701C91.2879 122.421 91.1535 123.816 91.1535 123.816C91.1535 123.816 92.9091 127.639 93.1063 133.975C93.3035 140.31 92.9306 148.477 92.9306 148.477L92.7622 152.529L89.7689 159.026L87.5633 157.899L87.0355 157.627C87.0355 157.627 88.4084 152.213 88.5124 150.114C88.6172 148.014 87.4629 140.17 87.4629 140.17L84.7896 124.917C84.7896 124.917 84.7053 124.422 84.5646 123.579C84.4374 122.825 84.2653 121.793 84.0655 120.591C83.8683 119.405 83.646 118.053 83.4148 116.637L83.4094 116.609C83.2436 115.582 83.0716 114.522 82.9004 113.469C82.895 113.439 82.8896 113.407 82.8878 113.376C82.2524 109.42 81.6601 105.554 81.4727 103.837C81.3455 102.676 81.2747 101.001 81.2361 99.1828C81.1358 94.4532 81.2639 88.7741 81.2639 88.7741L91.0692 86.6223Z" fill="#FBAEA8"/>
<path d="M91.4356 120.702C91.2877 122.422 91.1533 123.817 91.1533 123.817C91.1533 123.817 92.909 127.64 93.1061 133.976C93.3033 140.312 92.9305 148.478 92.9305 148.478L92.762 152.53L89.7687 159.027L87.5631 157.9C88.5024 157.327 89.68 156.482 90.025 155.676C90.6255 154.273 92.7745 143.842 92.2547 136.399C91.7341 128.957 90.0483 124.281 90.0483 124.281L89.9739 122.902L84.5627 123.58C84.4354 122.826 84.2633 121.794 84.0635 120.592L91.4912 120.017C91.4742 120.248 91.4544 120.478 91.4356 120.702Z" fill="#E26889"/>
<path fill-rule="evenodd" clip-rule="evenodd" d="M106.97 116.1C106.282 117.322 105.328 118.196 104.216 118.821C102.994 119.509 101.655 120.039 100.233 120.384C99.498 120.562 98.7398 120.691 97.9646 120.767C96.9967 120.805 96.0377 120.737 95.1926 120.7C94.4093 120.666 93.7264 120.657 93.2246 120.785C92.7863 120.948 92.3454 121.105 91.9009 121.245C90.6471 121.64 89.3637 121.926 88.0436 122.002C86.6984 122.081 85.3685 121.895 84.0699 121.531C83.3619 118.206 82.7498 114.908 82.2174 111.514C82.0059 110.317 81.8536 109.402 81.7693 108.798C81.7066 108.358 81.6484 107.831 81.5946 107.229L81.5776 107.151L81.5829 107.133C80.8454 101.632 80.874 96.9357 80.6249 93.712C80.4932 92.0122 80.3686 90.257 80.2718 88.8591C80.2297 88.3393 80.4492 87.5399 80.7387 86.6279C80.8615 86.2384 80.9995 85.8284 81.1339 85.4086C81.4064 84.5627 81.297 83.2729 81.2639 82.9987L81.159 82.4422L81.6833 82.4601C82.0929 82.4744 82.5195 82.4324 83.0285 82.3252C83.9113 82.1376 84.958 81.7723 86.4072 81.2685C87.7398 80.8041 89.4659 80.2029 91.7109 79.5241L91.7172 79.5232C92.2809 79.3526 92.8759 79.1766 93.5069 78.998L93.6592 78.9551L93.8035 79.0301L93.8152 79.0381C96.4294 81.0256 98.6215 83.4712 100.185 87.1343C101.723 90.7376 102.971 95.1519 103.221 100.836C104.635 105.071 105.5 109.167 106.334 113.128C106.541 114.105 106.751 115.101 106.97 116.1Z" fill="#193967"/>
<path d="M106.97 116.1C106.282 117.322 105.328 118.196 104.216 118.821C102.994 119.509 101.655 120.039 100.233 120.384C101.946 119.796 103.647 119.001 104.39 118.236C106.014 116.562 102.626 110.875 101.885 108.718C101.143 106.56 99.6369 96.7622 98.0909 92.515C96.545 88.2695 94.7257 87.9997 93.6314 88.0087C92.5389 88.0167 91.0683 86.6215 90.2259 86.0427C89.551 85.5791 83.2221 86.3142 80.7378 86.6268C80.8606 86.2374 80.9986 85.8274 81.133 85.4076C81.4055 84.5617 81.2961 83.2719 81.263 82.9977L81.1581 82.4412L81.6824 82.4591C82.0919 82.4733 82.5185 82.4314 83.0276 82.3242C83.9103 82.1366 84.9571 81.7713 86.4063 81.2675C87.7389 80.803 89.465 80.2019 91.71 79.523L91.7162 79.5221C92.4888 79.3435 93.2012 79.1782 93.8142 79.0371C96.4285 81.0245 98.6206 83.4702 100.184 87.1333C101.722 90.7366 102.97 95.1509 103.22 100.835C104.634 105.07 105.499 109.166 106.333 113.127C106.541 114.105 106.751 115.101 106.97 116.1Z" fill="#121936"/>
<path d="M80.4162 57.3105C80.4162 57.3105 79.7485 57.9116 78.7286 58.8352C76.144 61.1701 71.3009 65.5674 69.3705 67.4459C68.7728 68.0265 68.2198 68.4784 67.7045 68.8197C65.896 70.0193 65.1969 70.1345 63.8598 69.5208C63.1052 68.9778 61.8765 66.3919 64.3195 63.3915C64.6153 63.0298 65.006 62.5725 65.4649 62.0517C67.7529 59.448 71.7365 55.2123 74.0066 52.8149C75.0381 51.7242 75.7174 51.0141 75.7174 51.0141C76.2829 50.4192 79.0647 49.3751 80.5865 51.7546C82.1073 54.1351 80.4162 57.3105 80.4162 57.3105Z" fill="url(#paint8_linear_794_5636)"/>
<path d="M78.7286 58.8351C76.144 61.17 71.3009 65.5673 69.3705 67.4458C68.7728 68.0264 68.2198 68.4783 67.7045 68.8196C65.896 70.0192 65.1969 70.1344 63.8598 69.5207C63.1052 68.9777 61.8765 66.3918 64.3195 63.3914C64.6153 63.0297 65.006 62.5724 65.4649 62.0516C66.6712 62.9823 69.0694 64.7197 69.7801 64.3963C70.7444 63.9569 75.9208 55.2622 75.9208 55.2622L78.7286 58.8351Z" fill="#193967"/>
<path d="M68.6878 66.4989C68.6931 66.9464 68.6071 67.4001 68.3714 67.803C67.4931 69.2982 65.7258 69.1553 65.7258 69.1553C65.7258 69.1553 64.0706 69.0812 63.1457 67.2903C62.2217 65.4994 58.8403 52.1528 58.8403 52.1528C58.8403 52.1528 60.4867 52.0974 61.5191 52.8308C62.5497 53.5641 63.1663 55.4015 63.1663 55.4015L63.5418 56.0821L66.9169 62.1935L68.0085 64.08C68.0076 64.08 68.6788 65.2689 68.6878 66.4989Z" fill="#FBAEA8"/>
<path d="M68.6878 66.4989C68.6931 66.9464 68.6071 67.4001 68.3714 67.803C67.4931 69.2982 65.7258 69.1553 65.7258 69.1553C65.7258 69.1553 64.0706 69.0812 63.1457 67.2903C62.2217 65.4994 58.8403 52.1528 58.8403 52.1528C58.8403 52.1528 60.4867 52.0974 61.5191 52.8308C62.5497 53.5641 63.1663 55.4015 63.1663 55.4015L63.5418 56.0821C63.1923 56.5609 62.7164 57.1495 62.4009 57.5881C61.805 58.4143 63.5776 64.8634 64.5061 66.6686C65.198 68.0174 67.546 68.305 68.6878 66.4989Z" fill="#E26889"/>
<path d="M62.8542 52.0974C62.8542 52.0974 61.8568 53.3167 61.4508 53.4506C61.0448 53.5846 59.5006 53.5784 59.5006 53.5784C59.5006 53.5784 56.5387 47.8564 56.795 46.4978C57.0513 45.1401 57.2082 46.7541 57.5586 47.3178C57.9081 47.8823 57.9699 48.4307 58.1151 48.3923C58.2603 48.353 57.7056 47.1856 57.546 46.4442C57.3874 45.7028 57.3587 45.1705 57.4941 44.9418C57.6294 44.714 57.6903 44.8936 57.8857 45.2464C58.0811 45.6001 58.5534 47.3088 58.7219 47.567C58.8903 47.8251 58.8294 47.199 58.6824 46.5826C58.5354 45.9672 57.8938 44.3255 58.0389 44.1817C58.185 44.0379 58.4915 43.6886 58.7667 44.4202C59.0409 45.1517 59.5437 46.8158 59.6557 46.9775C59.7677 47.1391 59.7346 46.6077 59.5473 45.8341C59.3599 45.0606 58.9047 43.5635 59.0893 43.5135C59.2739 43.4635 59.6656 43.3617 59.8573 43.9182C60.0491 44.4737 60.6299 46.7497 60.7786 47.1472C60.9283 47.5447 61.6291 49.3436 61.7295 49.3963C61.8299 49.4481 62.7108 49.3552 62.7834 49.3123C62.856 49.2695 63.1849 48.6639 63.4645 48.3512C63.7442 48.0386 64.1098 48.1708 64.1295 48.4102C64.1492 48.6505 64.2093 50.2904 62.8542 52.0974Z" fill="#E26889"/>
<path d="M106.953 73.8163C106.471 75.5232 101.582 84.334 99.9634 87.2271C99.6399 87.8068 99.4463 88.1498 99.4463 88.1498C99.4463 88.1498 99.2079 87.8944 98.9167 87.4924C98.5367 86.9654 98.0626 86.1821 97.9201 85.3889C97.852 85.0146 97.8627 84.61 97.9165 84.217C98.0581 83.146 98.5089 82.1715 98.5089 82.1715L100.514 74.1905L100.713 73.3259L101.034 71.9298L106.343 70.3005C106.343 70.3014 107.529 71.7654 106.953 73.8163Z" fill="#FBAEA8"/>
<path d="M99.9624 87.2272C99.9535 87.5836 99.8773 87.9489 99.6631 88.2231C99.0626 88.9958 97.695 88.3553 97.2523 88.1526C96.8078 87.9489 94.9679 86.2759 94.8854 86.2723C94.8039 86.2679 94.2205 86.4912 93.8055 86.6671C93.3906 86.8413 92.7032 86.9726 92.5517 86.8824C92.5275 86.8681 92.5078 86.8476 92.4917 86.8226C92.4084 86.693 92.4424 86.4429 92.5715 86.3179C92.7229 86.1687 94.0932 85.572 94.1945 85.5461C94.2949 85.5193 94.1703 85.4541 94.0027 85.4729C93.8369 85.4934 92.42 85.9999 92.2309 86.0767C92.0409 86.1535 92.0454 86.1089 92.0194 85.974C91.9925 85.8373 92.0642 85.681 92.1601 85.5979C92.2542 85.5167 92.7874 85.1871 92.9685 85.0772C93.1495 84.9655 93.1029 84.9414 93.0787 84.945C93.0545 84.9495 92.9201 84.9789 92.7274 85.0513C92.5329 85.1236 92.006 85.3076 91.9343 85.3103C91.8626 85.313 91.8903 85.0298 91.9271 84.9182C91.962 84.8057 92.2201 84.6172 92.2201 84.6172C92.2201 84.6172 91.7344 84.8182 92.0723 84.2545C92.4101 83.6909 93.0706 83.4247 93.7123 83.2112C94.3549 82.996 95.9636 83.3926 95.9636 83.3926C95.9636 83.3926 96.5264 82.9781 96.8221 83.1684C96.987 83.2747 97.497 83.7847 97.9173 84.2161C98.2525 84.56 98.5303 84.8539 98.5303 84.8539L99.7796 85.9668C99.7796 85.9668 99.7903 86.0008 99.8092 86.0633C99.862 86.2643 99.975 86.7377 99.9624 87.2272Z" fill="#FBAEA8"/>
<path d="M106.952 73.8163C106.47 75.5232 101.581 84.334 99.9629 87.2271C99.9539 87.5835 99.8778 87.9489 99.6636 88.2231C99.0631 88.9957 97.6955 88.3553 97.2528 88.1525C96.8083 87.9489 94.9684 86.2759 94.8859 86.2723C94.8044 86.2678 94.2209 86.4911 93.806 86.6671C93.3911 86.8413 92.7037 86.9726 92.5522 86.8824C92.528 86.8681 92.5083 86.8475 92.4922 86.8225C93.1688 86.7064 94.3876 85.9284 94.6879 85.8775C95.0473 85.8158 97.5736 87.8381 98.6034 87.6202C98.7172 87.596 98.8202 87.5532 98.9161 87.4924C99.2782 87.2664 99.5309 86.7841 99.8079 86.065C100.119 85.2522 100.463 84.1348 101.03 82.7405C102.228 79.7919 104.442 75.073 102.644 74.4156C101.878 74.1351 101.218 73.7162 100.713 73.3259L101.035 71.9298L106.343 70.3005C106.343 70.3014 107.529 71.7654 106.952 73.8163Z" fill="#E26889"/>
<path d="M77.9507 53.5374L81.056 58.4358L85.943 50.0386L84.7528 43.1572L80.0765 46.748L80.3794 48.781L80.6187 50.3861L77.9507 53.5374Z" fill="#FBAEA8"/>
<path d="M96.7223 58.9459C96.6578 59.6757 96.2823 61.1334 95.7992 62.802C94.7471 66.4276 93.1823 71.0536 93.1841 71.4073C93.1868 71.7244 94.1377 74.9534 94.8681 77.3794C94.8699 77.3874 94.8726 77.3946 94.8735 77.3999V77.4017C95.3224 78.8961 95.6854 80.0814 95.6854 80.0814C95.6854 80.0814 92.054 82.3278 86.9493 82.7325C81.8436 83.1353 78.965 82.2564 78.965 82.2564L77.1117 71.5404C77.1117 71.5404 73.7895 63.4924 73.6272 62.3116C73.4659 61.1325 75.9197 50.8837 75.9197 50.8837L78.1154 49.8609L80.4903 49.5233L81.9278 51.6795L85.725 48.7792L86.9322 48.606L89.0293 48.6301C89.0293 48.6301 94.316 51.7742 94.8026 52.337C95.2875 52.8979 96.924 56.6253 96.7223 58.9459Z" fill="url(#paint9_linear_794_5636)"/>
<path d="M94.8739 77.3998C95.3229 78.8941 95.6859 80.0794 95.6859 80.0794C95.6859 80.0794 92.0545 82.3259 86.9497 82.7305C81.8441 83.1334 78.9655 82.2544 78.9655 82.2544L78.8597 81.6453C81.3341 81.5917 87.8907 81.3657 89.1481 80.4439C90.7039 79.3041 91.2452 73.1445 88.7367 72.161C86.2301 71.1758 79.6358 70.7274 78.6634 69.8556C77.692 68.9865 84.3131 68.6426 86.7956 66.2086C89.2762 63.7754 90.2907 56.3652 90.2907 56.3652L95.8006 62.8009C94.7484 66.4265 93.1837 71.0525 93.1855 71.4062C93.1882 71.7233 94.139 74.9523 94.8694 77.3783C94.8712 77.3864 94.8739 77.3935 94.8748 77.3989L94.8739 77.3998Z" fill="#193967"/>
<path d="M80.3792 48.781C80.7403 49.0973 81.0092 49.3152 81.0755 49.342C81.3103 49.434 83.6431 48.4238 84.2884 47.6502C84.5653 47.3171 84.9283 46.6721 85.2527 46.0442L84.7535 43.1582L80.0771 46.749L80.3792 48.781Z" fill="#E26889"/>
<path d="M88.0257 42.231C87.7604 42.8053 86.685 43.6271 85.6221 43.2529C85.6221 43.2529 84.5162 45.7208 83.8709 46.4926C83.2248 47.267 80.892 48.2763 80.6563 48.1843C80.6016 48.1629 80.4089 48.0093 80.1391 47.7788C80.1374 47.7779 80.1356 47.7744 80.1329 47.7735C79.2421 47.0098 77.533 45.4055 77.2364 44.8741C76.8465 44.1782 75.9951 40.3785 75.8257 38.9779C75.6779 37.7524 76.592 34.8333 77.8852 33.949C77.9703 33.8901 78.0555 33.8409 78.1442 33.8016C78.2509 33.7534 78.3584 33.7204 78.4686 33.7034C80.0576 33.4569 82.1655 35.7962 82.7847 36.6966C83.3619 37.5344 84.8809 40.533 85.0844 40.9385C85.1014 40.968 85.1086 40.9832 85.1086 40.9832C85.1086 40.9832 85.7619 39.4156 86.935 39.2923C87.3993 39.2432 87.7102 39.6058 87.8975 40.0962C88.1825 40.842 88.1879 41.8835 88.0257 42.231Z" fill="#FBAEA8"/>
<path d="M85.7254 48.7773L84.4887 54.5976L81.9282 51.6785L79.5596 54.0277L80.4898 49.5223L81.9211 51.6357L85.7254 48.7773Z" fill="#2F295A"/>
<path d="M106.632 73.2724C106.412 73.5493 106.095 73.7475 105.679 73.8619C103.855 74.3648 102.108 74.0977 99.8734 71.0804C97.64 68.0631 90.6093 59.305 90.6093 59.305C90.6093 59.305 89.455 55.8982 91.3415 53.7938C93.2262 51.6903 95.8037 53.1677 96.2653 53.8447C96.2653 53.8447 103.587 64.5375 105.512 67.8907C107.001 70.481 107.377 72.3318 106.632 73.2724Z" fill="url(#paint10_linear_794_5636)"/>
<path d="M76.5992 39.0055C76.7434 41.0278 76.929 43.761 77.6235 44.9285C78.0913 45.7154 79.3595 47.0124 80.1329 47.7734C79.2421 47.0097 77.533 45.4055 77.2364 44.874C76.8465 44.1782 75.9951 40.3784 75.8257 38.9778C75.6779 37.7523 76.592 34.8333 77.8852 33.949C77.5877 34.6162 76.4728 37.2521 76.5992 39.0055Z" fill="#E26889"/>
<path d="M85.0837 40.9385C84.762 40.3418 81.3197 34.0893 78.1436 33.8016C78.2502 33.7534 78.3577 33.7204 78.468 33.7034C80.0569 33.4569 82.1648 35.7962 82.7841 36.6966C83.3612 37.5344 84.8803 40.533 85.0837 40.9385Z" fill="#E26889"/>
<path d="M88.0257 42.231C87.7604 42.8053 86.685 43.6271 85.6221 43.2528C86.2646 43.2913 87.2173 42.6937 87.6448 42.2372C87.9352 41.9291 87.9307 40.7965 87.8975 40.0962C88.1825 40.842 88.1879 41.8835 88.0257 42.231Z" fill="#E26889"/>
<path d="M106.632 73.2722C106.412 73.5491 106.095 73.7474 105.679 73.8618C103.855 74.3646 102.108 74.0976 99.8734 71.0803C97.64 68.063 90.6093 59.3049 90.6093 59.3049C90.6093 59.3049 89.455 55.8981 91.3415 53.7937C91.3415 53.7937 92.0442 57.8954 93.608 60.4661C95.171 63.035 102.38 71.7841 103.423 72.7506C104.155 73.4294 105.746 73.3687 106.632 73.2722Z" fill="#193967"/>
<path d="M91.6463 111.669C92.6375 115.517 94.2032 119.307 95.1926 120.699C94.4093 120.665 93.7264 120.656 93.2245 120.784C92.7863 120.947 92.3454 121.104 91.9008 121.244C92.081 119.078 90.3737 114.172 90.1246 111.373C89.827 108.027 90.4768 107.122 91.6463 111.669Z" fill="#121936"/>
</g>
<path d="M68.828 45.9127C68.69 46.6988 68.4435 47.383 68.1648 47.8394C68.1182 47.9153 68.0707 47.985 68.0223 48.0475L67.0876 48.1726L66.7389 48.2199L46.1577 50.9737L49.2424 33.4612L67.7059 43.0633L67.9631 43.1982L68.7993 43.6332C68.8235 43.7082 68.8441 43.7904 68.862 43.878C68.8961 44.0432 68.9185 44.2281 68.9292 44.4291C68.9543 44.8641 68.923 45.3759 68.828 45.9127Z" fill="#03070E"/>
<path d="M68.9304 44.4291L68.8766 44.647L56.0251 39.8049L63.1517 41.7146L49.4604 34.7081L49.1064 34.2436L49.2445 33.4612L67.708 43.0633L67.9652 43.1982L68.8013 43.6332C68.8255 43.7082 68.8461 43.7904 68.8641 43.878C68.8963 44.0432 68.9196 44.2281 68.9304 44.4291Z" fill="#ADBFDA"/>
<path d="M49.2437 33.4613C50.9715 33.7632 51.6813 37.9292 50.829 42.7642C49.9777 47.6001 47.8859 51.2749 46.1589 50.9729C44.4311 50.671 43.7213 46.505 44.5736 41.67C45.425 36.8341 47.5167 33.1585 49.2437 33.4613Z" fill="url(#paint11_linear_794_5636)"/>
<path d="M49.9715 42.6162C50.5904 39.1024 50.0746 36.0759 48.8193 35.8563C47.564 35.6366 46.0447 38.3071 45.4258 41.8209C44.8069 45.3346 45.3228 48.3612 46.578 48.5808C47.8333 48.8004 49.3526 46.13 49.9715 42.6162Z" fill="#193967"/>
<path d="M58.022 47.3956C58.022 47.3956 59.6441 49.6135 59.4084 51.6322C59.1727 53.6518 57.9655 56.0742 58.5758 56.3609C59.1861 56.6477 60.9938 57.3828 61.5422 56.1019C62.0907 54.821 62.9322 48.1719 61.769 46.8454C60.6057 45.519 58.022 47.3956 58.022 47.3956Z" fill="#0A1E3C"/>
<path d="M68.8284 45.9138C68.6904 46.699 68.4439 47.3832 68.1661 47.8396C68.1195 47.9156 68.072 47.9861 68.0227 48.0477L67.088 48.1737L66.7402 48.2201C67.4545 46.7079 67.6642 44.6321 67.7081 43.0645L67.9644 43.1984L68.8006 43.6343C68.8248 43.7094 68.8463 43.7915 68.8642 43.8791C68.97 44.4016 68.9664 45.1287 68.8284 45.9138Z" fill="url(#paint12_linear_794_5636)"/>
<path d="M17.855 52.5137C24.7597 52.5137 30.357 46.935 30.357 40.0532C30.357 33.1715 24.7597 27.5928 17.855 27.5928C10.9504 27.5928 5.35303 33.1715 5.35303 40.0532C5.35303 46.935 10.9504 52.5137 17.855 52.5137Z" fill="url(#paint13_linear_794_5636)"/>
<path d="M17.8555 51.3525C24.1167 51.3525 29.1924 46.2936 29.1924 40.0532C29.1924 33.8128 24.1167 28.7539 17.8555 28.7539C11.5943 28.7539 6.51855 33.8128 6.51855 40.0532C6.51855 46.2936 11.5943 51.3525 17.8555 51.3525Z" fill="white"/>
<mask id="mask1_794_5636" style="mask-type:luminance" maskUnits="userSpaceOnUse" x="6" y="28" width="24" height="24">
<path d="M17.8555 51.3525C24.1167 51.3525 29.1924 46.2936 29.1924 40.0532C29.1924 33.8128 24.1167 28.7539 17.8555 28.7539C11.5943 28.7539 6.51855 33.8128 6.51855 40.0532C6.51855 46.2936 11.5943 51.3525 17.8555 51.3525Z" fill="white"/>
</mask>
<g mask="url(#mask1_794_5636)">
<path d="M12.8975 44.832C13.0713 46.3309 13.5069 47.8744 13.1152 49.375C13.1152 49.375 13.4916 49.0856 13.92 48.4416C14.179 48.0521 14.4568 47.5323 14.6818 46.8677C15.2787 45.1063 14.7696 42.3123 14.7257 41.1261C14.6818 39.939 16.2053 37.5415 16.2053 37.5415L16.5262 34.7368L16.5539 34.4965C16.5539 34.4965 15.2383 33.1907 14.0894 33.7239C12.9414 34.2572 11.7665 36.4831 11.7225 38.0918C11.6786 39.7031 12.7227 43.3332 12.8975 44.832Z" fill="#53285A"/>
</g>
<mask id="mask2_794_5636" style="mask-type:luminance" maskUnits="userSpaceOnUse" x="6" y="28" width="24" height="24">
<path d="M17.8555 51.3525C24.1167 51.3525 29.1924 46.2936 29.1924 40.0532C29.1924 33.8128 24.1167 28.7539 17.8555 28.7539C11.5943 28.7539 6.51855 33.8128 6.51855 40.0532C6.51855 46.2936 11.5943 51.3525 17.8555 51.3525Z" fill="white"/>
</mask>
<g mask="url(#mask2_794_5636)">
<path d="M13.9196 48.4416C14.1786 48.0521 14.4565 47.5323 14.6814 46.8677C15.2783 45.1063 14.7692 42.3123 14.7253 41.1261C14.6814 39.939 16.205 37.5416 16.205 37.5416L16.5258 34.7368C16.256 34.6841 15.6233 34.6591 15.1842 35.4425C14.6124 36.4608 13.6651 39.3164 13.8022 40.8063C13.9394 42.2962 14.288 47.4367 13.5405 48.6792C13.2556 49.1508 13.5002 48.9203 13.9196 48.4416Z" fill="#2F295A"/>
</g>
<mask id="mask3_794_5636" style="mask-type:luminance" maskUnits="userSpaceOnUse" x="6" y="28" width="24" height="24">
<path d="M17.8555 51.3525C24.1167 51.3525 29.1924 46.2936 29.1924 40.0532C29.1924 33.8128 24.1167 28.7539 17.8555 28.7539C11.5943 28.7539 6.51855 33.8128 6.51855 40.0532C6.51855 46.2936 11.5943 51.3525 17.8555 51.3525Z" fill="white"/>
</mask>
<g mask="url(#mask3_794_5636)">
<path d="M15.1173 37.5423C15.1388 37.6656 15.1612 37.7879 15.1837 37.9085C15.4355 39.2394 15.7868 40.3845 16.9348 41.1259C18.1868 41.9343 18.9325 42.0245 19.8493 42.5667C20.4757 42.2639 21.2895 41.9012 21.9464 41.4019C22.4205 41.042 22.8121 40.6114 22.994 40.0799C23.3606 39.0143 23.6034 38.0916 23.4726 36.8608C23.3427 35.6299 22.5513 34.6929 21.906 34.4964C21.578 34.3964 20.862 34.5884 20.5886 34.115C20.3162 33.6416 17.2055 33.5469 16.4652 34.115C15.7267 34.684 14.8556 36.0578 15.1173 37.5423Z" fill="#53285A"/>
</g>
<mask id="mask4_794_5636" style="mask-type:luminance" maskUnits="userSpaceOnUse" x="6" y="28" width="24" height="24">
<path d="M17.8555 51.3525C24.1167 51.3525 29.1924 46.2936 29.1924 40.0532C29.1924 33.8128 24.1167 28.7539 17.8555 28.7539C11.5943 28.7539 6.51855 33.8128 6.51855 40.0532C6.51855 46.2936 11.5943 51.3525 17.8555 51.3525Z" fill="white"/>
</mask>
<g mask="url(#mask4_794_5636)">
<path d="M15.1836 37.9085C15.4354 39.2394 15.7867 40.3845 16.9348 41.1259C18.1868 41.9342 18.9324 42.0245 19.8492 42.5666C20.4757 42.2638 21.2894 41.9012 21.9463 41.4019C22.3765 40.8472 22.8228 40.0031 22.9832 38.7883C23.3283 36.1801 21.8164 34.7465 21.1415 34.6223C20.4667 34.4981 18.996 35.3431 18.573 36.1872C18.1966 36.9375 16.2868 38.0032 15.1836 37.9085Z" fill="#2F295A"/>
</g>
<mask id="mask5_794_5636" style="mask-type:luminance" maskUnits="userSpaceOnUse" x="6" y="28" width="24" height="24">
<path d="M17.8555 51.3525C24.1167 51.3525 29.1924 46.2936 29.1924 40.0532C29.1924 33.8128 24.1167 28.7539 17.8555 28.7539C11.5943 28.7539 6.51855 33.8128 6.51855 40.0532C6.51855 46.2936 11.5943 51.3525 17.8555 51.3525Z" fill="white"/>
</mask>
<g mask="url(#mask5_794_5636)">
<path d="M21.7967 46.1378C21.7967 46.1378 22.148 46.3593 22.6849 46.6996C24.0444 47.5598 26.5941 49.1819 27.6202 49.8858C27.9375 50.1037 28.2252 50.2654 28.4869 50.3806C29.4037 50.7852 29.7317 50.7826 30.2909 50.3994C30.5911 50.093 30.9469 48.821 29.5991 47.6465C29.4359 47.5053 29.2226 47.3276 28.9726 47.1266C27.7269 46.1208 25.5805 44.505 24.359 43.5912C23.8033 43.1759 23.4386 42.9061 23.4386 42.9061C23.1348 42.6792 21.7869 42.422 21.2814 43.6234C20.7778 44.8248 21.7967 46.1378 21.7967 46.1378Z" fill="url(#paint14_linear_794_5636)"/>
</g>
<mask id="mask6_794_5636" style="mask-type:luminance" maskUnits="userSpaceOnUse" x="6" y="28" width="24" height="24">
<path d="M17.8555 51.3525C24.1167 51.3525 29.1924 46.2936 29.1924 40.0532C29.1924 33.8128 24.1167 28.7539 17.8555 28.7539C11.5943 28.7539 6.51855 33.8128 6.51855 40.0532C6.51855 46.2936 11.5943 51.3525 17.8555 51.3525Z" fill="white"/>
</mask>
<g mask="url(#mask6_794_5636)">
<path d="M22.6846 46.6997C24.0441 47.5599 26.5938 49.182 27.6199 49.8859C27.9372 50.1038 28.2249 50.2655 28.4866 50.3807C29.4034 50.7853 29.7314 50.7827 30.2906 50.3995C30.5908 50.0931 30.9466 48.8211 29.5987 47.6465C29.4356 47.5054 29.2223 47.3277 28.9723 47.1267C28.4973 47.6448 27.542 48.6228 27.1934 48.5308C26.7202 48.4067 23.6802 44.8552 23.6802 44.8552L22.6846 46.6997Z" fill="#7C58EF"/>
</g>
<mask id="mask7_794_5636" style="mask-type:luminance" maskUnits="userSpaceOnUse" x="6" y="28" width="24" height="24">
<path d="M17.8555 51.3525C24.1167 51.3525 29.1924 46.2936 29.1924 40.0532C29.1924 33.8128 24.1167 28.7539 17.8555 28.7539C11.5943 28.7539 6.51855 33.8128 6.51855 40.0532C6.51855 46.2936 11.5943 51.3525 17.8555 51.3525Z" fill="white"/>
</mask>
<g mask="url(#mask7_794_5636)">
<path d="M22.6223 44.2281L21.5943 46.6997L18.7095 43.2608V40.0371L21.1203 41.3046L21.1427 42.2532L21.1597 43.0026L22.6223 44.2281Z" fill="#FBAEA8"/>
</g>
<mask id="mask8_794_5636" style="mask-type:luminance" maskUnits="userSpaceOnUse" x="6" y="28" width="24" height="24">
<path d="M17.8555 51.3525C24.1167 51.3525 29.1924 46.2936 29.1924 40.0532C29.1924 33.8128 24.1167 28.7539 17.8555 28.7539C11.5943 28.7539 6.51855 33.8128 6.51855 40.0532C6.51855 46.2936 11.5943 51.3525 17.8555 51.3525Z" fill="white"/>
</mask>
<g mask="url(#mask8_794_5636)">
<path d="M14.5058 48.1565C14.5927 48.4835 14.8777 49.1176 15.229 49.8385C15.9926 51.4061 17.0698 53.3881 17.0967 53.5498C17.1209 53.6945 16.9417 55.238 16.801 56.3992C16.801 56.4028 16.8001 56.4064 16.8001 56.409V56.4099C16.7132 57.1254 16.6415 57.6926 16.6415 57.6926C16.6415 57.6926 18.4706 58.4313 20.8249 58.216C23.1792 57.9999 24.4205 57.3746 24.4205 57.3746V52.3538C24.4205 52.3538 25.2987 48.4316 25.279 47.8823C25.2593 47.333 23.3361 42.8615 23.3361 42.8615L22.257 42.5676L21.1502 42.5998L20.6663 43.6931L18.7099 42.6703L18.1471 42.6864L17.1944 42.8615C17.1944 42.8615 15.0364 44.7051 14.8589 44.9999C14.6824 45.2929 14.2316 47.1168 14.5058 48.1565Z" fill="url(#paint15_linear_794_5636)"/>
</g>
<mask id="mask9_794_5636" style="mask-type:luminance" maskUnits="userSpaceOnUse" x="6" y="28" width="24" height="24">
<path d="M17.8555 51.3525C24.1167 51.3525 29.1924 46.2936 29.1924 40.0532C29.1924 33.8128 24.1167 28.7539 17.8555 28.7539C11.5943 28.7539 6.51855 33.8128 6.51855 40.0532C6.51855 46.2936 11.5943 51.3525 17.8555 51.3525Z" fill="white"/>
</mask>
<g mask="url(#mask9_794_5636)">
<path d="M16.7996 56.4089C16.7126 57.1244 16.6409 57.6916 16.6409 57.6916C16.6409 57.6916 18.4701 58.4303 20.8244 58.215C23.1787 57.9988 24.4199 57.3736 24.4199 57.3736V57.0886C23.2898 57.2575 20.2885 57.6675 19.6441 57.3468C18.8465 56.9493 18.1152 54.1892 19.179 53.5461C20.2419 52.9021 23.2074 52.1822 23.5811 51.7096C23.9548 51.238 20.9149 51.5998 19.5939 50.686C18.2738 49.7722 17.2288 46.4807 17.2288 46.4807L15.2285 49.8401C15.9921 51.4077 17.0693 53.3898 17.0962 53.5515C17.1204 53.6962 16.9412 55.2397 16.8005 56.4009C16.8005 56.4026 16.7996 56.4062 16.7996 56.4089Z" fill="#7C58EF"/>
</g>
<mask id="mask10_794_5636" style="mask-type:luminance" maskUnits="userSpaceOnUse" x="6" y="28" width="24" height="24">
<path d="M17.8555 51.3525C24.1167 51.3525 29.1924 46.2936 29.1924 40.0532C29.1924 33.8128 24.1167 28.7539 17.8555 28.7539C11.5943 28.7539 6.51855 33.8128 6.51855 40.0532C6.51855 46.2936 11.5943 51.3525 17.8555 51.3525Z" fill="white"/>
</mask>
<g mask="url(#mask10_794_5636)">
<path d="M21.1427 42.2531C21.0028 42.4255 20.898 42.5452 20.8702 42.5622C20.7707 42.622 19.6299 42.3451 19.275 42.0441C19.1226 41.9146 18.9066 41.6493 18.7095 41.3885V40.0361L21.1203 41.3045L21.1427 42.2531Z" fill="#E26889"/>
</g>
<mask id="mask11_794_5636" style="mask-type:luminance" maskUnits="userSpaceOnUse" x="6" y="28" width="24" height="24">
<path d="M17.8555 51.3525C24.1167 51.3525 29.1924 46.2936 29.1924 40.0532C29.1924 33.8128 24.1167 28.7539 17.8555 28.7539C11.5943 28.7539 6.51855 33.8128 6.51855 40.0532C6.51855 46.2936 11.5943 51.3525 17.8555 51.3525Z" fill="white"/>
</mask>
<g mask="url(#mask11_794_5636)">
<path d="M17.1472 39.871C17.313 40.1113 17.8669 40.4016 18.3213 40.1479C18.3213 40.1479 19.0185 41.1841 19.3734 41.4851C19.7283 41.787 20.8691 42.0639 20.9695 42.0041C20.9928 41.9898 21.0681 41.9049 21.173 41.779C21.1739 41.7781 21.1748 41.7772 21.1748 41.7763C21.5198 41.3591 22.1713 40.4954 22.2645 40.2301C22.3873 39.8826 22.4751 38.0873 22.4429 37.437C22.4133 36.868 21.768 35.6112 21.1102 35.3102C21.0672 35.2897 21.0242 35.2745 20.9812 35.2629C20.9292 35.2495 20.8772 35.2423 20.8261 35.2432C20.0841 35.2549 19.3089 36.4848 19.0983 36.943C18.902 37.3691 18.4467 38.8528 18.3858 39.0528C18.3804 39.068 18.3786 39.0752 18.3786 39.0752C18.3786 39.0752 17.9574 38.4124 17.4143 38.449C17.1992 38.4633 17.0863 38.6527 17.0397 38.8903C16.9662 39.2511 17.0469 39.7263 17.1472 39.871Z" fill="#FBAEA8"/>
</g>
<mask id="mask12_794_5636" style="mask-type:luminance" maskUnits="userSpaceOnUse" x="6" y="28" width="24" height="24">
<path d="M17.8555 51.3525C24.1167 51.3525 29.1924 46.2936 29.1924 40.0532C29.1924 33.8128 24.1167 28.7539 17.8555 28.7539C11.5943 28.7539 6.51855 33.8128 6.51855 40.0532C6.51855 46.2936 11.5943 51.3525 17.8555 51.3525Z" fill="white"/>
</mask>
<g mask="url(#mask12_794_5636)">
<path d="M18.7104 42.6704L19.7303 45.2215L20.666 43.6932L21.9287 44.5766L21.1508 42.5999L20.666 43.6735L18.7104 42.6704Z" fill="#2F295A"/>
</g>
<mask id="mask13_794_5636" style="mask-type:luminance" maskUnits="userSpaceOnUse" x="6" y="28" width="24" height="24">
<path d="M17.8555 51.3525C24.1167 51.3525 29.1924 46.2936 29.1924 40.0532C29.1924 33.8128 24.1167 28.7539 17.8555 28.7539C11.5943 28.7539 6.51855 33.8128 6.51855 40.0532C6.51855 46.2936 11.5943 51.3525 17.8555 51.3525Z" fill="white"/>
</mask>
<g mask="url(#mask13_794_5636)">
<path d="M11.1247 55.4506C11.2466 55.5596 11.4061 55.6248 11.6041 55.6445C12.4735 55.7311 13.2478 55.4721 14.0266 53.925C14.8054 52.3779 17.3147 47.8431 17.3147 47.8431C17.3147 47.8431 17.5719 46.2022 16.5476 45.3929C15.5241 44.5828 14.4684 45.4573 14.3107 45.8011C14.3107 45.8011 11.821 51.2391 11.2089 52.9157C10.7366 54.2091 10.7115 55.0808 11.1247 55.4506Z" fill="url(#paint16_linear_794_5636)"/>
</g>
<mask id="mask14_794_5636" style="mask-type:luminance" maskUnits="userSpaceOnUse" x="6" y="28" width="24" height="24">
<path d="M17.8555 51.3525C24.1167 51.3525 29.1924 46.2936 29.1924 40.0532C29.1924 33.8128 24.1167 28.7539 17.8555 28.7539C11.5943 28.7539 6.51855 33.8128 6.51855 40.0532C6.51855 46.2936 11.5943 51.3525 17.8555 51.3525Z" fill="white"/>
</mask>
<g mask="url(#mask14_794_5636)">
<path d="M22.0931 37.5101C22.1863 38.4417 22.3171 39.6994 22.0931 40.2853C21.9425 40.6801 21.4675 41.3697 21.1754 41.7761C21.5204 41.359 22.1719 40.4952 22.2651 40.2299C22.3879 39.8825 22.4758 38.0871 22.4435 37.4368C22.4139 36.8678 21.7687 35.6111 21.1108 35.3101C21.2972 35.5905 22.0115 36.7026 22.0931 37.5101Z" fill="#E26889"/>
</g>
<mask id="mask15_794_5636" style="mask-type:luminance" maskUnits="userSpaceOnUse" x="6" y="28" width="24" height="24">
<path d="M17.8555 51.3525C24.1167 51.3525 29.1924 46.2936 29.1924 40.0532C29.1924 33.8128 24.1167 28.7539 17.8555 28.7539C11.5943 28.7539 6.51855 33.8128 6.51855 40.0532C6.51855 46.2936 11.5943 51.3525 17.8555 51.3525Z" fill="white"/>
</mask>
<g mask="url(#mask15_794_5636)">
<path d="M18.3848 39.0528C18.4842 38.7563 19.5588 35.6425 20.9811 35.2629C20.9291 35.2495 20.8771 35.2423 20.826 35.2432C20.084 35.2549 19.3087 36.4848 19.0981 36.943C18.9001 37.3691 18.4448 38.8528 18.3848 39.0528Z" fill="#E26889"/>
</g>
<mask id="mask16_794_5636" style="mask-type:luminance" maskUnits="userSpaceOnUse" x="6" y="28" width="24" height="24">
<path d="M17.8555 51.3525C24.1167 51.3525 29.1924 46.2936 29.1924 40.0532C29.1924 33.8128 24.1167 28.7539 17.8555 28.7539C11.5943 28.7539 6.51855 33.8128 6.51855 40.0532C6.51855 46.2936 11.5943 51.3525 17.8555 51.3525Z" fill="white"/>
</mask>
<g mask="url(#mask16_794_5636)">
<path d="M17.1474 39.8709C17.3132 40.1112 17.8671 40.4015 18.3215 40.1478C18.032 40.2157 17.5516 40.0183 17.3213 39.8441C17.1654 39.7262 17.0775 39.2108 17.0381 38.8901C16.9664 39.251 17.0471 39.7262 17.1474 39.8709Z" fill="#E26889"/>
</g>
<mask id="mask17_794_5636" style="mask-type:luminance" maskUnits="userSpaceOnUse" x="6" y="28" width="24" height="24">
<path d="M17.8555 51.3525C24.1167 51.3525 29.1924 46.2936 29.1924 40.0532C29.1924 33.8128 24.1167 28.7539 17.8555 28.7539C11.5943 28.7539 6.51855 33.8128 6.51855 40.0532C6.51855 46.2936 11.5943 51.3525 17.8555 51.3525Z" fill="white"/>
</mask>
<g mask="url(#mask17_794_5636)">
<path d="M11.1245 55.4505C11.2464 55.5595 11.4059 55.6247 11.604 55.6444C12.4733 55.731 13.2476 55.472 14.0264 53.9249C14.8052 52.3778 17.3146 47.8429 17.3146 47.8429C17.3146 47.8429 17.5718 46.2021 16.5474 45.3928C16.5474 45.3928 16.5501 47.3141 16.0411 48.6057C15.532 49.8965 12.9402 54.4412 12.5423 54.9628C12.2636 55.3282 11.535 55.4246 11.1245 55.4505Z" fill="#7C58EF"/>
</g>
<path d="M19.0567 91.9004C25.9613 91.9004 31.5587 86.3217 31.5587 79.44C31.5587 72.5582 25.9613 66.9795 19.0567 66.9795C12.152 66.9795 6.55469 72.5582 6.55469 79.44C6.55469 86.3217 12.152 91.9004 19.0567 91.9004Z" fill="url(#paint17_linear_794_5636)"/>
<path d="M19.0566 90.7392C25.3179 90.7392 30.3936 85.6803 30.3936 79.4399C30.3936 73.1995 25.3179 68.1406 19.0566 68.1406C12.7954 68.1406 7.71973 73.1995 7.71973 79.4399C7.71973 85.6803 12.7954 90.7392 19.0566 90.7392Z" fill="white"/>
<mask id="mask18_794_5636" style="mask-type:luminance" maskUnits="userSpaceOnUse" x="7" y="68" width="24" height="23">
<path d="M19.02 90.7392C25.2812 90.7392 30.357 85.6803 30.357 79.4399C30.357 73.1995 25.2812 68.1406 19.02 68.1406C12.7588 68.1406 7.68311 73.1995 7.68311 79.4399C7.68311 85.6803 12.7588 90.7392 19.02 90.7392Z" fill="white"/>
</mask>
<g mask="url(#mask18_794_5636)">
<path d="M23.781 82.5725C23.6645 84.8681 23.8169 88.3419 21.2107 89.3083C21.1749 89.3209 21.1399 89.3343 21.1032 89.3468C18.5051 90.2695 14.94 90.0926 14.94 90.0926C14.94 90.0926 13.9336 90.2614 12.8662 89.905C12.186 89.6773 11.4807 89.236 10.9976 88.4017C9.75549 86.2571 11.2701 83.9919 11.4529 83.3273C11.6348 82.6628 11.089 81.6659 11.2405 80.7298C11.392 79.7928 12.6879 79.0988 12.7264 78.2127C12.7649 77.3266 12.6646 75.8367 13.291 75.2329C13.9174 74.6282 14.5636 74.387 14.8065 73.4206C15.0484 72.4541 15.7762 70.0174 17.9781 69.6145C20.181 69.2117 21.3926 69.7351 22.0191 69.9165C22.6455 70.0978 23.9791 70.6819 23.7559 72.8775C23.6538 73.8842 23.3732 74.73 23.0587 75.3857C22.6868 76.1592 22.2682 76.6683 22.0388 76.864C21.9151 76.9694 21.8443 77.1962 21.8174 77.4785C21.7502 78.1654 21.9393 79.1828 22.2404 79.5829C22.6652 80.1465 23.8966 80.277 23.781 82.5725Z" fill="#53285A"/>
<path d="M22.7563 80.8951C23.4554 81.6588 22.9929 83.6775 22.9929 83.6775L21.1029 89.3468C18.5048 90.2695 14.9397 90.0926 14.9397 90.0926C14.9397 90.0926 13.9333 90.2615 12.8659 89.9051C12.2672 88.6242 12.9349 86.3858 13.3713 85.2228C13.9359 83.7213 13.2629 82.7298 13.3713 81.364C13.4789 79.9983 14.4199 79.5401 15.075 78.788C15.731 78.0359 17.3146 75.333 17.3146 75.333C17.3146 75.333 18.2924 74.6095 19.0192 73.6144C19.7469 72.6194 19.6636 70.8151 19.6636 70.8151C19.6636 70.8151 20.1744 70.5882 22.1908 71.7262C23.5047 72.4675 23.3353 74.2388 23.0575 75.3848C22.6855 76.1583 22.267 76.6675 22.0376 76.8631C21.9139 76.9685 21.8431 77.1954 21.8162 77.4776C21.4631 77.9564 21.1548 78.5075 21.2104 78.9193C21.3332 79.8277 22.0573 80.1305 22.7563 80.8951Z" fill="#2F295A"/>
<path d="M25.574 86.258C25.4216 86.927 24.9395 87.3736 24.1777 87.6371C24.0191 87.6916 23.8488 87.739 23.666 87.7783C23.4518 87.8247 23.2215 87.8604 22.9759 87.8863C22.4382 87.9435 21.8261 87.9524 21.1494 87.9203C18.6338 87.7997 14.2397 87.739 14.2397 87.739L15.3313 82.9968C15.3313 82.9968 15.4631 82.6922 15.6746 82.2349C16.0599 81.3989 16.7133 80.0519 17.3146 79.1202C17.3594 79.0515 17.4033 78.9854 17.4472 78.9219C17.8326 78.3583 18.1866 78.0001 18.4214 78.1038C19.2396 78.4664 20.7246 78.6781 20.7246 78.6781C20.7246 78.6781 20.6924 79.1381 20.6915 79.6535C20.6915 79.6928 20.6924 79.733 20.6924 79.7732C20.696 80.3073 20.7381 80.8656 20.886 81.0139C21.1037 81.23 21.6549 81.4265 22.0905 81.5498C22.2616 81.598 22.4149 81.6356 22.5233 81.6588C22.5887 81.6722 22.6936 81.6918 22.8262 81.7177C23.0987 81.7704 23.4858 81.8535 23.8766 81.9812C24.4089 82.1545 24.9484 82.41 25.2101 82.786C25.3186 82.9415 25.4082 83.1183 25.4826 83.3139C25.4924 83.338 25.4996 83.3568 25.5041 83.3702C25.5068 83.3782 25.5095 83.3863 25.5121 83.3952C25.5121 83.3961 25.513 83.3979 25.513 83.3997C25.6116 83.6775 25.6761 83.9865 25.7093 84.3179C25.7093 84.3179 25.7093 84.3188 25.7093 84.3197C25.7711 84.9199 25.7254 85.5925 25.574 86.258Z" fill="#FBAEA8"/>
<path d="M19.4691 86.6171C17.795 87.3611 16.0331 86.2991 16.008 86.2062C15.9829 86.1133 15.0491 84.9083 15.0204 84.828C14.9953 84.7592 15.5187 82.837 15.6746 82.2331C16.06 81.3971 16.7133 80.0501 17.3147 79.1185C17.3595 79.0497 17.4034 78.9836 17.4473 78.9202L18.1177 79.9492C18.1177 79.9492 17.8551 81.5311 17.9761 82.134C18.0971 82.7369 18.6016 83.2193 18.218 83.9026C17.8345 84.5859 17.1964 85.0682 17.3147 85.2897C17.4321 85.5113 19.8429 85.6971 20.765 85.3121C21.6872 84.9271 21.1432 85.873 19.4691 86.6171Z" fill="#E3648E"/>
<path d="M22.0917 81.548V81.715C22.0917 81.715 20.8012 81.2899 20.6399 81.2095C20.4786 81.1291 19.9893 80.084 19.9893 80.084L20.6937 79.6526C20.6937 79.6919 20.6946 79.7321 20.6946 79.7723C20.6982 80.3064 20.7403 80.8647 20.8881 81.013C21.105 81.2291 21.6562 81.4247 22.0917 81.548Z" fill="#E3648E"/>
<path d="M24.1777 87.6364C24.1087 87.4747 24.046 87.3336 23.9949 87.2201C23.6284 86.4198 23.088 84.6396 22.9939 83.6776C22.9858 83.5999 22.9813 83.5275 22.9795 83.4614C22.9634 82.7629 23.606 82.1895 23.8775 81.9796C23.4868 81.8518 23.0996 81.7688 22.8272 81.7161C22.8057 81.7545 22.7832 81.7831 22.7582 81.7929C22.6802 81.8241 22.1792 82.227 21.7714 82.5611C21.7239 82.9273 21.5949 83.2622 21.4694 83.6115C21.4649 83.624 21.4596 83.6356 21.4551 83.6472C21.8252 84.6753 22.5565 86.7074 22.9786 87.8865C23.2242 87.8606 23.4545 87.8257 23.6687 87.7784C23.9895 88.5546 24.2942 89.2844 24.4251 89.5809C24.7119 90.2294 24.987 91.0127 25.7425 91.0663C25.4234 90.6733 24.6375 88.71 24.1777 87.6364Z" fill="#E3648E"/>
<path d="M20.6932 79.7713C20.1161 80.2777 19.4762 80.7458 19.3417 80.7904C19.0989 80.8708 17.5843 79.8642 17.4427 79.623C17.3988 79.548 17.3549 79.3533 17.3154 79.1192C17.7519 78.444 18.1614 77.9866 18.4231 78.1027C19.2414 78.4654 20.7264 78.6762 20.7264 78.6762C20.7264 78.6762 20.6878 79.2103 20.6932 79.7713Z" fill="#E3648E"/>
<path d="M26.1789 108.471C25.5058 109.205 22.9436 111.536 17.1129 110.513C12.5307 109.711 11.6291 108.651 11.4534 108.095C11.4059 107.944 11.4113 107.829 11.4113 107.768C11.4113 107.481 12.6929 101.479 13.6859 98.9882C13.8786 98.5059 14.0363 98.0503 14.1635 97.6225C14.6941 95.8405 14.7057 94.5194 14.5507 93.5931C14.427 92.8545 13.8893 91.6942 13.4923 90.6482C13.2709 90.0667 13.0935 89.5209 13.0558 89.1029C12.9492 87.9319 14.6367 83.3773 14.6367 83.3773L15.7892 83.4202L15.8538 85.5702C15.8538 85.5702 17.8389 85.8042 19.0353 85.8042C20.2308 85.8042 20.7004 85.4854 20.7649 85.3148C20.8286 85.1441 21.3735 83.1862 21.5653 82.468C21.7579 81.749 21.982 81.3667 21.982 81.3667L22.5771 81.5034L23.2304 81.6534C23.2304 81.6534 22.2571 84.2715 22.4399 85.3567C22.6219 86.442 23.3908 87.3995 24.6079 87.1128C25.8249 86.8252 24.6401 88.8689 24.2879 89.5388C23.9366 90.2096 23.2313 92.6999 23.1354 93.6575C23.0395 94.6159 23.3236 96.4988 23.7816 97.4412C24.2404 98.3826 25.5704 101.224 26.1789 103.619C26.7874 106.013 26.8519 107.736 26.1789 108.471Z" fill="#11AFDE"/>
<path d="M26.1791 108.471C25.7686 108.919 24.6519 109.964 22.5154 110.475C21.3719 110.749 19.9361 110.871 18.1599 110.665C17.8238 110.627 17.4752 110.577 17.1131 110.513C12.5308 109.711 11.6293 108.651 11.4536 108.095C14.3636 109.657 21.1729 108.751 21.077 106.364C20.9695 103.718 21.3046 98.8389 20.6845 97.4428C20.0643 96.0467 18.1178 95.3813 17.1499 95.5483C16.3603 95.6841 14.817 97.1508 14.1628 97.6215C14.6934 95.8395 14.705 94.5184 14.55 93.5922C14.4263 92.8535 13.8886 91.6932 13.4916 90.6472C14.1825 90.883 15.1433 91.1447 15.8172 91.0688C16.9867 90.9366 20.6979 90.3962 20.5689 90.0782C20.4398 89.7602 21.8271 86.7384 21.7465 85.8533C21.6757 85.0717 22.4052 82.1669 22.5763 81.5015L23.2297 81.6515C23.2297 81.6515 22.2564 84.2696 22.4392 85.3548C22.6212 86.4401 23.3901 87.3976 24.6071 87.1109C25.8242 86.8233 24.6394 88.867 24.2872 89.5369C23.9359 90.2077 23.2306 92.698 23.1347 93.6556C23.0388 94.614 23.3229 96.4969 23.7808 97.4393C24.2397 98.3807 25.5697 101.222 26.1782 103.617C26.7876 106.012 26.8521 107.736 26.1791 108.471Z" fill="#1F73FF"/>
<path d="M17.5434 80.0956C17.3919 81.2434 17.4224 82.059 17.5434 82.4207C17.6644 82.7834 17.9521 83.2059 17.8615 83.7203C17.771 84.2331 17.0281 84.8833 16.8766 85.0941C16.7261 85.3058 16.6499 85.5774 16.6795 86.0302C16.7099 86.484 16.7099 86.9369 16.6033 87.2388C16.4975 87.5407 16.2699 87.8801 16.0736 87.9364C15.9966 87.9587 15.9258 87.9471 15.8738 87.9015C15.7904 87.8328 15.7564 87.68 15.8317 87.4496C15.9526 87.0717 16.1803 86.5733 15.9374 85.9847C15.6954 85.3951 15.3011 85.2299 15.2706 84.8673C15.2402 84.5046 15.3764 83.5685 15.1192 83.4935C14.862 83.4175 14.6944 77.0167 15.9975 75.8376L17.3588 76.4629L18.3616 76.9238L18.1492 77.7393C18.1492 77.7402 17.6957 78.9488 17.5434 80.0956Z" fill="#53285A"/>
<path d="M17.5432 80.0956C17.3917 81.2434 17.4222 82.0589 17.5432 82.4206C17.6641 82.7833 17.9518 83.2058 17.8613 83.7203C17.7708 84.233 17.0278 84.8832 16.8764 85.094C16.7258 85.3057 16.6496 85.5773 16.6792 86.0301C16.7097 86.4839 16.7097 86.9368 16.603 87.2387C16.4973 87.5406 16.2697 87.88 16.0734 87.9363C15.9963 87.9586 15.9255 87.947 15.8735 87.9014C16.3064 87.4816 16.353 85.8488 16.249 85.4362C16.1415 85.0074 16.8136 84.2839 17.0027 83.5059C17.1909 82.7288 16.6801 81.2282 16.5457 79.9482C16.4113 78.6682 17.0027 76.4307 17.0027 76.4307L17.3594 76.4628L18.3623 76.9237L18.1499 77.7392C18.149 77.7401 17.6955 78.9487 17.5432 80.0956Z" fill="#2F295A"/>
<path d="M22.5094 75.7064C22.5094 75.7073 22.5094 75.7082 22.5094 75.7082C22.3822 76.6228 22.1689 77.5125 22.0596 77.8314C21.8642 78.395 20.1049 79.767 19.7671 79.9322C19.7554 79.9376 19.7447 79.9429 19.7366 79.9447C19.4937 80.0251 17.9783 79.0184 17.8376 78.7773C17.696 78.5352 17.5544 77.0453 17.5544 77.0453C17.5544 77.0453 16.5237 76.8845 16.0192 76.5817C15.6921 76.3861 15.5514 75.8788 15.7189 75.4196C15.8086 75.1695 15.9896 74.9328 16.2818 74.7703C17.1098 74.3067 17.7363 75.4947 17.7363 75.4947C17.7363 75.4947 18.7866 75.0311 19.4534 74.1048C20.1202 73.1786 20.4634 71.7288 20.4634 71.7288C21.1508 71.6681 22.2818 72.6149 22.5453 73.6823C22.6627 74.1665 22.6161 74.9453 22.5094 75.7064Z" fill="#FBAEA8"/>
<path d="M26.1503 91.0295C25.9997 91.0635 25.8635 91.0742 25.7407 91.0652C24.9852 91.0125 24.7101 90.2292 24.4233 89.5798C24.2915 89.2833 23.9877 88.5526 23.6669 87.7773C23.174 86.5839 22.6425 85.2834 22.6425 85.2834C22.5359 84.7582 22.6954 84.1722 22.9938 83.6774C23.3093 83.154 23.7807 82.735 24.2566 82.6028C25.0273 82.3894 25.3849 83.0762 25.4835 83.3112C25.4933 83.3353 25.5005 83.354 25.505 83.3674C25.5095 83.3799 25.5122 83.388 25.5122 83.388C25.5122 83.388 25.5122 83.3898 25.5131 83.3924C25.5131 83.3933 25.514 83.3951 25.514 83.3969C25.5265 83.4568 25.5982 83.8123 25.7102 84.3151C25.7102 84.3151 25.7102 84.316 25.7102 84.3169C25.9388 85.3397 26.3331 86.9689 26.7256 87.9488C27.3323 89.4574 27.2257 90.7875 26.1503 91.0295Z" fill="#FBAEA8"/>
<path d="M25.7397 91.0653C24.9842 91.0126 24.7091 90.2293 24.4223 89.5799C24.2906 89.2834 23.9867 88.5527 23.6659 87.7774C23.173 86.584 22.6416 85.2835 22.6416 85.2835C22.5349 84.7583 22.6944 84.1723 22.9929 83.6775C23.087 84.6404 23.6274 86.4206 23.9939 87.22C24.0459 87.3335 24.1077 87.4746 24.1767 87.6363C24.6374 88.7099 25.4234 90.6732 25.7397 91.0653Z" fill="#E3648E"/>
<path d="M22.5094 75.7065C22.5228 75.1232 22.4726 74.4872 22.2728 73.9531C21.7485 72.5462 20.8613 72.3051 20.8613 72.3051C20.8613 72.3051 19.6711 75.2804 18.8242 75.6823C17.9773 76.0843 17.9854 77.3509 17.9405 77.7332C17.8957 78.1155 18.0741 78.7211 18.5616 79.1945C18.9783 79.5973 19.5949 79.8635 19.7661 79.9332C19.7545 79.9386 19.7437 79.9439 19.7356 79.9457C19.4928 80.0261 17.9773 79.0194 17.8366 78.7783C17.695 78.5362 17.5534 77.0463 17.5534 77.0463C17.5534 77.0463 16.5228 76.8855 16.0182 76.5827C15.6911 76.3871 15.5504 75.8797 15.718 75.4206C15.7762 75.7681 15.9304 76.1129 16.2763 76.3112C17.1635 76.8212 17.5534 76.7006 17.5534 76.7006L17.7353 75.4957C17.7353 75.4957 18.7857 75.0321 19.4524 74.1058C20.1192 73.1795 20.4624 71.7298 20.4624 71.7298C21.1498 71.6691 22.2808 72.6159 22.5443 73.6833C22.6626 74.1665 22.616 74.9454 22.5094 75.7065Z" fill="#E3648E"/>
</g>
<path d="M49.8511 112.788C56.7558 112.788 62.3531 107.209 62.3531 100.327C62.3531 93.4454 56.7558 87.8667 49.8511 87.8667C42.9464 87.8667 37.3491 93.4454 37.3491 100.327C37.3491 107.209 42.9464 112.788 49.8511 112.788Z" fill="url(#paint18_linear_794_5636)"/>
<path d="M49.8516 111.626C56.1128 111.626 61.1885 106.568 61.1885 100.327C61.1885 94.0867 56.1128 89.0278 49.8516 89.0278C43.5904 89.0278 38.5146 94.0867 38.5146 100.327C38.5146 106.568 43.5904 111.626 49.8516 111.626Z" fill="white"/>
<mask id="mask19_794_5636" style="mask-type:luminance" maskUnits="userSpaceOnUse" x="38" y="89" width="24" height="23">
<path d="M49.8516 111.626C56.1128 111.626 61.1885 106.568 61.1885 100.327C61.1885 94.0867 56.1128 89.0278 49.8516 89.0278C43.5904 89.0278 38.5146 94.0867 38.5146 100.327C38.5146 106.568 43.5904 111.626 49.8516 111.626Z" fill="white"/>
</mask>
<g mask="url(#mask19_794_5636)">
<path fill-rule="evenodd" clip-rule="evenodd" d="M54.0578 104.176C53.3606 104.231 51.7994 105.118 52.3013 107.163C52.8031 109.207 54.7318 113.542 55.1207 113.997C55.5097 114.453 56.517 114.345 56.9158 113.791C57.3155 113.237 56.301 110.23 56.1567 108.963C56.0124 107.696 55.5769 104.055 54.0578 104.176Z" fill="#F8526D"/>
<path fill-rule="evenodd" clip-rule="evenodd" d="M52.5517 108.029C53.3924 108.055 54.2321 108.119 55.0656 108.231C55.4079 108.278 55.7485 108.332 56.0881 108.397C55.8883 106.854 55.3891 104.07 54.0573 104.176C53.3601 104.231 51.7989 105.118 52.3008 107.163C52.3635 107.419 52.4496 107.712 52.5517 108.029Z" fill="#FCA163"/>
<path d="M53.1462 97.3893C52.9688 97.9333 52.7868 98.4058 52.6622 98.7193C52.2581 99.7376 52.4194 102.424 52.0484 104.226C51.9686 104.615 51.8082 104.915 51.577 105.142C50.8734 105.835 49.5139 105.851 47.7663 105.642C47.7538 105.64 47.7412 105.638 47.7287 105.637C47.4051 105.599 47.0691 105.552 46.7204 105.5C45.7113 105.351 44.8877 105.018 44.255 104.574C44.2532 104.574 44.2523 104.574 44.2523 104.574C44.2523 104.574 44.2514 104.573 44.2505 104.572C43.089 103.756 42.5693 102.566 42.7162 101.444C42.943 99.7099 44.3787 96.9936 44.6198 96.2987C44.8608 95.6029 45.1333 93.4904 46.8307 92.0246C48.529 90.5597 51.5662 92.0541 51.5662 92.0541C51.5662 92.0541 53.0996 92.1738 53.5853 93.6003C53.9214 94.5873 53.545 96.1701 53.1462 97.3893Z" fill="#3C5186"/>
<path d="M53.1466 97.3892C52.9691 97.9332 52.7872 98.4057 52.6626 98.7192C52.2585 99.7375 52.4198 102.424 52.0487 104.226C51.969 104.615 51.8086 104.915 51.5773 105.142L50.587 105.403C50.587 105.403 48.1064 105.649 47.7667 105.642C47.7443 105.641 47.7309 105.639 47.7291 105.637C47.6914 105.592 44.3593 104.605 44.2554 104.574C44.2536 104.573 44.2527 104.573 44.2527 104.573C44.2527 104.573 44.2518 104.573 44.2509 104.572C44.2061 104.53 43.1692 103.529 44.1281 101.222C45.1086 98.8639 46.4529 98.9702 46.9915 97.6304L47.2335 97.0141H45.9958C45.9958 97.0141 47.7228 96.2629 49.2929 95.1651C50.864 94.0656 50.9975 93.342 50.9975 93.342C50.9975 93.342 51.6992 96.3549 53.1466 97.3892Z" fill="#2C3E60"/>
<path d="M54.6113 118.553C54.6113 118.553 53.2455 118.536 52.1423 118.588C51.0391 118.641 48.5701 119.043 47.2042 119.461C45.8384 119.88 44.7872 120.054 44.6474 119.88C44.5766 119.791 44.694 118.584 44.8275 117.191C44.8437 117.019 44.8607 116.844 44.8777 116.668C44.9924 115.456 45.1027 114.195 45.1027 113.458C45.1027 112.771 44.8428 111.097 44.5327 109.339C44.0693 106.717 43.4922 103.911 43.4922 103.911L46.3421 102.929L52.5151 103.492L53.8585 104.278C53.8585 104.278 53.9033 107.86 53.9347 110.583C53.9517 112.032 53.9634 113.238 53.9634 113.528C53.9634 113.727 54.0001 114.117 54.0566 114.595C54.2009 115.824 54.4724 117.636 54.5719 118.3C54.597 118.461 54.6113 118.553 54.6113 118.553Z" fill="#FCA163"/>
<path d="M54.0561 114.594C53.633 114.488 53.2047 114.381 53.1052 114.356C52.8955 114.303 49.7955 115.927 47.1688 117.131C46.139 117.604 45.3755 117.497 44.827 117.191C44.9569 115.834 45.1021 114.302 45.1021 113.458C45.1021 112.772 44.8422 111.098 44.5312 109.339L45.0143 105.822L46.8533 111.006L53.9333 110.582C53.9503 112.032 53.9629 113.237 53.9629 113.528C53.9629 113.726 53.9996 114.116 54.0561 114.594Z" fill="#F8526D"/>
<path fill-rule="evenodd" clip-rule="evenodd" d="M59.1207 107.209L58.6207 111.45L56.0728 111.921L53.1503 111.866L51.8965 111.843L52.764 106.503L56.7037 107.367L58.3321 106.555L59.1207 107.209Z" fill="#EAE8E8"/>
<path fill-rule="evenodd" clip-rule="evenodd" d="M56.5988 108.238L53.1503 111.866L51.8965 111.843L52.764 106.503L53.2919 107.494L56.5988 108.238Z" fill="#AFAFAF"/>
<path fill-rule="evenodd" clip-rule="evenodd" d="M59.4091 106.869L58.91 111.607L56.7824 112.236L52.5532 112.13L52.7459 110.634L53.1841 107.235L56.2411 107.935L56.7295 108.046L59.4091 106.869Z" fill="#3C5186"/>
<path d="M59.4091 106.869L58.91 111.608L56.7824 112.237L52.5532 112.131L52.7459 110.635C53.047 110.54 53.3903 110.373 53.7165 110.082C54.5616 109.324 54.9855 108.397 54.9855 108.397C54.9855 108.397 55.5904 109.288 55.8727 109.577C56.155 109.867 56.2402 107.937 56.2402 107.937L56.7295 108.048L59.4091 106.869Z" fill="#2C3E60"/>
<path fill-rule="evenodd" clip-rule="evenodd" d="M58.3847 110.776C58.3847 110.778 58.3856 110.78 58.3856 110.781C58.3901 110.934 57.7403 111.543 57.5835 111.711C57.4258 111.882 56.7169 112.366 56.2374 112.504C55.7579 112.641 54.1394 112.593 53.9817 112.593C53.8365 112.593 53.1912 112.822 53.0855 112.859C53.0756 112.863 53.0711 112.864 53.0711 112.864C53.0711 112.864 52.4232 111.921 52.7772 111.529C52.7772 111.529 53.2369 111.149 53.4601 111.057C53.6823 110.965 54.3133 110.521 54.4181 110.363C54.523 110.206 54.8913 109.172 54.8779 108.963C54.8644 108.753 55.1924 109.055 55.2193 109.25C55.2462 109.447 55.2847 110.049 55.4953 110.167C55.705 110.284 56.4139 110.049 56.7294 109.892C57.0449 109.735 57.5826 109.329 57.7538 109.158C57.924 108.989 58.1346 108.766 58.1866 108.871C58.2314 108.96 58.1804 109.231 58.132 109.39C58.1239 109.418 58.1158 109.442 58.1078 109.46C58.1078 109.46 58.1956 109.452 58.2619 109.487C58.2843 109.5 58.3049 109.516 58.3184 109.539C58.3533 109.6 58.33 109.735 58.3112 109.819C58.3004 109.863 58.2915 109.893 58.2915 109.893C58.2915 109.893 58.3336 109.915 58.373 109.972C58.4017 110.012 58.4295 110.066 58.442 110.141C58.4609 110.244 58.4062 110.386 58.3569 110.49C58.3166 110.573 58.2789 110.632 58.2789 110.632C58.2789 110.632 58.3067 110.632 58.3354 110.66C58.3551 110.68 58.3766 110.715 58.3847 110.776Z" fill="#FBAEA8"/>
<path fill-rule="evenodd" clip-rule="evenodd" d="M58.263 109.488L57.1938 110.395C57.1938 110.395 57.028 110.351 57.2987 110.159C57.4949 110.02 57.9144 109.609 58.133 109.391C58.125 109.417 58.1169 109.442 58.1088 109.461C58.1088 109.46 58.1967 109.453 58.263 109.488Z" fill="#E3648E"/>
<path fill-rule="evenodd" clip-rule="evenodd" d="M58.3743 109.972C58.1512 110.162 57.6592 110.58 57.5839 110.645C57.4853 110.731 57.3213 110.711 57.4656 110.58C57.5794 110.477 58.0974 110.011 58.3116 109.819C58.3017 109.862 58.2928 109.892 58.2928 109.892C58.2928 109.892 58.334 109.916 58.3743 109.972Z" fill="#E3648E"/>
<path fill-rule="evenodd" clip-rule="evenodd" d="M58.2788 110.632C58.2788 110.632 58.3074 110.632 58.3352 110.659C58.1515 110.788 57.7643 111.05 57.7339 111.011C57.7034 110.97 58.1622 110.63 58.3576 110.49C58.3173 110.572 58.2788 110.632 58.2788 110.632Z" fill="#E3648E"/>
<path d="M52.5148 103.492C52.3759 103.68 51.788 104.076 50.6767 104.265C50.3164 104.326 49.9006 104.366 49.4274 104.369C47.497 104.381 46.3418 102.929 46.3418 102.929C46.3418 102.929 47.1296 102.589 47.7076 101.804C47.8626 101.592 47.9854 101.33 48.0804 101.059C48.1055 100.988 48.1288 100.918 48.1494 100.846C48.3511 100.177 48.4031 99.5259 48.4031 99.5259L50.4123 99.8662C50.4123 99.8662 50.3559 101.082 50.5871 101.746C50.6283 101.865 50.6785 101.966 50.7403 102.039C51.149 102.524 52.5148 103.492 52.5148 103.492Z" fill="#FBAEA8"/>
<path d="M50.5881 101.746C49.9285 102.114 49.3299 102.147 49.3299 102.147C48.75 101.857 48.3503 101.478 48.0806 101.059C48.3405 100.323 48.4041 99.5259 48.4041 99.5259L50.4134 99.8662C50.4134 99.8662 50.356 101.081 50.5881 101.746Z" fill="#E3648E"/>
<path d="M52.6073 97.0982C52.6073 97.0982 52.5544 97.3653 52.437 97.7789C52.273 98.355 51.9853 99.2152 51.5399 100.035C50.8714 101.265 49.6498 101.485 49.3514 101.521C49.3084 101.526 49.2842 101.528 49.2842 101.528C46.6682 100.216 48.0761 96.9232 48.0761 96.9232C49.735 96.4372 50.7307 94.5374 50.7307 94.5374C51.159 96.2238 52.6073 97.0982 52.6073 97.0982Z" fill="#FBAEA8"/>
<path fill-rule="evenodd" clip-rule="evenodd" d="M46.565 115.22C46.5605 115.474 46.5264 115.667 46.4547 115.772C46.202 116.138 45.7396 116.293 45.3246 116.235C45.0387 116.197 44.777 116.058 44.622 115.817C44.6104 115.799 44.5987 115.778 44.5853 115.752C44.4885 115.571 44.3334 115.187 44.1461 114.673C43.4632 112.805 42.343 109.211 42.0132 107.301C41.8384 106.288 41.9988 105.538 42.2999 105.006C42.7418 104.222 43.4883 103.909 43.9122 103.915C45.4608 103.941 45.7673 108.359 45.865 109.894C45.9098 110.579 46.116 111.7 46.2943 112.784C46.4476 113.723 46.5802 114.636 46.565 115.22Z" fill="#FCA163"/>
<path fill-rule="evenodd" clip-rule="evenodd" d="M53.5184 113.093C53.2101 113.323 52.7808 113.552 52.1884 113.766C50.034 114.542 46.2879 116.053 45.7609 116.233C45.6238 116.279 45.4741 116.276 45.3235 116.235C45.0538 116.166 44.7831 115.977 44.5842 115.752C44.4668 115.619 44.3727 115.474 44.3198 115.331C44.2141 115.047 44.1666 114.82 44.1459 114.673C44.128 114.549 44.1289 114.48 44.1289 114.48C44.1307 114.383 44.1415 114.29 44.1612 114.201C44.284 113.63 44.7697 113.212 45.622 112.96C45.7716 112.916 46.0038 112.856 46.2932 112.785C47.9145 112.386 51.3424 111.645 52.2646 111.453C52.4062 111.424 52.5397 111.398 52.6661 111.376C52.7539 111.361 52.8391 111.348 52.9197 111.337C52.9905 111.955 53.2218 112.533 53.5184 113.093Z" fill="#FCA163"/>
<path d="M53.5186 113.093C53.2103 113.323 52.781 113.552 52.1886 113.766C50.0342 114.542 46.288 116.053 45.7611 116.233C45.624 116.279 45.4743 116.277 45.3237 116.235C45.0378 116.197 44.7761 116.058 44.6211 115.817C44.6095 115.8 44.5978 115.778 44.5844 115.752C44.467 115.619 44.3729 115.474 44.32 115.331C44.2142 115.047 44.1667 114.821 44.1461 114.673C43.4632 112.805 42.343 109.211 42.0132 107.301C41.8384 106.288 41.9988 105.538 42.2999 105.006C42.2946 105.507 42.3376 106.565 42.6934 108.03C43.0608 109.545 43.5573 112.509 44.1614 114.201C44.3908 114.844 44.6354 115.302 44.8944 115.428C45.1293 115.541 45.7557 115.439 46.565 115.221C48.9964 114.564 53.0696 112.864 53.0696 112.864C53.0696 112.864 52.7478 111.984 52.6663 111.376C52.7541 111.361 52.8393 111.348 52.9199 111.337C52.9907 111.955 53.2219 112.533 53.5186 113.093Z" fill="#F8526D"/>
<path d="M50.6767 104.265C50.3164 104.326 49.9006 104.366 49.4274 104.369C47.497 104.382 46.3418 102.929 46.3418 102.929C46.3418 102.929 47.1296 102.589 47.7076 101.804C47.8626 101.592 47.9854 101.33 48.0804 101.059C48.1055 100.988 48.1288 100.918 48.1494 100.846L48.5913 101.221C48.5913 101.221 48.3224 102.321 47.825 102.655C47.3276 102.99 46.9781 103.151 46.9781 103.151C46.9781 103.151 48.5751 104.423 50.6767 104.265Z" fill="#E3648E"/>
<path d="M58.3848 110.781C58.3893 110.934 57.7395 111.543 57.5827 111.711C57.425 111.882 56.7161 112.366 56.2366 112.504C55.7571 112.641 54.1386 112.593 53.9809 112.593C53.8357 112.593 53.1904 112.822 53.0847 112.859C53.0273 112.724 52.9888 112.629 52.9888 112.629C52.9888 112.629 53.7353 112.338 53.8258 112.338C53.9163 112.338 55.3511 112.575 56.2061 112.338C56.9213 112.14 58.0102 111.161 58.3848 110.781Z" fill="#E3648E"/>
<path d="M52.6074 97.0981C52.6074 97.0981 52.5545 97.3652 52.4371 97.7788C51.8832 97.242 50.6671 95.9638 50.677 95.1098C50.677 95.1098 49.8632 96.6176 49.218 96.9392C48.5727 97.2607 48.371 97.3411 48.371 97.3411C48.371 97.3411 47.741 98.5773 48.0816 99.7332C48.3047 100.492 48.941 101.154 49.3524 101.52C49.3094 101.525 49.2852 101.527 49.2852 101.527C46.6692 100.215 48.0771 96.9222 48.0771 96.9222C49.736 96.4363 50.7316 94.5364 50.7316 94.5364C51.1591 96.2237 52.6074 97.0981 52.6074 97.0981Z" fill="#E3648E"/>
</g>
<path d="M70.7206 25.1669H29.5501C26.193 25.1669 23.4712 22.4542 23.4712 19.1082V10.7753C23.4712 7.42927 26.193 4.71655 29.5501 4.71655H70.7206C74.0778 4.71655 76.7995 7.42927 76.7995 10.7753V19.1082C76.7995 22.4542 74.0778 25.1669 70.7206 25.1669Z" fill="#0A1E3C"/>
<path d="M47.4008 11.4121L47.6356 13.0529L46.1856 12.241L44.6916 12.9707L45.0196 11.3451L43.8608 10.1544L45.5134 9.96236L46.2913 8.49658L46.985 10.0043L48.6241 10.2884L47.4008 11.4121Z" fill="white"/>
<path d="M53.0541 11.4121L53.289 13.0529L51.8389 12.241L50.3449 12.9707L50.672 11.3451L49.5142 10.1544L51.1668 9.96236L51.9447 8.49658L52.6383 10.0043L54.2775 10.2884L53.0541 11.4121Z" fill="white"/>
<path d="M58.7061 11.4121L58.9409 13.0529L57.4908 12.241L55.9978 12.9707L56.3249 11.3451L55.167 10.1544L56.8187 9.96236L57.5966 8.49658L58.2911 10.0043L59.9294 10.2884L58.7061 11.4121Z" fill="white"/>
<path d="M64.3598 11.4121L64.5946 13.0529L63.1446 12.241L61.6506 12.9707L61.9777 11.3451L60.8198 10.1544L62.4724 9.96236L63.2503 8.49658L63.944 10.0043L65.5831 10.2884L64.3598 11.4121Z" fill="white"/>
<path d="M70.0118 11.4121L70.2466 13.0529L68.7965 12.241L67.3034 12.9707L67.6305 11.3451L66.4727 10.1544L68.1244 9.96236L68.9032 8.49658L69.5968 10.0043L71.236 10.2884L70.0118 11.4121Z" fill="white"/>
<path d="M69.9843 18.0551H44.5322C44.0205 18.0551 43.6064 17.6416 43.6064 17.1324C43.6064 16.6224 44.0214 16.2097 44.5322 16.2097H69.9843C70.496 16.2097 70.9101 16.6233 70.9101 17.1324C70.911 17.6416 70.496 18.0551 69.9843 18.0551Z" fill="white"/>
<path d="M59.004 20.6337H44.5322C44.0205 20.6337 43.6064 20.2202 43.6064 19.711C43.6064 19.201 44.0214 18.7883 44.5322 18.7883H59.004C59.5158 18.7883 59.9298 19.2019 59.9298 19.711C59.9298 20.2211 59.5158 20.6337 59.004 20.6337Z" fill="white"/>
<path d="M35.779 20.7643H35.2206C31.8912 20.7643 29.1919 18.0739 29.1919 14.7555C29.1919 11.4372 31.8912 8.74683 35.2206 8.74683H35.7781C39.1074 8.74683 41.8068 11.4372 41.8068 14.7555C41.8077 18.0739 39.1083 20.7643 35.779 20.7643Z" fill="white"/>
<path d="M38.6329 19.2762H32.3667V17.3585C32.3667 16.2973 33.2297 15.4363 34.2953 15.4363H36.7052C37.7699 15.4363 38.6338 16.2965 38.6338 17.3585V19.2762H38.6329Z" fill="#0A1E3C"/>
<path d="M35.4993 14.7556C36.6224 14.7556 37.5328 13.8482 37.5328 12.7289C37.5328 11.6095 36.6224 10.7021 35.4993 10.7021C34.3762 10.7021 33.4658 11.6095 33.4658 12.7289C33.4658 13.8482 34.3762 14.7556 35.4993 14.7556Z" fill="#0A1E3C"/>
<defs>
<linearGradient id="paint0_linear_794_5636" x1="94.0857" y1="102.637" x2="131.034" y2="96.1407" gradientUnits="userSpaceOnUse">
<stop stop-color="#193967"/>
<stop offset="1" stop-color="#A0ADC1"/>
</linearGradient>
<linearGradient id="paint1_linear_794_5636" x1="106.164" y1="85.0265" x2="113.04" y2="84.3704" gradientUnits="userSpaceOnUse">
<stop stop-color="#193967"/>
<stop offset="1" stop-color="#A0ADC1"/>
</linearGradient>
<linearGradient id="paint2_linear_794_5636" x1="101.008" y1="105.392" x2="117.493" y2="103.962" gradientUnits="userSpaceOnUse">
<stop stop-color="#193967"/>
<stop offset="1" stop-color="#A0ADC1"/>
</linearGradient>
<linearGradient id="paint3_linear_794_5636" x1="101.989" y1="96.6293" x2="111.071" y2="95.3371" gradientUnits="userSpaceOnUse">
<stop stop-color="#193967"/>
<stop offset="1" stop-color="#A0ADC1"/>
</linearGradient>
<linearGradient id="paint4_linear_794_5636" x1="97.3538" y1="110.059" x2="106.436" y2="108.767" gradientUnits="userSpaceOnUse">
<stop stop-color="#193967"/>
<stop offset="1" stop-color="#A0ADC1"/>
</linearGradient>
<linearGradient id="paint5_linear_794_5636" x1="111.019" y1="99.4684" x2="122.956" y2="93.7372" gradientUnits="userSpaceOnUse">
<stop stop-color="#193967"/>
<stop offset="1" stop-color="#A0ADC1"/>
</linearGradient>
<linearGradient id="paint6_linear_794_5636" x1="104.946" y1="115.906" x2="116.883" y2="110.174" gradientUnits="userSpaceOnUse">
<stop stop-color="#193967"/>
<stop offset="1" stop-color="#A0ADC1"/>
</linearGradient>
<linearGradient id="paint7_linear_794_5636" x1="68.095" y1="75.2905" x2="129.804" y2="67.3179" gradientUnits="userSpaceOnUse">
<stop stop-color="#193967"/>
<stop offset="1" stop-color="#A0ADC1"/>
</linearGradient>
<linearGradient id="paint8_linear_794_5636" x1="63.6203" y1="61.2141" x2="81.5335" y2="56.9237" gradientUnits="userSpaceOnUse">
<stop stop-color="#193967"/>
<stop offset="1" stop-color="#A0ADC1"/>
</linearGradient>
<linearGradient id="paint9_linear_794_5636" x1="74.56" y1="67.7084" x2="97.7348" y2="63.6997" gradientUnits="userSpaceOnUse">
<stop stop-color="#193967"/>
<stop offset="1" stop-color="#A0ADC1"/>
</linearGradient>
<linearGradient id="paint10_linear_794_5636" x1="90.9408" y1="64.6244" x2="107.557" y2="61.2881" gradientUnits="userSpaceOnUse">
<stop stop-color="#193967"/>
<stop offset="1" stop-color="#A0ADC1"/>
</linearGradient>
<linearGradient id="paint11_linear_794_5636" x1="44.4967" y1="43.2352" x2="51.6254" y2="42.5092" gradientUnits="userSpaceOnUse">
<stop stop-color="#193967"/>
<stop offset="1" stop-color="#A0ADC1"/>
</linearGradient>
<linearGradient id="paint12_linear_794_5636" x1="66.8296" y1="45.9415" x2="69.0721" y2="45.6966" gradientUnits="userSpaceOnUse">
<stop stop-color="#193967"/>
<stop offset="1" stop-color="#A0ADC1"/>
</linearGradient>
<linearGradient id="paint13_linear_794_5636" x1="6.37007" y1="41.4993" x2="30.5845" y2="35.277" gradientUnits="userSpaceOnUse">
<stop stop-color="#193967"/>
<stop offset="1" stop-color="#A0ADC1"/>
</linearGradient>
<linearGradient id="paint14_linear_794_5636" x1="30.5706" y1="46.6996" x2="21.1421" y2="46.6996" gradientUnits="userSpaceOnUse">
<stop stop-color="#7C58EF"/>
<stop offset="1" stop-color="#DA7DE4"/>
</linearGradient>
<linearGradient id="paint15_linear_794_5636" x1="25.2795" y1="50.4109" x2="14.4192" y2="50.4109" gradientUnits="userSpaceOnUse">
<stop stop-color="#7C58EF"/>
<stop offset="1" stop-color="#DA7DE4"/>
</linearGradient>
<linearGradient id="paint16_linear_794_5636" x1="17.3444" y1="50.3583" x2="10.8337" y2="50.3583" gradientUnits="userSpaceOnUse">
<stop stop-color="#7C58EF"/>
<stop offset="1" stop-color="#DA7DE4"/>
</linearGradient>
<linearGradient id="paint17_linear_794_5636" x1="7.57173" y1="80.886" x2="31.7861" y2="74.6637" gradientUnits="userSpaceOnUse">
<stop stop-color="#193967"/>
<stop offset="1" stop-color="#A0ADC1"/>
</linearGradient>
<linearGradient id="paint18_linear_794_5636" x1="38.3662" y1="101.773" x2="62.5806" y2="95.5509" gradientUnits="userSpaceOnUse">
<stop stop-color="#193967"/>
<stop offset="1" stop-color="#A0ADC1"/>
</linearGradient>
</defs>
</svg>
