<svg width="129" height="130" viewBox="0 0 129 130" fill="none" xmlns="http://www.w3.org/2000/svg">
<g opacity="0.23">
<path opacity="0.0286" d="M53.4742 126.424C82.8445 126.424 106.654 117.858 106.654 107.29C106.654 96.7229 82.8445 88.1562 53.4742 88.1562C24.1038 88.1562 0.294434 96.7229 0.294434 107.29C0.294434 117.858 24.1038 126.424 53.4742 126.424Z" fill="#011026"/>
<path opacity="0.0571" d="M53.4738 126.156C82.6814 126.156 106.359 117.71 106.359 107.291C106.359 96.8714 82.6814 88.425 53.4738 88.425C24.2663 88.425 0.588867 96.8714 0.588867 107.291C0.588867 117.71 24.2663 126.156 53.4738 126.156Z" fill="#011026"/>
<path opacity="0.0857" d="M53.474 125.887C82.5191 125.887 106.065 117.561 106.065 107.29C106.065 97.0197 82.5191 88.6936 53.474 88.6936C24.429 88.6936 0.883301 97.0197 0.883301 107.29C0.883301 117.561 24.429 125.887 53.474 125.887Z" fill="#011026"/>
<path opacity="0.1143" d="M53.4742 125.619C82.3564 125.619 105.77 117.413 105.77 107.29C105.77 97.168 82.3564 88.9622 53.4742 88.9622C24.5919 88.9622 1.17822 97.168 1.17822 107.29C1.17822 117.413 24.5919 125.619 53.4742 125.619Z" fill="#011026"/>
<path opacity="0.1429" d="M53.4739 125.35C82.1936 125.35 105.476 117.264 105.476 107.29C105.476 97.3163 82.1936 89.2307 53.4739 89.2307C24.7541 89.2307 1.47217 97.3163 1.47217 107.29C1.47217 117.264 24.7541 125.35 53.4739 125.35Z" fill="#011026"/>
<path opacity="0.1714" d="M53.474 125.081C82.031 125.081 105.181 117.116 105.181 107.29C105.181 97.4648 82.031 89.4995 53.474 89.4995C24.9171 89.4995 1.76709 97.4648 1.76709 107.29C1.76709 117.116 24.9171 125.081 53.474 125.081Z" fill="#011026"/>
<path opacity="0.2" d="M53.4742 124.813C81.8683 124.813 104.886 116.968 104.886 107.29C104.886 97.6131 81.8683 89.7681 53.4742 89.7681C25.08 89.7681 2.06201 97.6131 2.06201 107.29C2.06201 116.968 25.08 124.813 53.4742 124.813Z" fill="#011026"/>
<path opacity="0.2286" d="M53.4739 124.544C81.7055 124.544 104.592 116.819 104.592 107.29C104.592 97.7618 81.7055 90.0374 53.4739 90.0374C25.2422 90.0374 2.35596 97.7618 2.35596 107.29C2.35596 116.819 25.2422 124.544 53.4739 124.544Z" fill="#011026"/>
<path opacity="0.2571" d="M53.474 124.275C81.5428 124.275 104.297 116.671 104.297 107.29C104.297 97.9101 81.5428 90.3059 53.474 90.3059C25.4052 90.3059 2.65088 97.9101 2.65088 107.29C2.65088 116.671 25.4052 124.275 53.474 124.275Z" fill="#011026"/>
<path opacity="0.2857" d="M53.4742 124.006C81.3805 124.006 104.003 116.522 104.003 107.29C104.003 98.0584 81.3805 90.5745 53.4742 90.5745C25.5679 90.5745 2.94531 98.0584 2.94531 107.29C2.94531 116.522 25.5679 124.006 53.4742 124.006Z" fill="#011026"/>
<path opacity="0.3143" d="M53.4739 123.738C81.2174 123.738 103.708 116.374 103.708 107.291C103.708 98.2069 81.2174 90.8433 53.4739 90.8433C25.7303 90.8433 3.23975 98.2069 3.23975 107.291C3.23975 116.374 25.7303 123.738 53.4739 123.738Z" fill="#011026"/>
<path opacity="0.3429" d="M53.474 123.469C81.0551 123.469 103.414 116.226 103.414 107.29C103.414 98.3552 81.0551 91.1118 53.474 91.1118C25.893 91.1118 3.53418 98.3552 3.53418 107.29C3.53418 116.226 25.893 123.469 53.474 123.469Z" fill="#011026"/>
<path opacity="0.3714" d="M53.4742 123.2C80.8924 123.2 103.119 116.077 103.119 107.29C103.119 98.5035 80.8924 91.3804 53.4742 91.3804C26.056 91.3804 3.8291 98.5035 3.8291 107.29C3.8291 116.077 26.056 123.2 53.4742 123.2Z" fill="#011026"/>
<path opacity="0.4" d="M53.4739 122.932C80.7296 122.932 102.825 115.929 102.825 107.29C102.825 98.6518 80.7296 91.6489 53.4739 91.6489C26.2182 91.6489 4.12305 98.6518 4.12305 107.29C4.12305 115.929 26.2182 122.932 53.4739 122.932Z" fill="#011026"/>
<path opacity="0.4286" d="M53.474 122.663C80.5669 122.663 102.53 115.781 102.53 107.29C102.53 98.8003 80.5669 91.9177 53.474 91.9177C26.3811 91.9177 4.41797 98.8003 4.41797 107.29C4.41797 115.781 26.3811 122.663 53.474 122.663Z" fill="#011026"/>
<path opacity="0.4571" d="M53.4737 122.395C80.4042 122.395 102.236 115.632 102.236 107.29C102.236 98.9486 80.4042 92.1863 53.4737 92.1863C26.5433 92.1863 4.71191 98.9486 4.71191 107.29C4.71191 115.632 26.5433 122.395 53.4737 122.395Z" fill="#011026"/>
<path opacity="0.4857" d="M53.4739 122.126C80.2415 122.126 101.941 115.484 101.941 107.29C101.941 99.0969 80.2415 92.4548 53.4739 92.4548C26.7063 92.4548 5.00684 99.0969 5.00684 107.29C5.00684 115.484 26.7063 122.126 53.4739 122.126Z" fill="#011026"/>
<path opacity="0.5143" d="M53.4741 121.857C80.0792 121.857 101.647 115.335 101.647 107.29C101.647 99.2452 80.0792 92.7234 53.4741 92.7234C26.869 92.7234 5.30127 99.2452 5.30127 107.29C5.30127 115.335 26.869 121.857 53.4741 121.857Z" fill="#011026"/>
<path opacity="0.5429" d="M53.4742 121.589C79.9165 121.589 101.352 115.187 101.352 107.29C101.352 99.3937 79.9165 92.9922 53.4742 92.9922C27.0319 92.9922 5.59619 99.3937 5.59619 107.29C5.59619 115.187 27.0319 121.589 53.4742 121.589Z" fill="#011026"/>
<path opacity="0.5714" d="M53.4739 121.32C79.7534 121.32 101.057 115.039 101.057 107.29C101.057 99.542 79.7534 93.2607 53.4739 93.2607C27.1944 93.2607 5.89062 99.542 5.89062 107.29C5.89062 115.039 27.1944 121.32 53.4739 121.32Z" fill="#011026"/>
<path opacity="0.6" d="M53.4741 121.051C79.5911 121.051 100.763 114.89 100.763 107.29C100.763 99.6908 79.5911 93.53 53.4741 93.53C27.3571 93.53 6.18506 99.6908 6.18506 107.29C6.18506 114.89 27.3571 121.051 53.4741 121.051Z" fill="#011026"/>
<path opacity="0.6286" d="M53.4742 120.782C79.4284 120.782 100.468 114.742 100.468 107.29C100.468 99.8391 79.4284 93.7986 53.4742 93.7986C27.52 93.7986 6.47998 99.8391 6.47998 107.29C6.47998 114.742 27.52 120.782 53.4742 120.782Z" fill="#011026"/>
<path opacity="0.6571" d="M53.4739 120.514C79.2656 120.514 100.174 114.593 100.174 107.29C100.174 99.9874 79.2656 94.0671 53.4739 94.0671C27.6822 94.0671 6.77393 99.9874 6.77393 107.29C6.77393 114.593 27.6822 120.514 53.4739 120.514Z" fill="#011026"/>
<path opacity="0.6857" d="M53.4741 120.245C79.103 120.245 99.8793 114.445 99.8793 107.291C99.8793 100.136 79.103 94.3359 53.4741 94.3359C27.8452 94.3359 7.06885 100.136 7.06885 107.291C7.06885 114.445 27.8452 120.245 53.4741 120.245Z" fill="#011026"/>
<path opacity="0.7143" d="M53.4738 119.976C78.9402 119.976 99.5847 114.297 99.5847 107.29C99.5847 100.284 78.9402 94.6045 53.4738 94.6045C28.0074 94.6045 7.36279 100.284 7.36279 107.29C7.36279 114.297 28.0074 119.976 53.4738 119.976Z" fill="#011026"/>
<path opacity="0.7429" d="M53.4739 119.708C78.7775 119.708 99.2901 114.148 99.2901 107.29C99.2901 100.432 78.7775 94.873 53.4739 94.873C28.1703 94.873 7.65771 100.432 7.65771 107.29C7.65771 114.148 28.1703 119.708 53.4739 119.708Z" fill="#011026"/>
<path opacity="0.7714" d="M53.4741 119.439C78.6152 119.439 98.9961 114 98.9961 107.29C98.9961 100.581 78.6152 95.1416 53.4741 95.1416C28.333 95.1416 7.95215 100.581 7.95215 107.29C7.95215 114 28.333 119.439 53.4741 119.439Z" fill="#011026"/>
<path opacity="0.8" d="M53.4738 119.171C78.452 119.171 98.7009 113.852 98.7009 107.29C98.7009 100.729 78.452 95.4104 53.4738 95.4104C28.4955 95.4104 8.24658 100.729 8.24658 107.29C8.24658 113.852 28.4955 119.171 53.4738 119.171Z" fill="#011026"/>
<path opacity="0.8286" d="M53.474 118.902C78.2897 118.902 98.4069 113.703 98.4069 107.29C98.4069 100.878 78.2897 95.679 53.474 95.679C28.6582 95.679 8.54102 100.878 8.54102 107.29C8.54102 113.703 28.6582 118.902 53.474 118.902Z" fill="#011026"/>
<path opacity="0.8571" d="M53.4741 118.633C78.1271 118.633 98.1123 113.555 98.1123 107.29C98.1123 101.026 78.1271 95.9475 53.4741 95.9475C28.8211 95.9475 8.83594 101.026 8.83594 107.29C8.83594 113.555 28.8211 118.633 53.4741 118.633Z" fill="#011026"/>
<path opacity="0.8857" d="M53.4738 118.365C77.9643 118.365 97.8177 113.407 97.8177 107.291C97.8177 101.174 77.9643 96.2163 53.4738 96.2163C28.9833 96.2163 9.12988 101.174 9.12988 107.291C9.12988 113.407 28.9833 118.365 53.4738 118.365Z" fill="#011026"/>
<path opacity="0.9143" d="M53.4739 118.096C77.8016 118.096 97.5231 113.258 97.5231 107.29C97.5231 101.323 77.8016 96.4849 53.4739 96.4849C29.1463 96.4849 9.4248 101.323 9.4248 107.29C9.4248 113.258 29.1463 118.096 53.4739 118.096Z" fill="#011026"/>
<path opacity="0.9429" d="M53.4741 117.827C77.6393 117.827 97.229 113.11 97.229 107.29C97.229 101.471 77.6393 96.7534 53.4741 96.7534C29.309 96.7534 9.71924 101.471 9.71924 107.29C9.71924 113.11 29.309 117.827 53.4741 117.827Z" fill="#011026"/>
<path opacity="0.9714" d="M53.4738 117.558C77.4762 117.558 96.9339 112.961 96.9339 107.29C96.9339 101.62 77.4762 97.0227 53.4738 97.0227C29.4714 97.0227 10.0137 101.62 10.0137 107.29C10.0137 112.961 29.4714 117.558 53.4738 117.558Z" fill="#011026"/>
<path d="M53.4739 117.29C77.3135 117.29 96.6393 112.813 96.6393 107.29C96.6393 101.768 77.3135 97.2913 53.4739 97.2913C29.6344 97.2913 10.3086 101.768 10.3086 107.29C10.3086 112.813 29.6344 117.29 53.4739 117.29Z" fill="#011026"/>
</g>
<g opacity="0.23">
<path opacity="0.0286" d="M113.953 93.2636C122.217 93.2636 128.917 90.8531 128.917 87.8797C128.917 84.9063 122.217 82.4958 113.953 82.4958C105.689 82.4958 98.9893 84.9063 98.9893 87.8797C98.9893 90.8531 105.689 93.2636 113.953 93.2636Z" fill="#011026"/>
<path opacity="0.0571" d="M113.953 93.1878C122.172 93.1878 128.834 90.8113 128.834 87.8797C128.834 84.9481 122.172 82.5715 113.953 82.5715C105.735 82.5715 99.0723 84.9481 99.0723 87.8797C99.0723 90.8113 105.735 93.1878 113.953 93.1878Z" fill="#011026"/>
<path opacity="0.0857" d="M113.953 93.1128C122.126 93.1128 128.751 90.7699 128.751 87.8798C128.751 84.9896 122.126 82.6467 113.953 82.6467C105.78 82.6467 99.1548 84.9896 99.1548 87.8798C99.1548 90.7699 105.78 93.1128 113.953 93.1128Z" fill="#011026"/>
<path opacity="0.1143" d="M113.953 93.037C122.08 93.037 128.668 90.728 128.668 87.8797C128.668 85.0314 122.08 82.7224 113.953 82.7224C105.826 82.7224 99.2378 85.0314 99.2378 87.8797C99.2378 90.728 105.826 93.037 113.953 93.037Z" fill="#011026"/>
<path opacity="0.1429" d="M113.953 92.9613C122.035 92.9613 128.586 90.6862 128.586 87.8797C128.586 85.0732 122.035 82.7981 113.953 82.7981C105.872 82.7981 99.3208 85.0732 99.3208 87.8797C99.3208 90.6862 105.872 92.9613 113.953 92.9613Z" fill="#011026"/>
<path opacity="0.1714" d="M113.953 92.8855C121.989 92.8855 128.503 90.6443 128.503 87.8796C128.503 85.115 121.989 82.8738 113.953 82.8738C105.917 82.8738 99.4033 85.115 99.4033 87.8796C99.4033 90.6443 105.917 92.8855 113.953 92.8855Z" fill="#011026"/>
<path opacity="0.2" d="M113.953 92.81C121.943 92.81 128.419 90.6027 128.419 87.8799C128.419 85.157 121.943 82.9497 113.953 82.9497C105.963 82.9497 99.4863 85.157 99.4863 87.8799C99.4863 90.6027 105.963 92.81 113.953 92.81Z" fill="#011026"/>
<path opacity="0.2286" d="M113.953 92.7347C121.897 92.7347 128.337 90.5611 128.337 87.8797C128.337 85.1983 121.897 83.0247 113.953 83.0247C106.009 83.0247 99.5693 85.1983 99.5693 87.8797C99.5693 90.5611 106.009 92.7347 113.953 92.7347Z" fill="#011026"/>
<path opacity="0.2571" d="M113.953 92.659C121.851 92.659 128.254 90.5192 128.254 87.8797C128.254 85.2401 121.851 83.1003 113.953 83.1003C106.055 83.1003 99.6523 85.2401 99.6523 87.8797C99.6523 90.5192 106.055 92.659 113.953 92.659Z" fill="#011026"/>
<path opacity="0.2857" d="M113.953 92.5835C121.806 92.5835 128.171 90.4776 128.171 87.8799C128.171 85.2821 121.806 83.1763 113.953 83.1763C106.101 83.1763 99.7354 85.2821 99.7354 87.8799C99.7354 90.4776 106.101 92.5835 113.953 92.5835Z" fill="#011026"/>
<path opacity="0.3143" d="M113.953 92.5077C121.76 92.5077 128.089 90.4357 128.089 87.8798C128.089 85.3239 121.76 83.252 113.953 83.252C106.146 83.252 99.8179 85.3239 99.8179 87.8798C99.8179 90.4357 106.146 92.5077 113.953 92.5077Z" fill="#011026"/>
<path opacity="0.3429" d="M113.953 92.432C121.714 92.432 128.005 90.3939 128.005 87.8798C128.005 85.3657 121.714 83.3276 113.953 83.3276C106.192 83.3276 99.9009 85.3657 99.9009 87.8798C99.9009 90.3939 106.192 92.432 113.953 92.432Z" fill="#011026"/>
<path opacity="0.3714" d="M113.953 92.3567C121.668 92.3567 127.923 90.3522 127.923 87.8796C127.923 85.407 121.668 83.4026 113.953 83.4026C106.238 83.4026 99.9839 85.407 99.9839 87.8796C99.9839 90.3522 106.238 92.3567 113.953 92.3567Z" fill="#011026"/>
<path opacity="0.4" d="M113.953 92.2812C121.622 92.2812 127.839 90.3106 127.839 87.8798C127.839 85.4491 121.622 83.4785 113.953 83.4785C106.284 83.4785 100.067 85.4491 100.067 87.8798C100.067 90.3106 106.284 92.2812 113.953 92.2812Z" fill="#011026"/>
<path opacity="0.4286" d="M113.953 92.2054C121.577 92.2054 127.757 90.2688 127.757 87.8798C127.757 85.4908 121.577 83.5542 113.953 83.5542C106.329 83.5542 100.149 85.4908 100.149 87.8798C100.149 90.2688 106.329 92.2054 113.953 92.2054Z" fill="#011026"/>
<path opacity="0.4571" d="M113.953 92.1296C121.531 92.1296 127.674 90.2269 127.674 87.8798C127.674 85.5326 121.531 83.6299 113.953 83.6299C106.375 83.6299 100.232 85.5326 100.232 87.8798C100.232 90.2269 106.375 92.1296 113.953 92.1296Z" fill="#011026"/>
<path opacity="0.4857" d="M113.953 92.0539C121.485 92.0539 127.591 90.1851 127.591 87.8797C127.591 85.5744 121.485 83.7056 113.953 83.7056C106.421 83.7056 100.315 85.5744 100.315 87.8797C100.315 90.1851 106.421 92.0539 113.953 92.0539Z" fill="#011026"/>
<path opacity="0.5143" d="M113.953 91.9788C121.439 91.9788 127.508 90.1436 127.508 87.8798C127.508 85.616 121.439 83.7808 113.953 83.7808C106.467 83.7808 100.398 85.616 100.398 87.8798C100.398 90.1436 106.467 91.9788 113.953 91.9788Z" fill="#011026"/>
<path opacity="0.5429" d="M113.953 91.9031C121.394 91.9031 127.426 90.1018 127.426 87.8798C127.426 85.6577 121.394 83.8564 113.953 83.8564C106.513 83.8564 100.481 85.6577 100.481 87.8798C100.481 90.1018 106.513 91.9031 113.953 91.9031Z" fill="#011026"/>
<path opacity="0.5714" d="M113.953 91.8273C121.348 91.8273 127.342 90.0599 127.342 87.8797C127.342 85.6995 121.348 83.9321 113.953 83.9321C106.558 83.9321 100.564 85.6995 100.564 87.8797C100.564 90.0599 106.558 91.8273 113.953 91.8273Z" fill="#011026"/>
<path opacity="0.6" d="M113.953 91.7516C121.302 91.7516 127.259 90.0181 127.259 87.8797C127.259 85.7413 121.302 84.0078 113.953 84.0078C106.604 84.0078 100.646 85.7413 100.646 87.8797C100.646 90.0181 106.604 91.7516 113.953 91.7516Z" fill="#011026"/>
<path opacity="0.6286" d="M113.953 91.6758C121.256 91.6758 127.177 89.9762 127.177 87.8797C127.177 85.7831 121.256 84.0835 113.953 84.0835C106.65 84.0835 100.73 85.7831 100.73 87.8797C100.73 89.9762 106.65 91.6758 113.953 91.6758Z" fill="#011026"/>
<path opacity="0.6571" d="M113.953 91.6008C121.21 91.6008 127.094 89.9348 127.094 87.8797C127.094 85.8247 121.21 84.1587 113.953 84.1587C106.696 84.1587 100.812 85.8247 100.812 87.8797C100.812 89.9348 106.696 91.6008 113.953 91.6008Z" fill="#011026"/>
<path opacity="0.6857" d="M113.953 91.525C121.165 91.525 127.011 89.893 127.011 87.8797C127.011 85.8664 121.165 84.2344 113.953 84.2344C106.741 84.2344 100.895 85.8664 100.895 87.8797C100.895 89.893 106.741 91.525 113.953 91.525Z" fill="#011026"/>
<path opacity="0.7143" d="M113.953 91.4493C121.119 91.4493 126.928 89.8511 126.928 87.8797C126.928 85.9082 121.119 84.3101 113.953 84.3101C106.787 84.3101 100.979 85.9082 100.979 87.8797C100.979 89.8511 106.787 91.4493 113.953 91.4493Z" fill="#011026"/>
<path opacity="0.7429" d="M113.953 91.3735C121.073 91.3735 126.845 89.8093 126.845 87.8796C126.845 85.95 121.073 84.3857 113.953 84.3857C106.833 84.3857 101.061 85.95 101.061 87.8796C101.061 89.8093 106.833 91.3735 113.953 91.3735Z" fill="#011026"/>
<path opacity="0.7714" d="M113.953 91.298C121.027 91.298 126.762 89.7677 126.762 87.8798C126.762 85.992 121.027 84.4617 113.953 84.4617C106.879 84.4617 101.144 85.992 101.144 87.8798C101.144 89.7677 106.879 91.298 113.953 91.298Z" fill="#011026"/>
<path opacity="0.8" d="M113.953 91.2227C120.982 91.2227 126.679 89.726 126.679 87.8797C126.679 86.0334 120.982 84.5366 113.953 84.5366C106.925 84.5366 101.227 86.0334 101.227 87.8797C101.227 89.726 106.925 91.2227 113.953 91.2227Z" fill="#011026"/>
<path opacity="0.8286" d="M113.953 91.147C120.936 91.147 126.597 89.6841 126.597 87.8796C126.597 86.0751 120.936 84.6123 113.953 84.6123C106.97 84.6123 101.31 86.0751 101.31 87.8796C101.31 89.6841 106.97 91.147 113.953 91.147Z" fill="#011026"/>
<path opacity="0.8571" d="M113.953 91.0715C120.89 91.0715 126.514 89.6425 126.514 87.8798C126.514 86.1172 120.89 84.6882 113.953 84.6882C107.016 84.6882 101.393 86.1172 101.393 87.8798C101.393 89.6425 107.016 91.0715 113.953 91.0715Z" fill="#011026"/>
<path opacity="0.8857" d="M113.953 90.9957C120.844 90.9957 126.431 89.6007 126.431 87.8798C126.431 86.159 120.844 84.7639 113.953 84.7639C107.062 84.7639 101.476 86.159 101.476 87.8798C101.476 89.6007 107.062 90.9957 113.953 90.9957Z" fill="#011026"/>
<path opacity="0.9143" d="M113.953 90.92C120.799 90.92 126.348 89.5588 126.348 87.8798C126.348 86.2007 120.799 84.8396 113.953 84.8396C107.108 84.8396 101.558 86.2007 101.558 87.8798C101.558 89.5588 107.108 90.92 113.953 90.92Z" fill="#011026"/>
<path opacity="0.9429" d="M113.953 90.8449C120.753 90.8449 126.265 89.5174 126.265 87.8799C126.265 86.2423 120.753 84.9148 113.953 84.9148C107.154 84.9148 101.642 86.2423 101.642 87.8799C101.642 89.5174 107.154 90.8449 113.953 90.8449Z" fill="#011026"/>
<path opacity="0.9714" d="M113.953 90.7692C120.707 90.7692 126.182 89.4756 126.182 87.8798C126.182 86.2841 120.707 84.9905 113.953 84.9905C107.199 84.9905 101.724 86.2841 101.724 87.8798C101.724 89.4756 107.199 90.7692 113.953 90.7692Z" fill="#011026"/>
<path d="M113.953 90.6934C120.661 90.6934 126.099 89.4337 126.099 87.8798C126.099 86.3259 120.661 85.0662 113.953 85.0662C107.245 85.0662 101.807 86.3259 101.807 87.8798C101.807 89.4337 107.245 90.6934 113.953 90.6934Z" fill="#011026"/>
</g>
<path d="M53.942 110.655C53.942 110.655 51.7822 112.102 50.5808 112.019C49.3794 111.936 47.1962 111.924 47.6526 112.987C48.1089 114.051 48.7539 114.094 49.8047 114.343C50.8555 114.591 53.3981 114.287 53.9414 114.951C54.4847 115.614 55.4567 116.195 56.4868 115.864C57.5169 115.532 57.9884 115.366 58.1635 114.536C58.3387 113.706 57.4733 110.896 57.4733 110.896C57.4733 110.896 55.4507 111.861 53.942 110.655Z" fill="url(#paint0_linear_794_5880)"/>
<path d="M72.8619 90.3118L69.9517 111.603L70.4569 111.887L74.3092 90.3118H72.8619Z" fill="url(#paint1_linear_794_5880)"/>
<path d="M59.4365 96.0599L76.5757 87.2236C76.5757 87.2236 76.7519 102.277 74.9751 103.226C73.1982 104.174 66.4308 101.674 66.3797 101.754C66.3296 101.834 59.4365 96.0599 59.4365 96.0599Z" fill="url(#paint2_linear_794_5880)"/>
<path d="M73.3755 105.915L74.9756 129.716L75.4808 130L74.8227 105.915H73.3755Z" fill="url(#paint3_linear_794_5880)"/>
<path d="M59.7975 98.3037L56.8872 119.595L57.393 119.879L61.2447 98.3037H59.7975Z" fill="url(#paint4_linear_794_5880)"/>
<path d="M86.4395 97.9221L88.0395 121.724L88.5453 122.008L87.8873 97.9221H86.4395Z" fill="url(#paint5_linear_794_5880)"/>
<path d="M28.6094 94.655L29.0744 113.764L29.7455 114.164V94.655H28.6094Z" fill="url(#paint6_linear_794_5880)"/>
<path d="M25.2219 54.6152L13.1027 62.0591C12.1443 62.8698 11.6603 64.1919 11.8403 65.511L14.6043 85.5994C14.923 87.9364 16.3393 89.9117 18.3255 90.7891L29.5321 95.9632C30.5763 96.4242 31.7511 96.3533 32.7431 95.7679L44.183 88.8216L31.1371 71.9315L25.2219 54.6152Z" fill="url(#paint7_linear_794_5880)"/>
<path d="M26.4559 55.8575L15.6056 63.1578C14.6473 63.9685 14.1632 65.2905 14.3432 66.6096L16.7412 84.1903C17.0599 86.5273 18.4762 88.5026 20.4624 89.38L29.4048 93.33C30.4491 93.791 31.6238 93.72 32.6159 93.1347L44.8732 85.9066L31.5749 71.8156L28.0228 56.5612C27.8472 55.8046 27.0596 55.4513 26.4559 55.8575Z" fill="url(#paint8_linear_794_5880)"/>
<path d="M16.6133 89.6335L10.2314 105.169L10.6981 105.449L17.5776 90.2844L16.6133 89.6335Z" fill="url(#paint9_linear_794_5880)"/>
<path d="M50.8057 79.2864L51.2707 98.3958L51.9424 98.7955V79.2864H50.8057Z" fill="url(#paint10_linear_794_5880)"/>
<path d="M47.4181 39.2466L35.2994 46.6905C34.3411 47.5012 33.8571 48.8232 34.0371 50.1423L36.8011 70.2307C37.1198 72.5678 38.536 74.5431 40.5223 75.4205L51.7289 80.5946C52.7731 81.0555 53.9479 80.9846 54.9399 80.3993L66.3798 73.453L54.2976 61.3547L47.4181 39.2466Z" fill="url(#paint11_linear_794_5880)"/>
<path d="M48.6522 40.4882L37.8019 47.7885C36.8436 48.5992 36.3595 49.9213 36.5395 51.2403L38.9375 68.821C39.2562 71.1581 40.6725 73.1334 42.6587 74.0107L51.6011 77.9608C52.6454 78.4217 53.8201 78.3508 54.8122 77.7655L67.0695 70.5373L54.097 61.21L50.2191 41.1919C50.0434 40.436 49.2559 40.0826 48.6522 40.4882Z" fill="url(#paint12_linear_794_5880)"/>
<path d="M33.538 105.537C33.538 105.537 32.4502 107.21 32.6525 107.816C32.8549 108.422 33.4319 109.73 35.106 108.837C36.78 107.944 37.6176 108.664 38.5123 108.591C39.4069 108.518 41.3121 107.529 40.0134 106.732C38.7146 105.934 36.9606 105.448 36.9606 105.448C36.9606 105.448 34.7992 106.415 33.538 105.537Z" fill="url(#paint13_linear_794_5880)"/>
<path d="M35.101 87.8107L33.3203 104.914C33.3203 104.914 33.447 106.105 34.5892 106.175C35.7313 106.245 36.9251 105.616 36.9251 105.616L41.5149 84.5007L35.101 87.8107Z" fill="#001740"/>
<path d="M19.9 76.3381C19.9 76.3381 18.4761 81.2394 19.6569 83.5987C24.3429 92.9621 38.2689 87.9778 38.2689 87.9778C38.2689 87.9778 35.8878 96.0401 36.547 100.468C37.2062 104.895 37.5107 107.53 37.5107 107.53C37.5107 107.53 37.5107 108.034 39.3365 108.146C41.1623 108.259 41.568 107.305 41.568 107.305C41.568 107.305 43.5135 88.3408 43.6658 86.2117C43.8181 84.0819 45.3235 80.2293 42.3311 79.0562C39.3387 77.8832 28.3807 77.4349 28.3807 77.4349L19.9 76.3381Z" fill="url(#paint14_linear_794_5880)"/>
<path d="M41.4114 107.531C41.4114 107.531 43.6739 109.8 45.0505 110.454C46.4271 111.109 46.6033 111.551 45.8027 112.099C45.0021 112.647 43.4172 113.603 41.9607 112.399C40.5042 111.197 39.4796 110.914 38.7268 110.984C37.9747 111.055 37.1099 111.055 37.142 109.746C37.1741 108.437 37.5107 107.529 37.5107 107.529C37.5107 107.529 39.6933 108.728 41.4114 107.531Z" fill="url(#paint15_linear_794_5880)"/>
<path d="M21.8938 52.921C21.8938 52.921 18.1389 55.0736 18.7094 60.428C19.2794 65.7825 19.9445 72.8375 19.7069 74.9006C19.4692 76.9636 19.4692 76.9636 19.4692 76.9636C19.4692 76.9636 20.4406 82.0578 24.3363 82.1726C28.2321 82.288 30.0226 79.4203 30.0226 79.4203C30.0226 79.4203 30.0166 60.1077 29.3041 58.4569C28.5916 56.8055 25.6933 52.921 24.933 52.7113C24.1726 52.501 21.8938 52.921 21.8938 52.921Z" fill="#060D1B"/>
<path d="M41.8454 64.9148C41.8454 64.9148 40.4073 69.6286 42.3245 71.2704C44.2417 72.9121 50.1379 76.1428 50.1379 76.1428L63.3198 70.158L53.499 60.4131L41.8454 64.9148Z" fill="url(#paint16_linear_794_5880)"/>
<path d="M48.9658 95.4085V127.991L49.6598 127.689L50.3478 95.2961L48.9658 95.4085Z" fill="url(#paint17_linear_794_5880)"/>
<path d="M24.9521 82.585V115.168L25.6461 114.865L26.3341 82.4727L24.9521 82.585Z" fill="url(#paint18_linear_794_5880)"/>
<path d="M91.0854 71.6579V104.241L91.7794 103.938L92.4674 71.5461L91.0854 71.6579Z" fill="url(#paint19_linear_794_5880)"/>
<path d="M67.0713 58.8344V91.4171L67.7653 91.1154L68.4533 58.7227L67.0713 58.8344Z" fill="url(#paint20_linear_794_5880)"/>
<path d="M104.136 13.9438V58.5165C104.136 59.1438 103.549 59.5603 103.033 59.2989L77.6427 46.4411C77.051 46.1412 76.6719 45.488 76.6719 44.7692V0.0349121L104.136 13.9438Z" fill="url(#paint21_linear_794_5880)" stroke="#6D6D6D" stroke-width="0.75" stroke-miterlimit="10"/>
<path d="M77.6313 0.52104L103.539 13.6415C103.903 13.8254 104.136 14.2268 104.136 14.6685V18.1293L76.6714 4.22106V1.20131C76.6714 0.656253 77.1826 0.293883 77.6313 0.52104Z" fill="url(#paint22_linear_794_5880)"/>
<path d="M84.4008 31.7463L97.7851 38.5063C97.9135 38.5712 97.9956 38.713 97.9956 38.8687V38.9126C97.9956 39.1553 97.7677 39.317 97.5681 39.2154L84.3051 32.5173C84.1425 32.435 84.0381 32.2553 84.0381 32.0576V32.0029C84.0381 31.7974 84.2312 31.6604 84.4008 31.7463Z" fill="#B2B2B2"/>
<path d="M82.4311 33.757L97.7848 41.5327C97.9131 41.5976 97.9953 41.7394 97.9953 41.895V41.9389C97.9953 42.1817 97.7674 42.3433 97.5678 42.2418L82.3354 34.5275C82.1728 34.4451 82.0684 34.2654 82.0684 34.0677V34.013C82.0689 33.8081 82.2614 33.6711 82.4311 33.757Z" fill="#B2B2B2"/>
<path d="M82.4311 36.7834L97.7848 44.559C97.9131 44.6239 97.9953 44.7658 97.9953 44.9214V44.9653C97.9953 45.208 97.7674 45.3697 97.5678 45.2681L82.3354 37.5538C82.1728 37.4715 82.0684 37.2918 82.0684 37.0941V37.0394C82.0689 36.8345 82.2614 36.6975 82.4311 36.7834Z" fill="#B2B2B2"/>
<path d="M82.4311 39.809L97.7848 47.5847C97.9131 47.6496 97.9953 47.7914 97.9953 47.947V47.9909C97.9953 48.2337 97.7674 48.3954 97.5678 48.2938L82.3354 40.5795C82.1728 40.4971 82.0684 40.3174 82.0684 40.1197V40.0651C82.0689 39.8601 82.2614 39.7237 82.4311 39.809Z" fill="#B2B2B2"/>
<path d="M82.4311 42.8356L90.3831 46.8536C90.5115 46.9185 90.5936 47.0603 90.5936 47.2159V47.2598C90.5936 47.5026 90.3657 47.6642 90.1661 47.5627L82.3354 43.6067C82.1728 43.5243 82.0684 43.3446 82.0684 43.1469V43.0923C82.0689 42.8867 82.2614 42.7497 82.4311 42.8356Z" fill="#B2B2B2"/>
<path d="M78.9705 3.50959C78.9705 3.7055 78.8264 3.79444 78.6491 3.7073C78.4718 3.62076 78.3276 3.3912 78.3276 3.1953C78.3276 2.99939 78.4718 2.91045 78.6491 2.99758C78.8269 3.08412 78.9705 3.31308 78.9705 3.50959Z" fill="#FFFDFE"/>
<path d="M80.0701 4.04743C80.0701 4.24334 79.926 4.33228 79.7487 4.24514C79.5714 4.15861 79.4272 3.92905 79.4272 3.73314C79.4272 3.53723 79.5714 3.44829 79.7487 3.53543C79.926 3.62196 80.0701 3.85092 80.0701 4.04743Z" fill="#FFFDFE"/>
<path d="M81.1697 4.58527C81.1697 4.78118 81.0256 4.87012 80.8483 4.78298C80.671 4.69645 80.5269 4.46689 80.5269 4.27098C80.5269 4.07507 80.671 3.98613 80.8483 4.07327C81.0256 4.1598 81.1697 4.38937 81.1697 4.58527Z" fill="#FFFDFE"/>
<path d="M79.5824 89.979C79.5824 89.979 81.784 94.4061 79.2615 96.3658C76.739 98.3249 71.1768 100.409 69.8834 99.3309C69.0258 98.6163 65.0141 96.4601 62.4095 95.0888C61.2673 94.4872 59.5569 94.9488 59.3524 96.3285L57.6071 110.918C57.6071 110.918 56.8625 111.883 55.4446 111.644C54.0267 111.404 53.3354 110.347 53.3354 110.347C53.3354 110.347 53.6634 89.6532 54.4395 87.2236C55.2156 84.794 67.4137 84.2075 70.3245 86.3228C73.2354 88.4381 79.5824 89.979 79.5824 89.979Z" fill="url(#paint23_linear_794_5880)"/>
<path d="M51.2162 94.9614L91.7737 73.7462C92.6939 73.2649 92.6993 71.8196 91.7818 71.3304L68.9178 59.1337C67.8996 58.5904 66.7134 58.5856 65.6915 59.1198L25.4419 80.1739C24.2845 80.7791 24.2785 82.5957 25.4316 83.2111L47.4292 94.9452C48.6246 95.5828 50.0164 95.5888 51.2162 94.9614Z" fill="#B5B5B4"/>
<path d="M51.2162 94.0371L91.7737 72.8219C92.6939 72.3406 92.6993 70.8953 91.7818 70.4061L68.9178 58.2093C67.8996 57.6661 66.7134 57.6613 65.6915 58.1955L25.4419 79.2496C24.2845 79.8548 24.2785 81.6714 25.4316 82.2868L47.4292 94.0208C48.6246 94.6585 50.0164 94.6645 51.2162 94.0371Z" fill="url(#paint24_linear_794_5880)"/>
<path d="M53.1113 39.4983C53.1113 39.4983 55.1226 40.3787 55.8497 43.6328C56.5769 46.8869 57.8126 53.8771 57.9431 54.3038C58.0737 54.7304 63.1192 57.154 63.1192 57.154C63.1192 57.154 62.2642 56.8091 61.6654 58.0849C61.0666 59.3607 61.4946 60.1636 61.4946 60.1636C61.4946 60.1636 54.6956 58.1318 54.1398 56.6198C53.5834 55.1078 53.1113 39.4983 53.1113 39.4983Z" fill="url(#paint25_linear_794_5880)"/>
<path d="M50.7232 38.4474C53.5394 39.3824 54.9328 39.7502 54.7941 46.7566C54.6554 53.7631 54.8033 61.5086 54.8033 61.5086C54.8033 61.5086 54.9736 62.7442 50.7226 65.1107C46.8013 67.2939 42.2566 65.7237 42.2566 65.7237C42.2566 65.7237 37.8833 44.3486 38.7622 43.071C39.6417 41.7934 49.19 37.9384 50.7232 38.4474Z" fill="#011026"/>
<path d="M40.4523 42.8751C39.2292 42.3625 36.6126 43.2327 37.4915 49.265C38.3704 55.2967 40.869 65.4647 42.2564 65.7243C43.6438 65.9839 46.2811 66.2867 47.854 62.1462C49.4269 58.0057 50.7224 51.4626 50.7224 51.4626C50.7224 51.4626 49.5193 51.5648 48.6866 50.6447C47.854 49.7247 47.7615 49.3665 47.7615 49.3665C47.7615 49.3665 44.5738 59.2833 44.0164 59.1301C43.4594 58.9768 43.1358 44.0001 40.4523 42.8751Z" fill="url(#paint26_linear_794_5880)"/>
<path d="M48.0806 49.9085C48.0806 49.9085 48.7724 48.3178 48.9002 47.7361C49.028 47.1544 48.9638 46.5204 49.6339 45.8683C50.3039 45.2163 50.8299 44.917 50.8299 44.917C50.8299 44.917 51.4999 45.2343 50.8299 45.8335C50.1598 46.4326 50.3034 46.6267 50.5269 46.5558C50.7505 46.4855 52.1216 44.9699 53.0625 44.917C54.0034 44.8642 54.8486 45.8683 53.7641 46.5913C52.6796 47.3136 52.6317 48.7409 52.2652 49.358C51.8986 49.9746 50.2572 51.4415 50.2572 51.4415C50.2572 51.4415 48.1861 51.1999 48.0806 49.9085Z" fill="url(#paint27_linear_794_5880)"/>
<path d="M61.3491 59.5219C61.3491 59.5219 62.3455 60.0411 62.8105 60.6282C63.2761 61.2159 64.3894 61.6384 64.4057 61.4731C64.4226 61.3079 64.0402 60.77 63.7906 60.5158C63.5415 60.2616 63.6911 59.8704 64.5553 60.5158C65.4195 61.1613 66.516 61.6384 66.9315 61.1246C67.347 60.6102 67.2306 60.0044 66.25 58.9582C65.2694 57.9113 62.8268 57.1133 62.8268 57.1133C62.8268 57.1133 61.4829 56.8543 61.3491 59.5219Z" fill="url(#paint28_linear_794_5880)"/>
<path d="M43.5581 35.8782L43.5439 40.6058C43.5439 40.6058 44.4359 41.8774 46.1915 41.9093C47.9466 41.9411 48.2343 40.7963 48.2343 40.7963V37.9232L43.5581 35.8782Z" fill="url(#paint29_linear_794_5880)"/>
<path d="M49.6941 31.2095C49.6941 31.2095 49.9024 36.228 49.8845 37.2634C49.8665 38.2983 48.9637 39.94 48.3785 40.0855C47.7933 40.2309 45.7494 40.3318 44.524 38.3998C43.2987 36.4678 41.6344 34.8861 42.5226 32.7581C43.4107 30.6302 45.1625 30.7684 46.3145 30.5653C47.467 30.3616 49.6941 31.2095 49.6941 31.2095Z" fill="url(#paint30_linear_794_5880)"/>
<path d="M50.2582 30.3657C50.2582 30.3657 50.4404 32.6139 47.8515 33.1854C45.2627 33.7568 45.0098 33.0123 45.0098 33.0123C45.0098 33.0123 45.2284 34.1138 45.0054 34.7724C44.7618 35.4942 44.6486 36.0416 44.3702 36.0699C44.0912 36.0981 43.8758 34.1409 43.2998 34.1889C42.7239 34.237 42.912 35.2328 43.3444 35.9924C43.7768 36.752 43.8002 37.4557 43.3961 37.2501C42.9925 37.0446 41.4898 35.7953 40.8083 33.5147C40.1268 31.2341 41.8444 30.4228 41.8444 30.4228C41.8444 30.4228 41.4463 28.1717 43.3189 27.6519C45.1914 27.132 49.8291 29.0112 50.2582 30.3657Z" fill="url(#paint31_linear_794_5880)"/>
<path d="M27.308 59.0104C26.0293 58.8986 23.032 61.1101 23.9348 65.625C24.8377 70.1393 26.0255 74.293 26.0255 74.293C26.0255 74.293 27.308 74.4949 28.6383 74.0232C29.9686 73.5514 31.1379 71.6188 31.1379 71.6188C31.1379 71.6188 30.9188 59.3253 27.308 59.0104Z" fill="url(#paint32_linear_794_5880)"/>
<path d="M29.5898 61.5002C29.5898 61.5002 39.1468 67.2819 39.9714 67.3865C40.7959 67.4911 42.0936 67.2885 42.8447 68.1683C43.5963 69.0475 44.6699 70.7572 44.2593 71.0012C43.8487 71.2458 42.9774 72.0757 42.3584 71.7337C41.7395 71.3918 40.9879 69.7308 40.2808 69.6334C39.5732 69.5355 40.1922 69.9754 40.2808 70.6106C40.3695 71.2458 39.9273 71.5384 39.9273 71.5384C39.9273 71.5384 38.6013 69.4868 37.3635 68.9982C36.1256 68.5097 30.6705 66.0392 30.6705 66.0392C30.6705 66.0392 30.2746 62.8548 29.5898 61.5002Z" fill="url(#paint33_linear_794_5880)"/>
<path d="M26.6294 74.3358C26.6294 74.3358 27.3712 79.0893 28.36 79.0556C29.3488 79.0214 38.1253 75.2655 39.0526 75.1627C39.9799 75.0599 40.7212 75.2504 41.3396 74.3358C41.9575 73.4212 42.7613 72.8406 43.2867 72.7042C43.8121 72.5678 43.6576 71.5089 42.4524 71.3725C41.2472 71.2361 40.6293 71.8154 40.6293 71.8154C40.6293 71.8154 41.3549 71.2361 40.9611 70.8263C40.5673 70.4164 39.6096 72.2944 37.9404 72.8749C36.2718 73.4554 31.3519 74.215 31.1387 74.0233C30.9255 73.831 30.8319 72.0744 30.8319 72.0744C30.8319 72.0744 28.9779 74.3965 26.6294 74.3358Z" fill="url(#paint34_linear_794_5880)"/>
<path d="M28.8254 47.6014C28.8254 47.6014 29.489 48.742 29.2475 49.7546C29.006 50.7672 28.7346 53.1331 28.0107 53.2335C27.2868 53.3332 26.8044 52.8669 26.5629 53.2335C26.3214 53.6001 26.4095 54.3687 26.4095 54.3687C26.4095 54.3687 26.5009 54.7226 25.3881 54.9077C24.2753 55.0928 22.8825 54.2635 22.8825 54.2635C22.8825 54.2635 19.7427 49.9674 22.3685 48.0011C24.9949 46.0354 28.8254 47.6014 28.8254 47.6014Z" fill="url(#paint35_linear_794_5880)"/>
<path d="M29.9713 46.1352C30.1519 47.3683 29.4286 49.4091 27.4679 49.7553C25.5072 50.1014 25.4773 50.2348 25.4773 50.3682C25.4773 50.5016 25.1156 48.5354 24.3009 48.5354C23.4867 48.5354 23.6069 49.715 23.9691 50.3748C24.3308 51.0347 25.3565 54.3928 22.7927 56.1133C20.2289 57.8338 21.3449 61.4665 18.5401 62.6996C15.7354 63.9328 10.7888 62.1666 11.603 57.6006C12.4172 53.0346 17.4546 54.0682 18.2687 52.1687C19.0829 50.2691 18.6424 46.0853 21.526 43.9039C24.3009 41.803 29.459 42.6359 29.9713 46.1352Z" fill="url(#paint36_linear_794_5880)"/>
<path d="M82.223 63.6418C82.223 63.6418 84.0733 65.2578 84.7265 68.2781C85.3797 71.2985 85.0528 78.9774 84.5448 79.2868C84.0368 79.5963 81.207 79.3373 80.9172 77.5026C80.6267 75.6674 82.223 63.6418 82.223 63.6418Z" fill="url(#paint37_linear_794_5880)"/>
<path d="M82.2228 63.6419C83.6738 64.4033 81.4249 78.9546 81.3156 80.6378C81.2068 82.3217 80.6265 89.0409 80.6265 89.0409C80.6265 89.0409 78.4499 92.9043 74.0668 92.1922C69.6837 91.4801 68.4534 89.5366 68.4534 89.5366C68.4534 89.5366 68.3974 77.4312 68.4534 73.2222C68.5094 69.0132 67.7627 66.2704 67.7627 66.2704C67.7627 66.2704 76.636 62.4394 78.9943 62.6798C81.352 62.9202 82.2228 63.6419 82.2228 63.6419Z" fill="#011026"/>
<path d="M67.7625 66.2704C67.7625 66.2704 70.0332 68.7727 69.4529 72.5809C68.8726 76.3891 66.5508 81.52 65.172 82.6023C63.7933 83.6846 61.5079 83.6846 61.5444 80.237C61.5803 76.7899 67.2339 66.1766 67.7625 66.2704Z" fill="url(#paint38_linear_794_5880)"/>
<path d="M78.542 55.5574C78.542 55.5574 78.8765 56.2653 78.9319 56.6968C78.9874 57.1276 79.3496 57.9587 79.3219 58.4822C79.2942 59.0056 79.3235 61.1912 78.9325 61.3144C78.5414 61.4376 76.6716 62.345 76.6716 62.345C76.6716 62.345 73.5541 59.0549 73.8325 58.7225C74.1116 58.3896 78.542 55.5574 78.542 55.5574Z" fill="url(#paint39_linear_794_5880)"/>
<path d="M78.731 57.3854C77.672 58.6167 77.0439 60.2086 77.6976 61.5319C78.3508 62.8552 81.1887 68.9494 77.4828 72.7053C73.7768 76.4612 67.9644 73.9378 67.7626 70.1807C67.5608 66.4236 69.528 64.1544 69.2675 61.7122C69.007 59.2694 68.0373 55.0339 69.7646 52.8477C71.492 50.662 75.5515 49.1585 77.9151 50.5346C81.9611 52.8903 79.7893 56.1541 78.731 57.3854Z" fill="url(#paint40_linear_794_5880)"/>
<path d="M74.5291 83.2616L73.1552 98.8159C72.9725 100.883 70.9835 102.117 69.2915 101.214L59.437 96.06L63.3203 99.7606L70.3151 104.316C72.0941 105.241 74.1576 105.219 75.9203 104.257L85.1695 99.2071C86.3682 98.5527 87.1649 97.2468 87.2645 95.7733L90.2063 77.7522C90.302 76.3363 87.2884 74.736 86.131 75.3532L76.1688 80.665C75.2497 81.1553 74.628 82.1391 74.5291 83.2616Z" fill="url(#paint41_linear_794_5880)"/>
<path d="M76.5175 84.4268L75.1436 99.981C74.9609 102.048 72.9719 103.282 71.2799 102.379L59.437 96.0599V98.7954L72.3035 105.482C74.0825 106.407 76.146 106.385 77.9087 105.423L87.1579 100.373C88.3566 99.7184 89.1534 98.4126 89.2529 96.939L90.5093 78.3164C90.605 76.9005 89.2774 75.9018 88.12 76.5189L78.1578 81.8307C77.2381 82.3205 76.617 83.3048 76.5175 84.4268Z" fill="url(#paint42_linear_794_5880)"/>
<path d="M61.0904 5.8359V14.2732C61.0904 15.8621 60.1435 17.1457 58.9775 17.1457H53.5855L50.964 22.7399L48.3338 17.1457H43.7707C42.6046 17.1457 41.6577 15.8621 41.6577 14.2732V5.8359C41.6577 4.2518 42.6046 2.96338 43.7707 2.96338H58.9775C60.1435 2.96398 61.0904 4.25241 61.0904 5.8359Z" fill="#011026"/>
<path d="M47.5763 10.4866C48.2074 10.4866 48.719 9.92132 48.719 9.22401C48.719 8.52671 48.2074 7.96143 47.5763 7.96143C46.9452 7.96143 46.4336 8.52671 46.4336 9.22401C46.4336 9.92132 46.9452 10.4866 47.5763 10.4866Z" fill="white"/>
<path d="M51.3741 10.4866C52.0052 10.4866 52.5168 9.92132 52.5168 9.22401C52.5168 8.52671 52.0052 7.96143 51.3741 7.96143C50.743 7.96143 50.2314 8.52671 50.2314 9.22401C50.2314 9.92132 50.743 10.4866 51.3741 10.4866Z" fill="white"/>
<path d="M55.172 10.4866C55.8031 10.4866 56.3147 9.92132 56.3147 9.22401C56.3147 8.52671 55.8031 7.96143 55.172 7.96143C54.5409 7.96143 54.0293 8.52671 54.0293 9.22401C54.0293 9.92132 54.5409 10.4866 55.172 10.4866Z" fill="white"/>
<path d="M100.024 33.7142L80.7829 23.8617C80.6943 23.8166 80.623 23.7006 80.623 23.6027V6.91624C80.623 6.81828 80.6948 6.77622 80.7829 6.82129L100.024 16.6738C100.113 16.7188 100.184 16.8348 100.184 16.9328V33.6192C100.184 33.7172 100.113 33.7598 100.024 33.7142Z" fill="white"/>
<path d="M81.6396 11.7678L99.1677 20.7435" stroke="#999999" stroke-miterlimit="10"/>
<path d="M81.6396 14.1416L99.1677 23.1173" stroke="#999999" stroke-miterlimit="10"/>
<path d="M81.6396 16.5154L99.1677 25.4911" stroke="#999999" stroke-miterlimit="10"/>
<path d="M81.6396 18.8889L99.1677 27.8646" stroke="#999999" stroke-miterlimit="10"/>
<path d="M81.6396 21.2627L99.1677 30.2384" stroke="#999999" stroke-miterlimit="10"/>
<path d="M81.6396 23.6365L99.1677 32.6122" stroke="#999999" stroke-miterlimit="10"/>
<path d="M81.6396 26.0103L99.1677 34.986" stroke="#999999" stroke-miterlimit="10"/>
<path d="M88.0467 26.2174L85.9849 25.1616V21.5168L88.0467 22.5727V26.2174Z" fill="#060D1B"/>
<path d="M91.2869 27.8771L89.2251 26.8207V20.7061L91.2869 21.7625V27.8771Z" fill="#060D1B"/>
<path d="M94.5277 29.5366L92.4658 28.4807V19.645L94.5277 20.7009V29.5366Z" fill="#060D1B"/>
<path d="M97.7679 31.1957L95.7061 30.1398V19.6299L97.7679 20.6857V31.1957Z" fill="#060D1B"/>
<path d="M87.8319 28.4187L86.1997 27.5828C86.0817 27.5221 85.9849 27.3244 85.9849 27.1435C85.9849 26.962 86.0817 26.8635 86.1997 26.9242L87.8319 27.7601C87.9499 27.8208 88.0467 28.0185 88.0467 28.1994C88.0467 28.3809 87.9504 28.4794 87.8319 28.4187Z" fill="#DDD2CE"/>
<path d="M84.6593 24.6323L83.1936 23.8817C83.0293 23.7976 82.8955 23.5806 82.8955 23.3997C82.8955 23.2183 83.0298 23.1389 83.1936 23.2231L84.6593 23.9736C84.8235 24.0578 84.9573 24.2747 84.9573 24.4556C84.9573 24.6365 84.823 24.7164 84.6593 24.6323Z" fill="#DDD2CE"/>
<path d="M84.7425 21.3596L83.1103 20.5237C82.9923 20.463 82.8955 20.2653 82.8955 20.0844C82.8955 19.9035 82.9923 19.8043 83.1103 19.865L84.7425 20.7009C84.8605 20.7616 84.9573 20.9593 84.9573 21.1402C84.9573 21.3211 84.8605 21.4197 84.7425 21.3596Z" fill="#DDD2CE"/>
<path d="M84.7425 18.0441L83.1103 17.2082C82.9923 17.1475 82.8955 16.9498 82.8955 16.7689C82.8955 16.5881 82.9923 16.4889 83.1103 16.5496L84.7425 17.3855C84.8605 17.4462 84.9573 17.6439 84.9573 17.8248C84.9573 18.0057 84.8605 18.1042 84.7425 18.0441Z" fill="#DDD2CE"/>
<path d="M84.6593 14.6859L83.1936 13.9353C83.0293 13.8512 82.8955 13.6342 82.8955 13.4534C82.8955 13.2725 83.0298 13.1925 83.1936 13.2767L84.6593 14.0273C84.8235 14.1114 84.9573 14.3283 84.9573 14.5092C84.9573 14.6901 84.823 14.7694 84.6593 14.6859Z" fill="#DDD2CE"/>
<path d="M90.9889 30.0353L89.5231 29.2847C89.3589 29.2005 89.2251 28.9836 89.2251 28.8027C89.2251 28.6218 89.3594 28.5419 89.5231 28.626L90.9889 29.3766C91.1531 29.4608 91.2869 29.6777 91.2869 29.8586C91.2869 30.0401 91.1531 30.1194 90.9889 30.0353Z" fill="#DDD2CE"/>
<path d="M94.2291 31.6945L92.7634 30.944C92.5991 30.8598 92.4653 30.6429 92.4653 30.462C92.4653 30.2805 92.5997 30.2012 92.7634 30.2853L94.2291 31.0359C94.3934 31.12 94.5272 31.337 94.5272 31.5179C94.5272 31.6993 94.3934 31.7787 94.2291 31.6945Z" fill="#DDD2CE"/>
<path d="M97.4699 33.3543L96.0041 32.6038C95.8399 32.5196 95.7061 32.3027 95.7061 32.1218C95.7061 31.9409 95.8404 31.861 96.0041 31.9451L97.4699 32.6957C97.6341 32.7798 97.7679 32.9968 97.7679 33.1777C97.7679 33.3586 97.6336 33.4379 97.4699 33.3543Z" fill="#DDD2CE"/>
<path d="M110.978 29.9548C110.978 29.9548 108.011 39.7707 107.55 39.8434C107.088 39.9161 101.476 36.9619 101.476 36.9619C101.476 36.9619 100.353 37.1079 100.023 38.2022C99.6928 39.2965 99.6597 39.5519 99.6597 39.5519C99.6597 39.5519 107.55 45.0307 108.54 44.7717C109.53 44.5127 112.844 39.362 112.844 39.362L110.978 29.9548Z" fill="url(#paint43_linear_794_5880)"/>
<path d="M110.548 81.4232C110.548 81.4232 110.092 82.8282 109.264 83.4869C108.436 84.1455 106.185 85.5355 107.211 86.3035C108.238 87.0715 109.694 87.3275 110.853 86.0842C112.011 84.8408 111.746 84.2915 113.203 83.9628C114.66 83.6335 114.551 83.2032 114.518 82.3253C114.485 81.4473 114.138 81.0032 114.138 81.0032C114.138 81.0032 113.468 82.4106 110.548 81.4232Z" fill="url(#paint44_linear_794_5880)"/>
<path d="M119.573 84.4083C119.573 84.4083 119.077 86.3709 118.216 86.9485C117.355 87.526 116.082 88.2801 115.933 89.3C115.783 90.3192 117.69 90.8294 119.135 89.9454C120.581 89.062 119.82 89.3745 120.95 88.0037C121.84 86.9244 123.199 86.7453 123.168 85.8619C123.137 84.9786 123.013 83.7725 123.013 83.7725C123.013 83.7725 121.084 85.5374 119.573 84.4083Z" fill="url(#paint45_linear_794_5880)"/>
<path d="M98.0437 37.9565L96.6443 28.2013C96.6139 27.9904 96.7346 27.7891 96.9223 27.7374C97.1344 27.6791 97.3465 27.8341 97.3808 28.0727L98.7948 37.9571H98.0437V37.9565Z" fill="url(#paint46_linear_794_5880)"/>
<path d="M101.145 37.0502C101.145 37.0502 100.801 35.3952 100.314 35.1584C99.8267 34.9217 98.2081 34.5334 98.2081 34.5334C98.2081 34.5334 97.7012 35.2227 98.5203 35.5034C99.3394 35.7834 99.3394 35.7834 99.3394 35.7834C99.3394 35.7834 98.969 35.6716 97.9743 35.7918C96.9795 35.9126 97.128 36.516 97.3113 38.2395C97.4946 39.963 97.8378 40.222 98.2669 40.1355C98.696 40.0495 99.6597 39.4029 99.6597 39.4029C99.6597 39.4029 100.2 37.6067 101.145 37.0502Z" fill="url(#paint47_linear_794_5880)"/>
<path d="M110.167 51.6165V68.3828C110.167 68.3828 110.276 71.9284 110.494 74.4524C110.711 76.9763 110.439 81.6036 110.439 81.6036C110.439 81.6036 110.548 82.5651 112.452 82.0844C114.355 81.6036 114.138 81.0027 114.138 81.0027C114.138 81.0027 114.464 78.3585 114.899 74.5125C115.334 70.6664 114.899 69.5847 114.899 69.5847L117.727 54.9817L110.167 51.6165Z" fill="url(#paint48_linear_794_5880)"/>
<path d="M115.389 54.7414L116.439 67.7482C116.428 69.3221 116.691 70.8828 117.216 72.3461C117.854 74.1237 118.196 75.355 118.466 77.2492C118.924 80.4624 119.196 84.3686 119.196 84.3686C119.196 84.3686 119.172 84.9948 121.142 84.922C123.112 84.8493 123.166 83.7676 123.166 83.7676C123.166 83.7676 123.547 81.7845 123.492 77.2774C123.438 72.7703 122.513 70.006 122.513 70.006C122.513 70.006 122.785 64.4172 123.166 60.0904C123.547 55.7636 122.459 54.2612 122.459 54.2612C122.459 54.2612 119.234 55.1266 115.389 54.7414Z" fill="url(#paint49_linear_794_5880)"/>
<path d="M113.995 28.7816C113.995 28.7816 123.308 31.6439 124.713 33.1631C126.119 34.6823 124.743 48.3123 124.285 48.7174C123.826 49.1224 123.166 49.7534 123.166 49.7534V53.7623C123.166 54.4792 122.749 55.1156 122.132 55.338C120.516 55.9209 117.267 56.8229 114.3 56.0032C110.145 54.8554 110.168 51.632 110.168 51.632C110.168 51.632 110.29 32.6902 110.535 31.1704C110.779 29.6518 112.223 28.6128 113.995 28.7816Z" fill="url(#paint50_linear_794_5880)"/>
<path d="M124.714 33.1631C124.714 33.1631 121.024 32.823 121.73 37.2009C122.278 40.5968 123.808 45.7589 123.42 46.0155C123.031 46.2721 116.617 49.7077 116.617 49.7077C116.617 49.7077 117.586 50.1843 117.749 51.2113C117.912 52.2383 117.749 52.275 117.749 52.275C117.749 52.275 127.544 48.9265 127.842 48.2294C128.141 47.5335 126.105 33.8212 124.714 33.1631Z" fill="url(#paint51_linear_794_5880)"/>
<path d="M119.501 26.5728L119.513 30.7782C119.513 30.7782 118.31 32.0576 116.748 32.0858C115.187 32.1141 115.341 30.9476 115.341 30.9476V28.3924L119.501 26.5728Z" fill="url(#paint52_linear_794_5880)"/>
<path d="M119.513 30.5859L116.259 31.9662L117.727 33.2883L120.585 31.0119C120.585 31.0119 120.31 29.9777 119.513 30.5859Z" fill="white"/>
<path d="M115.341 30.6712L115.878 31.8461L114.462 32.1712V29.741C114.462 29.741 115.012 30.5522 115.341 30.6712Z" fill="white"/>
<path d="M113.697 23.1041C113.697 23.1041 113.791 27.5535 113.921 28.4627C114.051 29.3725 115.028 30.697 115.559 30.7463C116.091 30.7956 117.903 30.6087 118.77 28.7415C119.637 26.8744 120.928 25.2561 119.911 23.5007C118.893 21.7453 117.365 22.1029 116.327 22.0795C115.289 22.056 113.697 23.1041 113.697 23.1041Z" fill="url(#paint53_linear_794_5880)"/>
<path d="M112.83 22.4358C112.83 22.4358 112.943 24.0169 115.287 24.1719C117.631 24.327 117.921 23.821 117.921 23.821C117.921 23.821 117.579 24.9664 118.08 25.3714C118.579 25.7764 118.399 26.6809 118.648 26.6682C118.896 26.6556 118.87 24.9021 119.383 24.8666C119.896 24.8311 119.84 25.7344 119.543 26.4615C119.246 27.1886 119.303 27.8124 119.636 27.5769C119.969 27.3413 121.032 26.3059 121.381 24.2044C121.73 22.1029 120.25 21.3517 120.25 21.3517C120.25 21.3517 120.352 19.3145 118.645 19.1089C116.937 18.9034 113.059 21.1846 112.83 22.4358Z" fill="url(#paint54_linear_794_5880)"/>
<path d="M115.834 31.8333L114.936 32.082L115.188 32.2317L112.997 50.9992L113.973 52.2462L115.556 51.2456L116.482 32.4552L116.812 32.5033L116.291 31.9607L115.834 31.8333Z" fill="url(#paint55_linear_794_5880)"/>
<path d="M116.858 49.8581C116.858 49.8581 115.856 49.6682 115.203 49.7884C114.55 49.9086 114.019 50.2097 114.019 50.2097C114.019 50.2097 113.611 50.6459 114.4 50.5702C115.19 50.4951 115.386 50.5786 115.386 50.5786C115.386 50.5786 114.578 51.1862 113.666 51.3364C112.754 51.4867 112.877 52.2535 113.312 52.3586C113.748 52.4638 113.081 52.9452 113.38 53.2006C113.679 53.456 113.679 53.8322 114.183 54.1176C114.687 54.4031 115.285 54.6891 115.856 54.1176C116.428 53.5461 117.819 52.0281 117.819 52.0281C117.819 52.0281 118.022 50.3335 116.858 49.8581Z" fill="url(#paint56_linear_794_5880)"/>
<defs>
<linearGradient id="paint0_linear_794_5880" x1="52.9238" y1="110.576" x2="52.8671" y2="114.5" gradientUnits="userSpaceOnUse">
<stop stop-color="#001740"/>
<stop offset="1" stop-color="#154677"/>
</linearGradient>
<linearGradient id="paint1_linear_794_5880" x1="72.984" y1="90.6453" x2="71.2195" y2="108.106" gradientUnits="userSpaceOnUse">
<stop stop-color="#DDD2CE"/>
<stop offset="1" stop-color="#FEFEFE"/>
</linearGradient>
<linearGradient id="paint2_linear_794_5880" x1="54.9392" y1="96.7773" x2="74.7109" y2="95.6263" gradientUnits="userSpaceOnUse">
<stop stop-color="#5CB2FF"/>
<stop offset="1" stop-color="#182687"/>
</linearGradient>
<linearGradient id="paint3_linear_794_5880" x1="75.3779" y1="106.482" x2="73.4483" y2="125.576" gradientUnits="userSpaceOnUse">
<stop stop-color="#DDD2CE"/>
<stop offset="1" stop-color="#FEFEFE"/>
</linearGradient>
<linearGradient id="paint4_linear_794_5880" x1="59.9197" y1="98.6374" x2="58.1551" y2="116.098" gradientUnits="userSpaceOnUse">
<stop stop-color="#DDD2CE"/>
<stop offset="1" stop-color="#FEFEFE"/>
</linearGradient>
<linearGradient id="paint5_linear_794_5880" x1="88.4423" y1="98.4897" x2="86.5127" y2="117.583" gradientUnits="userSpaceOnUse">
<stop stop-color="#DDD2CE"/>
<stop offset="1" stop-color="#FEFEFE"/>
</linearGradient>
<linearGradient id="paint6_linear_794_5880" x1="32.3097" y1="103.293" x2="27.6947" y2="104.641" gradientUnits="userSpaceOnUse">
<stop stop-color="#DDD2CE"/>
<stop offset="1" stop-color="#FEFEFE"/>
</linearGradient>
<linearGradient id="paint7_linear_794_5880" x1="18.9226" y1="54.5747" x2="30.7853" y2="85.0232" gradientUnits="userSpaceOnUse">
<stop stop-color="#878FC1"/>
<stop offset="1" stop-color="#182687"/>
</linearGradient>
<linearGradient id="paint8_linear_794_5880" x1="41.2728" y1="102.115" x2="18.1334" y2="70.7816" gradientUnits="userSpaceOnUse">
<stop stop-color="#001740"/>
<stop offset="1" stop-color="#154677"/>
</linearGradient>
<linearGradient id="paint9_linear_794_5880" x1="19.1966" y1="95.5651" x2="10.5669" y2="98.0862" gradientUnits="userSpaceOnUse">
<stop stop-color="#DDD2CE"/>
<stop offset="1" stop-color="#FEFEFE"/>
</linearGradient>
<linearGradient id="paint10_linear_794_5880" x1="54.5061" y1="87.9239" x2="49.8911" y2="89.2721" gradientUnits="userSpaceOnUse">
<stop stop-color="#DDD2CE"/>
<stop offset="1" stop-color="#FEFEFE"/>
</linearGradient>
<linearGradient id="paint11_linear_794_5880" x1="43.0265" y1="45.1837" x2="54.8892" y2="75.6322" gradientUnits="userSpaceOnUse">
<stop stop-color="#878FC1"/>
<stop offset="1" stop-color="#182687"/>
</linearGradient>
<linearGradient id="paint12_linear_794_5880" x1="50.4508" y1="45.3667" x2="53.1796" y2="71.0361" gradientUnits="userSpaceOnUse">
<stop stop-color="#001740"/>
<stop offset="1" stop-color="#154677"/>
</linearGradient>
<linearGradient id="paint13_linear_794_5880" x1="31.44" y1="107.028" x2="39.494" y2="107.462" gradientUnits="userSpaceOnUse">
<stop stop-color="#001740"/>
<stop offset="1" stop-color="#154677"/>
</linearGradient>
<linearGradient id="paint14_linear_794_5880" x1="36.0307" y1="92.8472" x2="42.8017" y2="93.3687" gradientUnits="userSpaceOnUse">
<stop stop-color="#001740"/>
<stop offset="1" stop-color="#154677"/>
</linearGradient>
<linearGradient id="paint15_linear_794_5880" x1="35.6932" y1="109.813" x2="45.2165" y2="110.326" gradientUnits="userSpaceOnUse">
<stop stop-color="#001740"/>
<stop offset="1" stop-color="#154677"/>
</linearGradient>
<linearGradient id="paint16_linear_794_5880" x1="60.4215" y1="62.7844" x2="47.1003" y2="69.3993" gradientUnits="userSpaceOnUse">
<stop stop-color="#001740"/>
<stop offset="1" stop-color="#154677"/>
</linearGradient>
<linearGradient id="paint17_linear_794_5880" x1="57.3467" y1="97.5637" x2="38.4209" y2="124.549" gradientUnits="userSpaceOnUse">
<stop stop-color="#DDD2CE"/>
<stop offset="1" stop-color="#FEFEFE"/>
</linearGradient>
<linearGradient id="paint18_linear_794_5880" x1="33.3331" y1="84.7404" x2="14.4073" y2="111.725" gradientUnits="userSpaceOnUse">
<stop stop-color="#DDD2CE"/>
<stop offset="1" stop-color="#FEFEFE"/>
</linearGradient>
<linearGradient id="paint19_linear_794_5880" x1="99.4664" y1="73.8136" x2="80.5406" y2="100.799" gradientUnits="userSpaceOnUse">
<stop stop-color="#DDD2CE"/>
<stop offset="1" stop-color="#FEFEFE"/>
</linearGradient>
<linearGradient id="paint20_linear_794_5880" x1="75.4523" y1="60.9902" x2="56.5265" y2="87.9752" gradientUnits="userSpaceOnUse">
<stop stop-color="#DDD2CE"/>
<stop offset="1" stop-color="#FEFEFE"/>
</linearGradient>
<linearGradient id="paint21_linear_794_5880" x1="85.9657" y1="59.2012" x2="102.245" y2="-30.6036" gradientUnits="userSpaceOnUse">
<stop stop-color="#F5F5F5"/>
<stop offset="1" stop-color="#FEFEFE"/>
</linearGradient>
<linearGradient id="paint22_linear_794_5880" x1="89.4344" y1="16.1623" x2="93.2661" y2="-4.97469" gradientUnits="userSpaceOnUse">
<stop stop-color="#5CB2FF"/>
<stop offset="1" stop-color="#182687"/>
</linearGradient>
<linearGradient id="paint23_linear_794_5880" x1="67.1076" y1="84.7512" x2="66.8201" y2="104.657" gradientUnits="userSpaceOnUse">
<stop stop-color="#001740"/>
<stop offset="1" stop-color="#154677"/>
</linearGradient>
<linearGradient id="paint24_linear_794_5880" x1="30.7541" y1="94.4473" x2="97.509" y2="58.3028" gradientUnits="userSpaceOnUse">
<stop stop-color="#DDD2CE"/>
<stop offset="1" stop-color="#FEFEFE"/>
</linearGradient>
<linearGradient id="paint25_linear_794_5880" x1="60.8839" y1="43.5971" x2="51.4884" y2="56.9935" gradientUnits="userSpaceOnUse">
<stop stop-color="#062450"/>
<stop offset="1" stop-color="#154677"/>
</linearGradient>
<linearGradient id="paint26_linear_794_5880" x1="47.1264" y1="45.8288" x2="34.9523" y2="63.1871" gradientUnits="userSpaceOnUse">
<stop stop-color="#062450"/>
<stop offset="1" stop-color="#154677"/>
</linearGradient>
<linearGradient id="paint27_linear_794_5880" x1="49.5632" y1="45.8923" x2="52.4637" y2="48.8507" gradientUnits="userSpaceOnUse">
<stop stop-color="#F9A7A7"/>
<stop offset="1" stop-color="#FFD7D7"/>
</linearGradient>
<linearGradient id="paint28_linear_794_5880" x1="65.4799" y1="57.3525" x2="63.1866" y2="60.8549" gradientUnits="userSpaceOnUse">
<stop stop-color="#F9A7A7"/>
<stop offset="1" stop-color="#FFD7D7"/>
</linearGradient>
<linearGradient id="paint29_linear_794_5880" x1="43.9005" y1="38.8943" x2="50.5456" y2="38.8943" gradientUnits="userSpaceOnUse">
<stop stop-color="#F9A7A7"/>
<stop offset="1" stop-color="#FFD7D7"/>
</linearGradient>
<linearGradient id="paint30_linear_794_5880" x1="42.0918" y1="33.0635" x2="48.2738" y2="35.1969" gradientUnits="userSpaceOnUse">
<stop stop-color="#F9A7A7"/>
<stop offset="1" stop-color="#FFD7D7"/>
</linearGradient>
<linearGradient id="paint31_linear_794_5880" x1="39.5192" y1="32.9901" x2="54.0696" y2="31.3717" gradientUnits="userSpaceOnUse">
<stop stop-color="#001740"/>
<stop offset="1" stop-color="#154677"/>
</linearGradient>
<linearGradient id="paint32_linear_794_5880" x1="31.3121" y1="60.257" x2="22.0625" y2="73.4454" gradientUnits="userSpaceOnUse">
<stop stop-color="#001740"/>
<stop offset="1" stop-color="#154677"/>
</linearGradient>
<linearGradient id="paint33_linear_794_5880" x1="35.2002" y1="69.1458" x2="37.837" y2="65.5438" gradientUnits="userSpaceOnUse">
<stop stop-color="#F9A7A7"/>
<stop offset="1" stop-color="#FFD7D7"/>
</linearGradient>
<linearGradient id="paint34_linear_794_5880" x1="35.3884" y1="77.5569" x2="34.9641" y2="72.4209" gradientUnits="userSpaceOnUse">
<stop stop-color="#F9A7A7"/>
<stop offset="1" stop-color="#FFD7D7"/>
</linearGradient>
<linearGradient id="paint35_linear_794_5880" x1="27.8021" y1="46.0343" x2="21.7136" y2="54.7155" gradientUnits="userSpaceOnUse">
<stop stop-color="#F9A7A7"/>
<stop offset="1" stop-color="#FFD7D7"/>
</linearGradient>
<linearGradient id="paint36_linear_794_5880" x1="27.4073" y1="40.7122" x2="11.1224" y2="63.9316" gradientUnits="userSpaceOnUse">
<stop stop-color="#001740"/>
<stop offset="1" stop-color="#154677"/>
</linearGradient>
<linearGradient id="paint37_linear_794_5880" x1="85.4139" y1="71.1591" x2="81.8718" y2="71.6244" gradientUnits="userSpaceOnUse">
<stop stop-color="#5CB2FF"/>
<stop offset="1" stop-color="#182687"/>
</linearGradient>
<linearGradient id="paint38_linear_794_5880" x1="63.617" y1="73.6917" x2="68.6062" y2="76.1644" gradientUnits="userSpaceOnUse">
<stop stop-color="#5CB2FF"/>
<stop offset="1" stop-color="#182687"/>
</linearGradient>
<linearGradient id="paint39_linear_794_5880" x1="75.2659" y1="58.9091" x2="79.11" y2="58.9658" gradientUnits="userSpaceOnUse">
<stop stop-color="#F9A7A7"/>
<stop offset="1" stop-color="#FFD7D7"/>
</linearGradient>
<linearGradient id="paint40_linear_794_5880" x1="75.0278" y1="50.4353" x2="73.0298" y2="70.205" gradientUnits="userSpaceOnUse">
<stop stop-color="#001740"/>
<stop offset="1" stop-color="#154677"/>
</linearGradient>
<linearGradient id="paint41_linear_794_5880" x1="51.022" y1="92.1643" x2="86.6857" y2="90.088" gradientUnits="userSpaceOnUse">
<stop stop-color="#5CB2FF"/>
<stop offset="1" stop-color="#182687"/>
</linearGradient>
<linearGradient id="paint42_linear_794_5880" x1="74.9753" y1="81.1943" x2="74.9753" y2="104.793" gradientUnits="userSpaceOnUse">
<stop stop-color="#878FC1"/>
<stop offset="1" stop-color="#182687"/>
</linearGradient>
<linearGradient id="paint43_linear_794_5880" x1="103.103" y1="31.5785" x2="113.734" y2="44.0554" gradientUnits="userSpaceOnUse">
<stop stop-color="#062450"/>
<stop offset="1" stop-color="#154677"/>
</linearGradient>
<linearGradient id="paint44_linear_794_5880" x1="106.224" y1="83.711" x2="113.845" y2="84.0217" gradientUnits="userSpaceOnUse">
<stop stop-color="#001740"/>
<stop offset="1" stop-color="#154677"/>
</linearGradient>
<linearGradient id="paint45_linear_794_5880" x1="115.257" y1="86.8378" x2="122.509" y2="87.1334" gradientUnits="userSpaceOnUse">
<stop stop-color="#001740"/>
<stop offset="1" stop-color="#154677"/>
</linearGradient>
<linearGradient id="paint46_linear_794_5880" x1="99.4454" y1="31.8769" x2="96.8297" y2="33.1757" gradientUnits="userSpaceOnUse">
<stop stop-color="#001740"/>
<stop offset="1" stop-color="#154677"/>
</linearGradient>
<linearGradient id="paint47_linear_794_5880" x1="96.7216" y1="37.2703" x2="100.787" y2="37.4361" gradientUnits="userSpaceOnUse">
<stop stop-color="#F9A7A7"/>
<stop offset="1" stop-color="#FFD7D7"/>
</linearGradient>
<linearGradient id="paint48_linear_794_5880" x1="116.013" y1="66.1293" x2="110.501" y2="66.8328" gradientUnits="userSpaceOnUse">
<stop stop-color="#001740"/>
<stop offset="1" stop-color="#154677"/>
</linearGradient>
<linearGradient id="paint49_linear_794_5880" x1="122.736" y1="69.5943" x2="115.7" y2="69.5943" gradientUnits="userSpaceOnUse">
<stop stop-color="#001740"/>
<stop offset="1" stop-color="#154677"/>
</linearGradient>
<linearGradient id="paint50_linear_794_5880" x1="121.897" y1="43.939" x2="111.959" y2="42.3269" gradientUnits="userSpaceOnUse">
<stop stop-color="#062450"/>
<stop offset="1" stop-color="#154677"/>
</linearGradient>
<linearGradient id="paint51_linear_794_5880" x1="118.061" y1="41.5917" x2="129.511" y2="44.9272" gradientUnits="userSpaceOnUse">
<stop stop-color="#062450"/>
<stop offset="1" stop-color="#154677"/>
</linearGradient>
<linearGradient id="paint52_linear_794_5880" x1="119.196" y1="29.3297" x2="113.279" y2="29.3297" gradientUnits="userSpaceOnUse">
<stop stop-color="#F9A7A7"/>
<stop offset="1" stop-color="#FFD7D7"/>
</linearGradient>
<linearGradient id="paint53_linear_794_5880" x1="120.356" y1="23.776" x2="115.094" y2="26.3887" gradientUnits="userSpaceOnUse">
<stop stop-color="#F9A7A7"/>
<stop offset="1" stop-color="#FFD7D7"/>
</linearGradient>
<linearGradient id="paint54_linear_794_5880" x1="122.446" y1="23.3031" x2="109.623" y2="23.4802" gradientUnits="userSpaceOnUse">
<stop stop-color="#001740"/>
<stop offset="1" stop-color="#154677"/>
</linearGradient>
<linearGradient id="paint55_linear_794_5880" x1="114.977" y1="51.7268" x2="114.862" y2="38.79" gradientUnits="userSpaceOnUse">
<stop stop-color="#5CB2FF"/>
<stop offset="1" stop-color="#3C70C7"/>
</linearGradient>
<linearGradient id="paint56_linear_794_5880" x1="112.452" y1="51.9484" x2="117.402" y2="52.1503" gradientUnits="userSpaceOnUse">
<stop stop-color="#F9A7A7"/>
<stop offset="1" stop-color="#FFD7D7"/>
</linearGradient>
</defs>
</svg>
